<?xml version="1.0" encoding="utf-8"?>
<!-- Generator: Adobe Illustrator 19.2.1, SVG Export Plug-In . SVG Version: 6.00 Build 0)  -->
<svg version="1.1" xmlns="http://www.w3.org/2000/svg" xmlns:xlink="http://www.w3.org/1999/xlink" x="0px" y="0px"
	 viewBox="0 0 800 800" style="enable-background:new 0 0 800 800;" xml:space="preserve">
<style type="text/css">
	.st0{fill:none;}
	.st1{fill:#FFF2DB;}
	.st2{fill:#FFFFFF;}
	.st3{fill:#FCEDD0;}
	.st4{fill:url(#New_Pattern_2);}
</style>
<pattern  width="161.6" height="210.7" patternUnits="userSpaceOnUse" id="New_Pattern_2" viewBox="41.2 -228.1 161.6 210.7" style="overflow:visible;">
	<g>
		<rect x="41.2" y="-228.1" class="st0" width="161.6" height="210.7"/>
		<g>
			<path class="st1" d="M165.3-36.1c0.6,2.1,1.6,4,2.7,5.9c2.6,4.3,6.4,7.8,10.3,10.9c-1.8-1.5-3.2-4-4.3-6c-3-5.4-3.9-10.9-1-16.5
				c1.5-2.9,4.2-5.7,4.2-9.1c-0.1-2.9-2.5-4.9-5.4-4.1c-3.4,1-5.3,4.2-6.2,7.4c-0.5,1.7-1,3.7-1,5.5C164.5-40.2,164.7-38,165.3-36.1
				z"/>
			<path class="st1" d="M154.4-49.3c-0.3,1.6-0.6,3.4-0.5,5c0.1,1.7,0.5,3.7,1.1,5.3c0.7,1.8,1.7,3.5,2.9,5.1
				c2.7,3.7,6.3,6.6,10.1,9.1c-1.8-1.2-3.1-3.3-4.3-5c-3.1-4.6-4.3-9.5-2.2-14.8c1.1-2.7,3.4-5.4,3.1-8.5c-0.3-2.6-2.6-4.2-5.1-3.2
				C156.5-55.3,155-52.2,154.4-49.3z"/>
			<path class="st1" d="M152.2-52.6c-0.8-2.3-3.1-3.2-5.2-1.8c-2.4,1.6-3.1,4.5-3,7.2c0,1.4,0.2,3.1,0.6,4.5c0.4,1.5,1.2,3.2,2,4.5
				c1,1.4,2.2,2.7,3.5,3.9c3.1,2.7,6.8,4.5,10.7,6c-1.8-0.7-3.4-2.3-4.8-3.6c-3.6-3.5-5.7-7.5-4.8-12.6
				C151.6-47.1,153.1-50,152.2-52.6z"/>
			<path class="st1" d="M141.2-30.7c-1,0-2.1,0.3-3,0.7c-0.8,0.3-1.7,0.9-2.4,1.4c-1.4,1-2.6,2.4-2.5,4.2c0.1,1.5,1.4,2.3,2.8,1.9
				c1.6-0.5,2.5-2.3,3.6-3.5c2.2-2.3,5-2.8,8-2.3c1.1,0.2,2.5,0.4,3.5,1c-2.1-1.4-4.4-2.6-6.9-3.1C143.4-30.6,142.3-30.8,141.2-30.7
				z"/>
			<path class="st1" d="M141.2-43.7c0.7,1.7,1.6,3.3,2.4,4.6c0.4,0.7,0.9,1.3,1.4,1.8c0.2,0.3,0.5,0.6,0.7,0.8
				c0.2,0.2,0.5,0.5,0.7,0.7c0.9,1,1.7,1.7,2.4,2.3c0.7,0.6,1.3,1.1,1.6,1.4c0.4,0.3,0.6,0.5,0.6,0.5s-0.2-0.2-0.5-0.5
				c-0.4-0.3-0.9-0.8-1.5-1.5c-0.6-0.7-1.4-1.4-2.3-2.4c-0.2-0.2-0.4-0.5-0.6-0.8c-0.2-0.3-0.4-0.6-0.6-0.9
				c-0.4-0.6-0.9-1.2-1.2-1.9c-0.8-1.4-1.5-2.9-2.1-4.6c-0.6-1.7-1-3.5-1.2-5.5c-0.4-3.8,0.1-8.1,2-11.5l0.2-0.3l0.1-0.1l0.1-0.2
				l0.4-0.7c0.3-0.4,0.6-0.8,0.9-1.2c0.6-0.7,1.3-1.5,2-2l0.5-0.4l0.6-0.3c0.4-0.3,0.8-0.4,1.1-0.5c0.2-0.1,0.4-0.1,0.6-0.2l0.3-0.1
				l0.1,0l0.1,0l0,0l0,0c0,0-0.1,0-0.1,0c0,0,0,0,0,0l0.7-0.1c0.2,0,0.3,0,0.5,0c1.6,0.1,3.2,0.9,4.3,1.9c1.1,1.1,1.8,2.5,1.9,3.8
				c0.1,1-0.1,1.9-0.5,2.8c0.1-1.1-0.3-2.3-1.1-3.1c-1.6-1.7-4.3-1.7-5.9-0.1c-1.7,1.6-1.7,4.3-0.1,5.9c0.5,0.5,1.1,0.9,1.8,1.1l0,0
				c0,0,0,0,0.1,0c0.5,0.2,1.1,0.2,1.6,0.2c0,0,0.1,0,0.1,0c0.1,0,0.2,0,0.2,0c0.3,0,0.6-0.1,1-0.2c0.9-0.3,2.1-0.9,3-2
				c0.9-1.1,1.6-2.6,1.7-4.4c0-0.9-0.1-1.9-0.4-2.8c-0.4-0.9-0.9-1.8-1.6-2.6c-1.4-1.6-3.4-2.8-5.7-3.1c-0.3,0-0.7,0-1-0.1l-0.8,0
				l-0.1,0l0,0l-0.1,0l-0.1,0l-0.2,0l-0.4,0.1c-0.3,0.1-0.6,0.1-0.9,0.3c-0.5,0.3-1.1,0.4-1.6,0.8l-0.7,0.5
				c-0.2,0.2-0.4,0.4-0.7,0.6c-1.7,1.6-2.9,3.6-3.8,5.6c-0.9,2.1-1.5,4.3-1.7,6.4c-0.2,2.2-0.1,4.3,0.3,6.3
				C139.9-47.3,140.5-45.4,141.2-43.7z"/>
			<path class="st1" d="M177.5-16.1c3.4,1.1,7.7,2.3,10.4,4.7c-6-5.1-12.5-9.7-19.9-12.4c-3.2-1.1-6.5-2-9.8-2.3
				c-3-0.3-6.5,0.1-9.4,0.8c-2.7,0.6-5.6,1.9-8,3.2c-3.9,2.1-7.7,5.3-8.9,9.7c0,0.1-0.1,0.2-0.1,0.3c-1.6,5,1.2,10.2,6.1,11.8
				c5,1.6,10.2-1.2,11.8-6.1c0.4-1.4,0.5-2.9,0.3-4.2c0.6-0.6,1.3-1.2,2-1.7C159.6-18.7,168.2-19,177.5-16.1z"/>
			<path class="st1" d="M175.9-36.2c0,2.2,0.5,4.5,1.1,6.6c1.5,5,4.2,9.6,7.3,13.8c-1.5-2-2.1-4.8-2.6-7.1c-1.5-6.2-1-11.9,3.5-16.8
				c0.4-0.4,0.8-0.8,1.2-1.2c0.9,0.2,1.9,0.2,2.8,0c3.4-0.8,5.4-4.2,4.6-7.5c-0.8-3.3-4.2-5.4-7.5-4.6c-0.1,0-0.1,0-0.2,0
				c-2.9,0.6-5.2,3-6.8,5.5c-1,1.6-2,3.4-2.5,5.2C176.2-40.5,175.8-38.2,175.9-36.2z"/>
			<path class="st1" d="M131.6-18.2c0.4-0.6,0.5-1.4,0.3-2.2c-0.4-1.5-2-2.3-3.4-1.9c-1.5,0.4-2.3,2-1.9,3.4c0.3,0.9,1,1.6,1.8,1.9
				c-0.7,0-1.6-0.1-2.4-0.4c-0.9-0.4-1.6-1.2-2-2.2c-0.4-1-0.4-2.3-0.1-3.3c0-0.2,0.2-0.6,0.3-0.9c0.1-0.2,0.3-0.5,0.4-0.8
				c0.3-0.5,0.7-1,1.1-1.5c0.9-0.9,1.9-1.8,3.1-2.6c2.3-1.6,4.8-2.7,7.4-3.5c1.3-0.4,2.5-0.6,3.7-0.8c1.2-0.1,2.3-0.2,3.4-0.1
				c2.1,0.1,3.8,0.6,4.9,1.2c0.6,0.2,1,0.5,1.3,0.7c0.3,0.2,0.4,0.3,0.4,0.3s-0.1-0.1-0.4-0.3c-0.3-0.2-0.6-0.6-1.2-0.9
				c-0.5-0.4-1.2-0.7-2.1-1.1c-0.8-0.3-1.8-0.7-2.9-0.8c-1.1-0.2-2.3-0.3-3.6-0.2c-1.3,0.1-2.6,0.2-4,0.5c-1.4,0.3-2.8,0.7-4.1,1.3
				c-1.4,0.6-2.7,1.3-4,2c-1.3,0.8-2.5,1.7-3.6,2.9c-0.5,0.6-1,1.2-1.3,1.9c-0.2,0.4-0.3,0.7-0.5,1.1c-0.1,0.4-0.2,0.6-0.2,1
				c-0.2,1.6,0,3,0.6,4.3c0.6,1.2,1.8,2.2,2.9,2.5c2.3,0.7,4.3,0,5.3-0.9C131.2-17.6,131.4-17.9,131.6-18.2z"/>
			<path class="st1" d="M193.4-37.8l-0.3-0.1l0,0l-0.1,0l-0.1,0l-0.1,0l-0.5,0l-0.1,0h-0.1l-0.3,0c-0.2,0-0.4,0-0.6,0l-0.5,0.1
				c-0.1,0-0.2,0-0.3,0l-0.3,0.1l-0.5,0.1c-1.4,0.4-2.8,1.1-3.9,2.1c-1.1,1-1.9,2.3-2.4,3.7c-0.1,0.4-0.2,0.7-0.3,1.1l-0.1,0.3
				l0,0.1l0,0.1l0,0.1l0,0.5c0,0,0,0.1,0,0.1l0,0.2v0.3l0,0.3l0,0.3c0,0.2,0,0.4,0.1,0.6l0.1,0.6c0.2,0.7,0.5,1.4,0.9,2.1
				c0.4,0.6,0.9,1.2,1.5,1.7c0.6,0.5,1.2,0.9,1.9,1.2c0.2,0.1,0.3,0.1,0.5,0.2l0.5,0.2c0.2,0.1,0.4,0.1,0.5,0.1l0.3,0.1l0.1,0l0,0
				l0.1,0l0.1,0l0.2,0c0.1,0,0.1,0,0.3,0c0.2,0,0.4,0,0.6,0l0.6-0.1c0.2,0,0.4-0.1,0.6-0.1c0.7-0.2,1.4-0.5,2-0.9
				c1.2-0.8,2.1-2.1,2.5-3.5c0.1-0.2,0.1-0.3,0.1-0.5l0-0.3l0-0.1l0,0l0-0.1l0-0.1l0-0.2c0,0,0-0.1,0-0.1v-0.2c0-0.2,0-0.4,0-0.6
				c-0.1-0.7-0.3-1.4-0.6-2c-0.7-1.2-1.8-2.1-3.1-2.5c-0.2,0-0.3-0.1-0.5-0.1l-0.2,0l-0.1,0l-0.1,0l0,0l-0.1,0l-0.2,0l-0.1,0l0,0
				l-0.1,0c-0.2,0-0.4,0-0.6,0c-0.7,0.1-1.3,0.3-1.8,0.6c-1.1,0.6-1.9,1.7-2.1,2.8c-0.1,0.5-0.2,1.1-0.1,1.7
				c0.1,0.6,0.3,1.1,0.6,1.5c0.3,0.5,0.7,0.9,1.1,1.1c1.1,0.9,2.7,1,3.8,0.1c1.3-1,1.6-3,0.6-4.3c-0.2-0.2-0.4-0.4-0.6-0.6
				c0.5,0.2,1,0.6,1.3,1.2c0.2,0.3,0.3,0.6,0.3,1c0,0.1,0,0.2,0,0.2l0,0.1c0,0,0,0.1,0,0.1l0,0.2l0,0.1l0,0l0,0l0,0.2
				c0,0.1,0,0.2-0.1,0.3c-0.4,1.6-2.1,2.9-4,2.7l-0.1,0l0,0l0,0l-0.2,0c-0.1,0-0.2,0-0.4-0.1l-0.4-0.1l-0.3-0.1
				c-0.4-0.2-0.9-0.4-1.3-0.8c-0.4-0.3-0.7-0.7-1-1.1c-0.3-0.4-0.5-0.9-0.6-1.4l-0.1-0.4c0-0.1,0-0.3-0.1-0.4l0-0.2l0-0.2l0-0.2
				l0-0.1c0,0,0-0.1,0-0.1l0-0.5l0.1-0.4c0-0.3,0.1-0.5,0.2-0.8c0.3-1.1,0.9-2,1.7-2.8c0.8-0.8,1.8-1.4,2.9-1.7l0.4-0.1l0.2-0.1
				c0.1,0,0.1,0,0.2,0l0.4-0.1c0.1,0,0.3,0,0.4,0l0.2,0l0.1,0l0.1,0l0.5,0l0.1,0l0.1,0l0,0l0.2,0l0.4,0.1c1.1,0.2,2.2,0.7,3.1,1.3
				c0.9,0.6,1.8,1.4,2.4,2.3c0.6,0.9,1.1,1.9,1.4,3c0.1,0.3,0.1,0.5,0.2,0.8l0.1,0.4l0,0.2l0,0.2c0,0.3,0,0.5,0,0.8
				c0,0.3,0,0.6,0,0.8l0,0.1c0,0,0,0,0,0l0,0l0,0.1l0,0.2l-0.1,0.4c0,0.3-0.1,0.5-0.1,0.8c-0.1,0.2-0.1,0.5-0.2,0.7
				c-0.1,0.2-0.2,0.5-0.3,0.7c-0.2,0.5-0.4,0.9-0.6,1.3c-0.1,0.2-0.2,0.4-0.4,0.6c-0.1,0.2-0.2,0.4-0.4,0.6
				c-0.9,1.3-2.1,2.3-3.2,3.1c0,0,0,0,0,0c-0.5,0.1-1.1,0.3-1.6,0.5c-0.3,0.1-0.5,0.2-0.8,0.3c-0.2,0.1-0.5,0.2-0.7,0.3
				c-0.2,0.1-0.4,0.2-0.7,0.3c-0.2,0.1-0.4,0.2-0.6,0.3c-0.2,0.1-0.4,0.2-0.5,0.3c-0.2,0.1-0.3,0.2-0.4,0.4
				c-0.1,0.1-0.3,0.2-0.4,0.3c-0.1,0.1-0.2,0.2-0.3,0.3c-0.3,0.4-0.5,0.6-0.5,0.6s0.3-0.1,0.7-0.4c0.1-0.1,0.2-0.1,0.4-0.2
				c0.1-0.1,0.3-0.1,0.4-0.2c0.2-0.1,0.3-0.1,0.5-0.2c0.2-0.1,0.4-0.1,0.6-0.2c0.4-0.2,0.8-0.3,1.3-0.4c0.5-0.1,1-0.2,1.5-0.4
				c0.5-0.1,1.1-0.2,1.6-0.4c0.5-0.1,1.1-0.3,1.7-0.4c0.6-0.1,1.1-0.3,1.7-0.5c0.6-0.2,1.1-0.4,1.6-0.6c0.5-0.2,1-0.5,1.4-0.8
				c0.4-0.3,0.8-0.6,1.1-0.9c0.3-0.3,0.5-0.7,0.6-1c0.1-0.3,0.2-0.6,0.2-0.9c0-0.3-0.1-0.4-0.1-0.6c0-0.1-0.1-0.2-0.1-0.2
				s0,0.1,0,0.2c0,0.1,0,0.3-0.1,0.5c-0.1,0.2-0.2,0.5-0.4,0.7c-0.2,0.2-0.4,0.5-0.7,0.7c-0.6,0.4-1.5,0.8-2.5,1.1
				c-0.7,0.2-1.5,0.5-2.4,0.7c0.6-0.5,1.2-1.1,1.7-1.7c0.2-0.2,0.3-0.4,0.5-0.6c0.1-0.2,0.3-0.4,0.4-0.7c0.3-0.5,0.5-0.9,0.7-1.4
				c0.1-0.3,0.2-0.5,0.3-0.8c0.1-0.3,0.2-0.5,0.3-0.8c0.1-0.3,0.2-0.6,0.2-0.8l0.1-0.4l0-0.2l0-0.1l0,0l0-0.1l0-0.1
				c0-0.3,0.1-0.6,0.1-0.8c0-0.3,0-0.6,0-0.9v-0.2l0-0.2l0-0.5c0-0.3-0.1-0.6-0.2-0.9c-0.3-1.2-0.8-2.5-1.5-3.6
				c-1.4-2.2-3.8-4-6.6-4.6L193.4-37.8z"/>
		</g>
		<g>
			<path class="st1" d="M31.8-37.8l-0.3-0.1l0,0l-0.1,0l-0.1,0l-0.1,0l-0.5,0l-0.1,0h-0.1l-0.3,0c-0.2,0-0.4,0-0.6,0l-0.5,0.1
				c-0.1,0-0.2,0-0.3,0l-0.3,0.1L28-37.6c-1.4,0.4-2.8,1.1-3.9,2.1c-1.1,1-1.9,2.3-2.4,3.7c-0.1,0.4-0.2,0.7-0.3,1.1l-0.1,0.3l0,0.1
				l0,0.1l0,0.1l0,0.5c0,0,0,0.1,0,0.1l0,0.2v0.3l0,0.3l0,0.3c0,0.2,0,0.4,0.1,0.6l0.1,0.6c0.2,0.7,0.5,1.4,0.9,2.1
				c0.4,0.6,0.9,1.2,1.5,1.7c0.6,0.5,1.2,0.9,1.9,1.2c0.2,0.1,0.3,0.1,0.5,0.2l0.5,0.2c0.2,0.1,0.4,0.1,0.5,0.1l0.3,0.1l0.1,0l0,0
				l0.1,0l0.1,0l0.2,0c0.1,0,0.1,0,0.3,0c0.2,0,0.4,0,0.6,0l0.6-0.1c0.2,0,0.4-0.1,0.6-0.1c0.7-0.2,1.4-0.5,2-0.9
				c1.2-0.8,2.1-2.1,2.5-3.5c0.1-0.2,0.1-0.3,0.1-0.5l0-0.3l0-0.1l0,0l0-0.1l0-0.1l0-0.2c0,0,0-0.1,0-0.1v-0.2c0-0.2,0-0.4,0-0.6
				c-0.1-0.7-0.3-1.4-0.6-2c-0.7-1.2-1.8-2.1-3.1-2.5c-0.2,0-0.3-0.1-0.5-0.1l-0.2,0l-0.1,0l-0.1,0l0,0l-0.1,0l-0.2,0l-0.1,0l0,0
				l-0.1,0c-0.2,0-0.4,0-0.6,0c-0.7,0.1-1.3,0.3-1.8,0.6c-1.1,0.6-1.9,1.7-2.1,2.8c-0.1,0.5-0.2,1.1-0.1,1.7
				c0.1,0.6,0.3,1.1,0.6,1.5c0.3,0.5,0.7,0.9,1.1,1.1c1.1,0.9,2.7,1,3.8,0.1c1.3-1,1.6-3,0.6-4.3c-0.2-0.2-0.4-0.4-0.6-0.6
				c0.5,0.2,1,0.6,1.3,1.2c0.2,0.3,0.3,0.6,0.3,1c0,0.1,0,0.2,0,0.2l0,0.1c0,0,0,0.1,0,0.1l0,0.2l0,0.1l0,0l0,0l0,0.2
				c0,0.1,0,0.2-0.1,0.3c-0.4,1.6-2.1,2.9-4,2.7l-0.1,0l0,0l0,0l-0.2,0c-0.1,0-0.2,0-0.4-0.1l-0.4-0.1l-0.3-0.1
				c-0.4-0.2-0.9-0.4-1.3-0.8c-0.4-0.3-0.7-0.7-1-1.1c-0.3-0.4-0.5-0.9-0.6-1.4l-0.1-0.4c0-0.1,0-0.3-0.1-0.4l0-0.2l0-0.2l0-0.2
				l0-0.1c0,0,0-0.1,0-0.1l0-0.5l0.1-0.4c0-0.3,0.1-0.5,0.2-0.8c0.3-1.1,0.9-2,1.7-2.8c0.8-0.8,1.8-1.4,2.9-1.7l0.4-0.1l0.2-0.1
				c0.1,0,0.1,0,0.2,0l0.4-0.1c0.1,0,0.3,0,0.4,0l0.2,0l0.1,0l0.1,0l0.5,0l0.1,0l0.1,0l0,0l0.2,0l0.4,0.1c1.1,0.2,2.2,0.7,3.1,1.3
				c0.9,0.6,1.8,1.4,2.4,2.3c0.6,0.9,1.1,1.9,1.4,3c0.1,0.3,0.1,0.5,0.2,0.8l0.1,0.4l0,0.2l0,0.2c0,0.3,0,0.5,0,0.8
				c0,0.3,0,0.6,0,0.8l0,0.1c0,0,0,0,0,0l0,0l0,0.1l0,0.2L39-25.2c0,0.3-0.1,0.5-0.1,0.8c-0.1,0.2-0.1,0.5-0.2,0.7
				c-0.1,0.2-0.2,0.5-0.3,0.7c-0.2,0.5-0.4,0.9-0.6,1.3c-0.1,0.2-0.2,0.4-0.4,0.6c-0.1,0.2-0.2,0.4-0.4,0.6
				c-0.9,1.3-2.1,2.3-3.2,3.1c0,0,0,0,0,0c-0.5,0.1-1.1,0.3-1.6,0.5c-0.3,0.1-0.5,0.2-0.8,0.3c-0.2,0.1-0.5,0.2-0.7,0.3
				c-0.2,0.1-0.4,0.2-0.7,0.3c-0.2,0.1-0.4,0.2-0.6,0.3c-0.2,0.1-0.4,0.2-0.5,0.3c-0.2,0.1-0.3,0.2-0.4,0.4
				c-0.1,0.1-0.3,0.2-0.4,0.3c-0.1,0.1-0.2,0.2-0.3,0.3c-0.3,0.4-0.5,0.6-0.5,0.6s0.3-0.1,0.7-0.4c0.1-0.1,0.2-0.1,0.4-0.2
				c0.1-0.1,0.3-0.1,0.4-0.2c0.2-0.1,0.3-0.1,0.5-0.2c0.2-0.1,0.4-0.1,0.6-0.2c0.4-0.2,0.8-0.3,1.3-0.4c0.5-0.1,1-0.2,1.5-0.4
				c0.5-0.1,1.1-0.2,1.6-0.4c0.5-0.1,1.1-0.3,1.7-0.4c0.6-0.1,1.1-0.3,1.7-0.5c0.6-0.2,1.1-0.4,1.6-0.6c0.5-0.2,1-0.5,1.4-0.8
				c0.4-0.3,0.8-0.6,1.1-0.9c0.3-0.3,0.5-0.7,0.6-1c0.1-0.3,0.2-0.6,0.2-0.9c0-0.3-0.1-0.4-0.1-0.6c0-0.1-0.1-0.2-0.1-0.2
				s0,0.1,0,0.2c0,0.1,0,0.3-0.1,0.5c-0.1,0.2-0.2,0.5-0.4,0.7c-0.2,0.2-0.4,0.5-0.7,0.7c-0.6,0.4-1.5,0.8-2.5,1.1
				c-0.7,0.2-1.5,0.5-2.4,0.7c0.6-0.5,1.2-1.1,1.7-1.7c0.2-0.2,0.3-0.4,0.5-0.6c0.1-0.2,0.3-0.4,0.4-0.7c0.3-0.5,0.5-0.9,0.7-1.4
				c0.1-0.3,0.2-0.5,0.3-0.8c0.1-0.3,0.2-0.5,0.3-0.8c0.1-0.3,0.2-0.6,0.2-0.8l0.1-0.4l0-0.2l0-0.1l0,0l0-0.1l0-0.1
				c0-0.3,0.1-0.6,0.1-0.8c0-0.3,0-0.6,0-0.9v-0.2l0-0.2l0-0.5c0-0.3-0.1-0.6-0.2-0.9c-0.3-1.2-0.8-2.5-1.5-3.6
				c-1.4-2.2-3.8-4-6.6-4.6L31.8-37.8z"/>
			<path class="st1" d="M89.9-15.8c-1.7-0.9-3.8-1.8-5.7-2.2c-2.1-0.4-4.3-0.5-6.5-0.4c-5.1,0.3-9.9,2-14.5,4.1c2.1-1,5-1,7.3-1
				c6.2-0.1,11.5,1.6,15.1,6.8c1.9,2.6,3.1,6.4,6.1,7.9c2.6,1.3,5.5,0.1,6.1-2.9c0.7-3.4-1.2-6.7-3.6-9C93-13.6,91.5-14.9,89.9-15.8
				z"/>
			<path class="st1" d="M101-21.4c-1.2-1-2.7-2.1-4.2-2.7c-1.6-0.7-3.5-1.3-5.2-1.5c-1.9-0.2-3.9-0.1-5.8,0.2
				C81.2-24.8,77-23,73-20.8c1.9-1,4.4-1.2,6.5-1.4c5.5-0.6,10.4,0.6,14.1,5c1.9,2.2,3.2,5.5,6.1,6.7c2.5,1,4.9-0.3,5.3-3
				C105.3-16.8,103.3-19.5,101-21.4z"/>
			<path class="st1" d="M109-25.5c-0.3-2.8-2.6-4.9-5-6.1c-1.3-0.7-2.8-1.3-4.2-1.6c-1.5-0.3-3.3-0.5-4.9-0.3
				c-1.7,0.2-3.5,0.7-5.1,1.3c-3.8,1.5-7.2,3.9-10.2,6.7c1.4-1.3,3.6-1.9,5.4-2.5c4.8-1.6,9.3-1.5,13.3,1.6c2.1,1.6,3.9,4.2,6.7,4.7
				C107.3-21.5,109.2-23.1,109-25.5z"/>
			<path class="st1" d="M82.9-34.3c2.2-1.3,4.3-2.7,6-4.7c0.7-0.8,1.3-1.7,1.8-2.7c0.4-0.9,0.7-2,0.8-2.9c0.1-0.9,0-1.9-0.1-2.8
				c-0.2-1.7-1-3.4-2.6-4.1c-1.4-0.6-2.7,0.2-3,1.6c-0.3,1.7,0.9,3.3,1.4,4.9c1,3,0.2,5.7-1.7,8.2C84.8-36,83.9-34.9,82.9-34.3z"/>
			<path class="st1" d="M51.1-32.6c0.3,0.1,0.6,0.2,0.9,0.3c0.1,0,0.1,0,0.2,0c0,0,0.1,0,0.1,0c0.5,0.1,1,0.1,1.5,0c0,0,0.1,0,0.1,0
				l0,0c0.6-0.1,1.2-0.4,1.7-0.9c1.6-1.4,1.7-3.9,0.3-5.5c-1.4-1.6-3.9-1.7-5.5-0.3c-0.8,0.8-1.3,1.8-1.3,2.8
				c-0.3-0.8-0.4-1.6-0.2-2.6c0.2-1.2,0.9-2.5,2-3.4c1.1-0.9,2.6-1.5,4.1-1.5c0.2,0,0.3,0,0.5,0l0.7,0.1c0,0,0,0,0,0c0,0,0,0-0.1,0
				l0,0l0,0l0.1,0l0.1,0l0.3,0.1c0.2,0.1,0.4,0.1,0.5,0.2c0.3,0.2,0.7,0.3,1,0.6l0.5,0.3l0.5,0.4c0.6,0.6,1.2,1.3,1.7,2
				c0.2,0.4,0.5,0.7,0.7,1.2l0.4,0.7l0.1,0.2l0.1,0.1l0.1,0.3c1.5,3.4,1.7,7.3,1.1,10.8c-0.3,1.8-0.8,3.5-1.5,5
				c-0.4,1-0.9,1.9-1.4,2.7c0.2-0.4,0.4-0.8,0.6-1.2c0.3-0.7,0.6-1.5,0.7-2.4c0.2-0.8,0.2-1.8,0.1-2.7c-0.2-0.9-0.5-1.9-1.2-2.7
				c-0.2-0.2-0.3-0.4-0.5-0.6c-0.2-0.2-0.3-0.3-0.5-0.4c-0.5-0.3-0.9-0.6-1.4-0.8c-0.9-0.4-1.9-0.5-2.9-0.4
				c-0.9,0.1-1.9,0.4-2.6,0.9c-0.7,0.5-1.3,1.1-1.7,1.8c-0.1,0.2-0.2,0.3-0.2,0.5c-0.1,0.2-0.1,0.4-0.2,0.5c-0.1,0.3-0.1,0.7-0.1,1
				c0,0.6,0.1,1.1,0.2,1.5c0.1,0.3,0.2,0.5,0.3,0.7c0,0,0.1,0.1,0.1,0.1c0,0,0,0,0,0.1c0.1,0.2,0.2,0.3,0.2,0.3s0,0,0,0
				c0,0,0,0,0,0.1c1,1.1,2.8,1.2,3.9,0.2c1.1-1,1.2-2.8,0.2-3.9c-0.7-0.8-1.8-1.1-2.7-0.8c0.3-0.2,0.5-0.4,0.9-0.6
				c0.6-0.3,1.2-0.5,1.9-0.5c0.7,0,1.5,0,2.2,0.3c0.4,0.1,0.7,0.3,1,0.4c0.1,0.1,0.3,0.2,0.5,0.4c0.1,0.1,0.3,0.2,0.4,0.3
				c0.6,0.5,1,1.2,1.3,2c0.3,0.8,0.4,1.6,0.3,2.4c0,0.8-0.2,1.6-0.4,2.3c-0.2,0.7-0.6,1.4-0.9,2c-0.3,0.6-0.6,1.1-0.9,1.6
				c-0.1,0.2-0.2,0.3-0.3,0.5c-0.1,0.1-0.2,0.2-0.3,0.4c-0.2,0.3-0.4,0.5-0.6,0.8c-0.2,0.2-0.4,0.4-0.6,0.7
				c-0.8,0.9-1.6,1.5-2.3,2.1c-0.6,0.6-1.2,1-1.5,1.3c-0.4,0.3-0.5,0.5-0.5,0.5s0.2-0.1,0.6-0.4c0.4-0.3,0.9-0.7,1.6-1.2
				c0.7-0.5,1.5-1.2,2.4-2c0.2-0.2,0.5-0.4,0.7-0.6c0.2-0.2,0.4-0.5,0.7-0.7c0.5-0.5,1-1,1.4-1.6c0.9-1.2,1.8-2.6,2.6-4.1
				c0.8-1.6,1.4-3.3,1.9-5.1c0.9-3.7,1.1-7.9-0.4-11.9C63.4-40,62.4-42,61-43.6c-0.2-0.2-0.4-0.4-0.6-0.6l-0.7-0.5
				c-0.4-0.4-1-0.6-1.4-0.9c-0.2-0.1-0.5-0.2-0.8-0.3L57.1-46L56.9-46l-0.1,0l-0.1,0l0,0l-0.1,0l-0.7-0.1l-0.9,0
				c-2.2,0.1-4.2,1.1-5.5,2.5c-0.7,0.7-1.2,1.5-1.6,2.3c-0.4,0.8-0.6,1.7-0.6,2.6c-0.1,1.7,0.5,3.2,1.3,4.2
				C49.2-33.5,50.3-32.9,51.1-32.6z M56.2-43.5C56.2-43.5,56.2-43.5,56.2-43.5L56.2-43.5z"/>
			<path class="st1" d="M122-19.6l-0.1-0.9c-0.1-0.3-0.1-0.6-0.2-0.9c-0.6-2.3-1.8-4.3-3.2-6c-1.4-1.8-3.1-3.3-4.9-4.5
				c-1.8-1.2-3.8-2.1-5.7-2.7c-1.9-0.6-3.9-1-5.7-1.2c-1.8-0.2-3.6-0.1-5.2,0c-0.8,0.1-1.6,0.2-2.3,0.4c-0.4,0.1-0.7,0.1-1,0.2
				c-0.3,0.1-0.7,0.2-1,0.3c-1.3,0.3-2.3,0.8-3.2,1.1c-0.9,0.3-1.5,0.6-2,0.8c-0.5,0.2-0.7,0.3-0.7,0.3s0.2-0.1,0.7-0.2
				c0.5-0.2,1.2-0.4,2-0.7c0.9-0.3,2-0.6,3.2-0.9c0.3-0.1,0.6-0.1,1-0.2c0.3,0,0.7-0.1,1-0.1c0.7-0.1,1.4-0.2,2.2-0.2
				c1.6-0.1,3.3,0,5,0.3c1.8,0.3,3.6,0.8,5.4,1.5c3.6,1.4,7.1,3.8,9.3,7.1l0.2,0.3l0.1,0.1l0.1,0.2l0.4,0.7c0.3,0.5,0.4,0.9,0.7,1.3
				c0.4,0.9,0.7,1.8,0.8,2.7l0.1,0.7l0,0.7c0.1,0.4,0,0.8,0,1.3c0,0.2-0.1,0.4-0.1,0.6l-0.1,0.3l0,0.1l0,0.1l0,0l0,0
				c0.1-0.1,0,0,0-0.1l-0.3,0.7c-0.1,0.1-0.2,0.3-0.2,0.5c-0.8,1.4-2.2,2.4-3.7,2.9c-1.5,0.5-3,0.4-4.2-0.1c-0.9-0.4-1.7-1-2.2-1.7
				c1,0.6,2.1,0.8,3.3,0.4c2.2-0.6,3.5-3,2.9-5.2c-0.6-2.2-3-3.5-5.2-2.9c-0.7,0.2-1.3,0.6-1.8,1.1l0,0c0,0,0,0,0,0.1
				c-0.4,0.4-0.7,0.9-0.9,1.4c0,0,0,0.1,0,0.1c0,0.1-0.1,0.1-0.1,0.2c-0.1,0.3-0.2,0.6-0.3,1c-0.2,1-0.2,2.3,0.4,3.6
				c0.5,1.3,1.6,2.7,3.1,3.6c0.8,0.5,1.7,0.8,2.7,0.9c1,0.1,2,0,3-0.2c2-0.5,4-1.7,5.4-3.7c0.2-0.3,0.3-0.6,0.5-0.8l0.3-0.7l0-0.1
				l0,0l0-0.1l0-0.1l0.1-0.2l0.1-0.4c0.1-0.3,0.2-0.6,0.2-0.9C122-18.4,122.1-19.1,122-19.6z"/>
			<path class="st1" d="M78.8-58.8c-3.7-3.7-9.6-3.7-13.3-0.1c-3.7,3.7-3.7,9.6-0.1,13.3c1,1.1,2.3,1.8,3.6,2.3
				c0.2,0.9,0.5,1.7,0.6,2.5c1.9,9.7-1.9,17.5-8.8,24.3c-2.5,2.5-5.6,5.7-9,7.1c7.3-2.9,14.4-6.6,20.3-11.9c2.5-2.3,4.8-4.8,6.6-7.6
				c1.6-2.5,2.9-5.8,3.7-8.7c0.7-2.7,0.9-5.8,0.9-8.6c0-4.5-1.1-9.3-4.4-12.4C78.9-58.7,78.9-58.8,78.8-58.8z"/>
			<path class="st1" d="M59.9-50.8c0.1,0.4,0.1,0.7,0.2,1c0.1,0.3,0.2,0.6,0.2,0.8c0.1,0.5,0.3,0.8,0.4,1.1c0.1,0.3,0.2,0.4,0.2,0.4
				s0-0.1-0.1-0.4c-0.1-0.3-0.2-0.7-0.3-1.2c0-0.2-0.1-0.5-0.1-0.8c0-0.3,0-0.6-0.1-1c0-0.7,0-1.5,0.2-2.3c0.2-0.8,0.4-1.7,0.7-2.6
				c0.3-0.9,0.9-1.8,1.5-2.6c0.6-0.8,1.4-1.6,2.2-2.3c0.8-0.7,1.9-1.2,2.8-1.6c1.1-0.4,2.1-0.7,3.2-0.8c1.1-0.1,2.2-0.1,3.2,0.1
				c1,0.2,2,0.5,2.9,0.9c0.9,0.4,1.6,0.9,2.3,1.4c0.7,0.5,1.2,1.1,1.7,1.6c0.2,0.3,0.4,0.5,0.6,0.8c0.2,0.3,0.3,0.5,0.5,0.7
				c0.3,0.4,0.5,0.8,0.6,1c0.1,0.2,0.2,0.4,0.2,0.4s0-0.1-0.1-0.4c-0.1-0.2-0.2-0.7-0.4-1.1c-0.1-0.2-0.2-0.5-0.4-0.8
				c-0.2-0.3-0.3-0.5-0.5-0.9c-0.2-0.3-0.5-0.6-0.7-0.9c-0.3-0.3-0.6-0.6-0.9-0.9c-0.7-0.6-1.4-1.2-2.4-1.7
				c-0.9-0.5-1.9-0.9-3.1-1.2c-1.1-0.3-2.3-0.3-3.5-0.3c-1.2,0.1-2.5,0.4-3.5,0.8c-1.2,0.5-2.2,1.1-3.2,1.8
				c-0.9,0.8-1.7,1.6-2.4,2.6c-0.6,0.9-1.1,1.9-1.4,2.9c-0.4,1-0.5,2-0.6,2.8c0,0.5,0,0.9,0,1.3C59.9-51.6,59.9-51.2,59.9-50.8z"/>
			<path class="st1" d="M84-56.1c0.4,0.6,1,1.1,1.8,1.3c1.5,0.3,3-0.7,3.3-2.2c0.3-1.5-0.7-3-2.2-3.3c-0.9-0.2-1.9,0.1-2.5,0.8
				c0.3-0.7,0.8-1.4,1.4-1.9c0.8-0.6,1.8-0.9,2.9-0.8c1.1,0.1,2.2,0.7,3,1.4c0.2,0.1,0.4,0.5,0.7,0.7c0.1,0.2,0.3,0.5,0.5,0.7
				c0.3,0.5,0.6,1.1,0.8,1.7c0.4,1.2,0.7,2.5,0.8,3.9c0.3,2.8,0.2,5.6-0.4,8.1c-0.3,1.3-0.6,2.5-1,3.6c-0.5,1.1-0.9,2.2-1.5,3
				c-1.1,1.8-2.4,3.1-3.4,3.8c-0.5,0.4-0.9,0.6-1.2,0.8c-0.3,0.2-0.4,0.3-0.4,0.3s0.2-0.1,0.5-0.2c0.3-0.1,0.8-0.3,1.3-0.6
				c0.6-0.3,1.2-0.8,1.9-1.3c0.7-0.6,1.4-1.3,2.1-2.2c0.7-0.9,1.3-1.9,1.9-3.1c0.5-1.2,1-2.4,1.4-3.8c0.4-1.3,0.6-2.8,0.8-4.2
				c0.1-1.5,0.1-3,0-4.4c-0.1-1.5-0.3-3-0.9-4.5c-0.3-0.7-0.7-1.4-1.1-2.1c-0.3-0.3-0.4-0.6-0.8-0.9c-0.3-0.2-0.4-0.5-0.8-0.7
				c-1.3-1-2.7-1.4-4.1-1.4c-1.4,0-2.8,0.5-3.6,1.4c-1.7,1.7-2,3.8-1.6,5.1C83.7-56.7,83.9-56.4,84-56.1z"/>
		</g>
		<g>
			<path class="st1" d="M84.5-141.5c0.6,2.1,1.6,4,2.7,5.9c2.6,4.3,6.4,7.8,10.3,10.9c-1.8-1.5-3.2-4-4.3-6c-3-5.4-3.9-10.9-1-16.5
				c1.5-2.9,4.2-5.7,4.2-9.1c-0.1-2.9-2.5-4.9-5.4-4.1c-3.4,1-5.3,4.2-6.2,7.4c-0.5,1.7-1,3.7-1,5.5
				C83.7-145.6,83.9-143.3,84.5-141.5z"/>
			<path class="st1" d="M73.6-154.7c-0.3,1.6-0.6,3.4-0.5,5c0.1,1.7,0.5,3.7,1.1,5.3c0.7,1.8,1.7,3.5,2.9,5.1
				c2.7,3.7,6.3,6.6,10.1,9.1c-1.8-1.2-3.1-3.3-4.3-5c-3.1-4.6-4.3-9.5-2.2-14.8c1.1-2.7,3.4-5.4,3.1-8.5c-0.3-2.6-2.6-4.2-5.1-3.2
				C75.7-160.7,74.2-157.6,73.6-154.7z"/>
			<path class="st1" d="M71.4-158c-0.8-2.3-3.1-3.2-5.2-1.8c-2.4,1.6-3.1,4.5-3,7.2c0,1.4,0.2,3.1,0.6,4.5c0.4,1.5,1.2,3.2,2,4.5
				c1,1.4,2.2,2.7,3.5,3.9c3.1,2.7,6.8,4.5,10.7,6c-1.8-0.7-3.4-2.3-4.8-3.6c-3.6-3.5-5.7-7.5-4.8-12.6
				C70.8-152.5,72.3-155.4,71.4-158z"/>
			<path class="st1" d="M60.4-136.1c-1,0-2.1,0.3-3,0.7c-0.8,0.3-1.7,0.9-2.4,1.4c-1.4,1-2.6,2.4-2.5,4.2c0.1,1.5,1.4,2.3,2.8,1.9
				c1.6-0.5,2.5-2.3,3.6-3.5c2.2-2.3,5-2.8,8-2.3c1.1,0.2,2.5,0.4,3.5,1c-2.1-1.4-4.4-2.6-6.9-3.1C62.6-136,61.5-136.1,60.4-136.1z"
				/>
			<path class="st1" d="M83.7-98.5c1.5-0.7,2.6-1.9,3.1-3.1c0.6-1.2,0.7-2.4,0.6-3.3c0-0.4-0.1-0.7-0.2-0.9c0-0.1,0-0.1-0.1-0.2
				c0,0,0-0.1,0-0.1c-0.2-0.5-0.4-0.9-0.7-1.3c0,0,0-0.1,0-0.1l0,0c-0.4-0.5-0.9-0.9-1.6-1.1c-2-0.7-4.3,0.3-5,2.3
				c-0.7,2,0.3,4.3,2.3,5c1.1,0.4,2.2,0.3,3.1-0.2c-0.6,0.6-1.3,1.1-2.2,1.4c-1.2,0.4-2.6,0.4-3.9-0.2c-1.3-0.6-2.6-1.6-3.2-3
				c-0.1-0.1-0.1-0.3-0.2-0.4l-0.2-0.7c0,0,0,0,0,0c0,0,0,0,0,0.1l0,0l0,0l0-0.1l0-0.1l0-0.3c0-0.2-0.1-0.4-0.1-0.6
				c0-0.4,0-0.8,0-1.2l0.1-0.6l0.2-0.6c0.2-0.8,0.6-1.6,1-2.5c0.2-0.4,0.4-0.8,0.7-1.2l0.4-0.6l0.1-0.2l0.1-0.1l0.2-0.3
				c2.3-2.9,5.7-4.9,9.1-5.9c1.7-0.5,3.4-0.8,5.1-1c0.2,0,0.4,0,0.6,0c-0.4,0.1-0.9,0.2-1.3,0.3c-0.8,0.2-1.7,0.6-2.4,1.2
				c-0.8,0.6-1.4,1.4-1.8,2.3c-0.1,0.3-0.2,0.4-0.3,0.7c-0.1,0.2-0.1,0.4-0.1,0.7c-0.1,0.6-0.1,1.1,0,1.6c0.1,1,0.5,2,1,2.7
				c0.5,0.8,1.2,1.5,2,1.9c0.8,0.4,1.6,0.7,2.4,0.7c0.2,0,0.4,0,0.6,0c0.2,0,0.4-0.1,0.5-0.1c0.3-0.1,0.6-0.2,0.9-0.3
				c0.5-0.3,1-0.6,1.2-0.9c0.2-0.2,0.3-0.4,0.4-0.6c0,0,0-0.1,0.1-0.1c0,0,0-0.1,0-0.1c0.1-0.2,0.1-0.3,0.1-0.3s0,0,0,0
				c0,0,0,0,0-0.1c0.5-1.4-0.2-3-1.6-3.5c-1.4-0.5-3,0.2-3.5,1.6c-0.4,1-0.1,2.1,0.6,2.8c-0.3-0.1-0.6-0.3-0.9-0.5
				c-0.5-0.4-1-0.9-1.4-1.5c-0.4-0.6-0.6-1.3-0.7-2c-0.1-0.4-0.1-0.8-0.1-1.1c0-0.2,0.1-0.4,0.1-0.6c0-0.1,0.1-0.4,0.1-0.5
				c0.2-0.7,0.6-1.4,1.1-2c0.5-0.6,1.2-1.1,2-1.4c0.7-0.3,1.5-0.6,2.2-0.7c0.7-0.1,1.4-0.1,2.1-0.1c0.3,0,0.5,0,0.8,0.1
				c0.7,0.1,1.4,0.2,2,0.4c0.3,0.1,0.6,0.1,0.9,0.2c0.3,0.1,0.6,0.2,0.9,0.3c1.1,0.3,2.1,0.7,2.9,1c0.8,0.3,1.4,0.6,1.8,0.8
				c0.4,0.2,0.7,0.3,0.7,0.3l0.2-0.4c0,0-0.2-0.1-0.6-0.3c-0.4-0.2-1-0.5-1.8-0.9c-0.8-0.4-1.8-0.8-2.9-1.2
				c-0.3-0.1-0.6-0.2-0.9-0.3c-0.3-0.1-0.6-0.2-1-0.3c-0.7-0.2-1.4-0.4-2.1-0.5c-1.5-0.2-3.1-0.4-4.9-0.3c-1.7,0.1-3.6,0.3-5.4,0.8
				c-3.7,0.9-7.5,2.8-10.3,6c-1.3,1.5-2.6,3.3-3.3,5.4c-0.1,0.3-0.2,0.5-0.2,0.8l-0.2,0.8c-0.1,0.5-0.1,1.1-0.1,1.7
				c0,0.3,0.1,0.6,0.1,0.8l0.1,0.4l0,0.2l0,0.1l0,0.1l0,0l0,0.1l0.2,0.7l0.4,0.8c1.1,1.9,2.9,3.2,4.8,3.8c0.9,0.3,1.9,0.4,2.8,0.4
				C82-97.9,82.9-98.1,83.7-98.5z"/>
			<path class="st1" d="M60.4-149c0.7,1.7,1.6,3.3,2.4,4.6c0.4,0.7,0.9,1.3,1.4,1.8c0.2,0.3,0.5,0.6,0.7,0.8
				c0.2,0.2,0.5,0.5,0.7,0.7c0.9,1,1.7,1.7,2.4,2.3c0.7,0.6,1.3,1.1,1.6,1.4c0.4,0.3,0.6,0.5,0.6,0.5s-0.2-0.2-0.5-0.5
				c-0.4-0.3-0.9-0.8-1.5-1.5c-0.6-0.7-1.4-1.4-2.3-2.4c-0.2-0.2-0.4-0.5-0.6-0.8c-0.2-0.3-0.4-0.6-0.6-0.9
				c-0.4-0.6-0.9-1.2-1.2-1.9c-0.8-1.4-1.5-2.9-2.1-4.6c-0.6-1.7-1-3.5-1.2-5.5c-0.4-3.8,0.1-8.1,2-11.5l0.2-0.3l0.1-0.1l0.1-0.2
				l0.4-0.7c0.3-0.4,0.6-0.8,0.9-1.2c0.6-0.7,1.3-1.5,2-2l0.5-0.4l0.6-0.3c0.4-0.3,0.8-0.4,1.1-0.5c0.2-0.1,0.4-0.1,0.6-0.2l0.3-0.1
				l0.1,0l0.1,0l0,0l0,0c0,0-0.1,0-0.1,0c0,0,0,0,0,0l0.7-0.1c0.2,0,0.3,0,0.5,0c1.6,0.1,3.2,0.9,4.3,1.9c1.1,1.1,1.8,2.5,1.9,3.8
				c0.1,1-0.1,1.9-0.5,2.8c0.1-1.1-0.3-2.3-1.1-3.1c-1.6-1.7-4.3-1.7-5.9-0.1c-1.7,1.6-1.7,4.3-0.1,5.9c0.5,0.5,1.1,0.9,1.8,1.1l0,0
				c0,0,0,0,0.1,0c0.5,0.2,1.1,0.2,1.6,0.2c0,0,0.1,0,0.1,0c0.1,0,0.2,0,0.2,0c0.3,0,0.6-0.1,1-0.2c0.9-0.3,2.1-0.9,3-2
				c0.9-1.1,1.6-2.6,1.7-4.4c0-0.9-0.1-1.9-0.4-2.8c-0.4-0.9-0.9-1.8-1.6-2.6c-1.4-1.6-3.4-2.8-5.7-3.1c-0.3,0-0.7,0-1-0.1l-0.8,0
				l-0.1,0l0,0l-0.1,0l-0.1,0l-0.2,0l-0.4,0.1c-0.3,0.1-0.6,0.1-0.9,0.3c-0.5,0.3-1.1,0.4-1.6,0.8l-0.7,0.5
				c-0.2,0.2-0.4,0.4-0.7,0.6c-1.7,1.6-2.9,3.6-3.8,5.6c-0.9,2.1-1.5,4.3-1.7,6.4c-0.2,2.2-0.1,4.3,0.3,6.3
				C59.1-152.7,59.7-150.8,60.4-149z"/>
			<path class="st1" d="M96.6-121.5c3.4,1.1,7.7,2.3,10.4,4.7c-6-5.1-12.5-9.7-19.9-12.4c-3.2-1.1-6.5-2-9.8-2.3
				c-3-0.3-6.5,0.1-9.4,0.8c-2.7,0.6-5.6,1.9-8,3.2c-3.9,2.1-7.7,5.3-8.9,9.7c0,0.1-0.1,0.2-0.1,0.3c-1.6,5,1.2,10.2,6.1,11.8
				c5,1.6,10.2-1.2,11.8-6.1c0.4-1.4,0.5-2.9,0.3-4.2c0.6-0.6,1.3-1.2,2-1.7C78.8-124.1,87.4-124.4,96.6-121.5z"/>
			<path class="st1" d="M95.1-141.6c0,2.2,0.5,4.5,1.1,6.6c1.5,5,4.2,9.6,7.3,13.8c-1.5-2-2.1-4.8-2.6-7.1c-1.5-6.2-1-11.9,3.5-16.8
				c0.4-0.4,0.8-0.8,1.2-1.2c0.9,0.2,1.9,0.2,2.8,0c3.4-0.8,5.4-4.2,4.6-7.5c-0.8-3.3-4.2-5.4-7.5-4.6c-0.1,0-0.1,0-0.2,0
				c-2.9,0.6-5.2,3-6.8,5.5c-1,1.6-2,3.4-2.5,5.2C95.4-145.9,95-143.6,95.1-141.6z"/>
			<path class="st1" d="M67.9-106.1c-0.2,0.1-0.4,0.3-0.7,0.5c-0.3,0.2-0.5,0.3-0.8,0.5c-0.6,0.3-1.3,0.7-2.1,0.9
				c-0.8,0.2-1.7,0.5-2.7,0.6c-1,0.1-2,0-3-0.1c-1-0.1-2.1-0.5-3-0.9c-1-0.5-1.9-1.1-2.8-1.8c-0.8-0.8-1.6-1.5-2.2-2.5
				c-0.6-0.9-1.1-1.9-1.4-2.9c-0.3-1-0.5-2-0.5-3c-0.1-1,0-1.9,0.2-2.7c0.2-0.8,0.4-1.6,0.6-2.2c0.1-0.3,0.3-0.6,0.4-0.9
				c0.1-0.3,0.3-0.5,0.4-0.7c0.2-0.5,0.5-0.8,0.6-1c0.1-0.2,0.2-0.4,0.2-0.4s-0.1,0.1-0.3,0.3c-0.2,0.2-0.5,0.5-0.8,0.9
				c-0.2,0.2-0.3,0.4-0.5,0.7c-0.2,0.3-0.3,0.6-0.5,0.9c-0.2,0.3-0.3,0.7-0.5,1c-0.2,0.4-0.3,0.8-0.4,1.2c-0.2,0.9-0.4,1.8-0.4,2.9
				c0,1,0.1,2.1,0.4,3.2c0.3,1.1,0.8,2.2,1.4,3.2c0.6,1,1.5,2,2.4,2.8c0.9,0.8,2,1.4,3.1,1.9c1.1,0.5,2.3,0.8,3.4,0.9
				c1.1,0.1,2.2,0.1,3.3-0.1c1-0.1,2-0.5,2.8-0.8c0.4-0.2,0.8-0.4,1.1-0.6c0.3-0.2,0.7-0.4,1-0.6c0.3-0.2,0.5-0.4,0.8-0.6
				c0.2-0.2,0.4-0.4,0.6-0.6c0.4-0.3,0.6-0.7,0.8-0.9c0.2-0.2,0.3-0.3,0.3-0.3s-0.1,0.1-0.3,0.3C68.6-106.7,68.4-106.4,67.9-106.1z"
				/>
			<path class="st1" d="M50.8-123.5c0.4-0.6,0.5-1.4,0.3-2.2c-0.4-1.5-2-2.3-3.4-1.9c-1.5,0.4-2.3,2-1.9,3.4c0.3,0.9,1,1.6,1.8,1.9
				c-0.7,0-1.6-0.1-2.4-0.4c-0.9-0.4-1.6-1.2-2-2.2c-0.4-1-0.4-2.3-0.1-3.3c0-0.2,0.2-0.6,0.3-0.9c0.1-0.2,0.3-0.5,0.4-0.8
				c0.3-0.5,0.7-1,1.1-1.5c0.9-0.9,1.9-1.8,3.1-2.6c2.3-1.6,4.8-2.7,7.4-3.5c1.3-0.4,2.5-0.6,3.7-0.8c1.2-0.1,2.3-0.2,3.4-0.1
				c2.1,0.1,3.8,0.6,4.9,1.2c0.6,0.2,1,0.5,1.3,0.7c0.3,0.2,0.4,0.3,0.4,0.3s-0.1-0.1-0.4-0.3c-0.3-0.2-0.6-0.6-1.2-0.9
				c-0.5-0.4-1.2-0.7-2.1-1.1c-0.8-0.3-1.8-0.7-2.9-0.8c-1.1-0.2-2.3-0.3-3.6-0.2c-1.3,0.1-2.6,0.2-4,0.5c-1.4,0.3-2.8,0.7-4.1,1.3
				c-1.4,0.6-2.7,1.3-4,2c-1.3,0.8-2.5,1.7-3.6,2.9c-0.5,0.6-1,1.2-1.3,1.9c-0.2,0.4-0.3,0.7-0.5,1.1c-0.1,0.4-0.2,0.6-0.2,1
				c-0.2,1.6,0,3,0.6,4.3c0.6,1.2,1.8,2.2,2.9,2.5c2.3,0.7,4.3,0,5.3-0.9C50.4-123,50.6-123.3,50.8-123.5z"/>
			<path class="st1" d="M114.3-109.1c1.1,0.4,2.3,0.6,3.4,0.9c1.1,0.2,2.3,0.3,3.3,0.4c1.1,0,2.1-0.1,3.1-0.3c0.9-0.2,1.8-0.6,2.4-1
				c0.7-0.4,1.1-0.9,1.5-1.4c0.3-0.4,0.5-0.8,0.6-1.1c0.1-0.3,0.2-0.4,0.2-0.4s-0.1,0.1-0.3,0.3c-0.2,0.2-0.5,0.5-0.9,0.8
				c-0.4,0.3-0.9,0.5-1.6,0.7c-0.6,0.2-1.4,0.3-2.2,0.3c-1.6,0-3.5-0.4-5.6-1c-2-0.6-4.2-1.4-6.4-2.2c-1.1-0.4-2.2-0.8-3.3-1.2
				c-1.1-0.4-2.2-0.7-3.3-1c-0.5-0.2-1.1-0.3-1.6-0.4c-0.5-0.1-1-0.3-1.6-0.3c-0.5-0.1-1-0.2-1.5-0.2c-0.5-0.1-1-0.1-1.4-0.1
				c-0.5,0-0.9-0.1-1.3-0.1c-1,0.1-2.1,0.1-3.1,0.4c-1,0.2-1.6,0.4-1.6,0.4s0,0,0.1,0c-0.1,0-0.2,0-0.2,0l0,0.6c0,0,0.6,0,1.8,0.1
				c0.6,0,1.3,0.2,2.2,0.3c0.8,0.1,1.8,0.4,2.8,0.7c2.1,0.7,4.5,1.8,7,3.6c2.4,1.8,4.8,4.3,6.6,7.5c0.2,0.4,0.4,0.8,0.6,1.2
				c0.2,0.4,0.4,0.8,0.6,1.3c0.3,0.9,0.7,1.8,0.9,2.8c0.1,0.5,0.3,1,0.3,1.4c0.1,0.5,0.1,1,0.2,1.5c0.1,0.5,0.1,1,0.1,1.5l0,0.8
				l0,0.4l0,0.2l0,0c0,0,0,0,0,0l0,0.1c0,0.6-0.1,1.1-0.1,1.7c-0.1,0.5-0.2,1-0.2,1.5l-0.1,0.4l-0.1,0.4l-0.2,0.8
				c-0.1,0.5-0.3,1-0.5,1.5c-0.7,2-1.9,3.9-3.3,5.5c-1.4,1.6-3.2,3-5.2,4c-2,1-4.2,1.6-6.4,1.8l-0.8,0l-0.4,0l0,0l-0.1,0l-0.2,0
				l-0.9,0l-0.2,0l-0.2,0l-0.4-0.1c-0.3,0-0.5-0.1-0.8-0.1l-0.8-0.2c-0.1,0-0.3-0.1-0.4-0.1l-0.4-0.1l-0.8-0.3
				c-2-0.9-3.9-2.2-5.2-3.9c-1.4-1.7-2.4-3.7-2.7-5.9c-0.1-0.5-0.2-1.1-0.2-1.6l0-0.7l0-1c0-0.1,0-0.2,0-0.2l0-0.2l0.1-0.3l0-0.3
				l0.1-0.4c0.1-0.2,0.1-0.5,0.2-0.7l0.3-0.7c0.4-0.9,0.9-1.8,1.5-2.6c0.6-0.8,1.4-1.4,2.2-2c0.8-0.6,1.7-0.9,2.7-1.2l0.7-0.2
				l0.7-0.1c0.2-0.1,0.5,0,0.7-0.1l0.4,0l0.1,0h0l0.2,0c3.8,0,6.7,3,7.2,6.2c0,0.2,0.1,0.4,0.1,0.6l0,0.3l0,0.1l0,0l0,0.1l0,0.4
				c0,0.1,0,0.2,0,0.2l0,0.1c0,0.1,0,0.2-0.1,0.4c-0.2,0.7-0.4,1.3-0.8,1.9c-0.7,1-1.7,1.7-2.7,2c0.5-0.3,0.9-0.6,1.3-1
				c2.3-2.4,2.2-6.2-0.2-8.6c-2.1-2-5.2-2.2-7.5-0.7c-0.9,0.5-1.7,1.1-2.4,2c-0.6,0.8-1.2,1.8-1.4,2.9c-0.3,1.2-0.3,2.3-0.1,3.4
				c0.3,2.2,1.6,4.4,3.6,5.9c1,0.7,2.2,1.3,3.5,1.5c0.3,0.1,0.7,0.1,1.1,0.2l0.1,0l0.1,0l0.2,0l0.3,0l0.2,0l0.1,0l0.1,0l0.2,0l0.5,0
				c0.3,0,0.6-0.1,0.9-0.2c2.5-0.5,4.9-2,6.5-4.3c0.8-1.1,1.4-2.4,1.7-3.8c0.1-0.3,0.1-0.8,0.2-1.2l0-0.3c0-0.1,0-0.1,0-0.2l0-0.4
				l0-0.2v-0.2l0-0.1l0-0.1l0-0.5c0-0.3-0.1-0.7-0.1-1c-0.4-2.8-1.9-5.4-4.1-7.3c-1.1-1-2.4-1.7-3.8-2.3c-0.4-0.1-0.7-0.2-1.1-0.3
				l-1.1-0.2c-0.4-0.1-0.8-0.1-1.2-0.2c-0.2,0-0.4,0-0.5,0l-0.4,0l-0.2,0h-0.2l-0.1,0l-0.1,0l-0.5,0c-0.4,0-0.7,0-1.1,0.1l-1.1,0.2
				c-0.4,0.1-0.7,0.2-1.1,0.3c-1.4,0.5-2.8,1.1-4,1.9c-1.2,0.9-2.3,1.9-3.3,3c-0.9,1.2-1.7,2.5-2.2,3.9l-0.4,1.1
				c-0.1,0.4-0.2,0.7-0.3,1.1L81-90l-0.1,0.6l-0.1,0.6l0,0.3c0,0.1,0,0.2,0,0.2l0,1v0.2l0,0.1l0,0.3l0,0.5c0,0.7,0.2,1.5,0.3,2.2
				c0.6,2.9,2,5.6,3.9,7.8c1.9,2.2,4.4,3.9,7.1,5l1,0.3l0.5,0.2c0.2,0,0.4,0.1,0.5,0.1l1.1,0.2c0.4,0.1,0.8,0.1,1.1,0.1l0.6,0.1
				l0.3,0l0.2,0l1,0l0.2,0l0.1,0l0.2,0l0.1,0l0.5,0l1-0.1c5.6-0.6,10.6-3.5,13.9-7.6c1.7-2,2.9-4.3,3.7-6.7c0.2-0.6,0.4-1.2,0.5-1.8
				l0.2-0.9l0.1-0.4l0.1-0.5c0.1-0.6,0.2-1.3,0.2-1.9c0-0.6,0-1.1,0-1.7l0-0.1v-0.1l0-0.1l0-0.2l0-0.4l-0.1-0.9
				c-0.1-0.6-0.1-1.1-0.2-1.7c-0.1-0.6-0.2-1.1-0.3-1.6c-0.1-0.5-0.3-1.1-0.5-1.6c-0.3-1.1-0.7-2-1.1-3c-0.2-0.5-0.5-0.9-0.7-1.4
				c-0.3-0.4-0.5-0.9-0.8-1.3c-1.9-3-4.3-5.4-6.7-7.1c0.7,0.3,1.4,0.6,2.2,0.8C112-109.9,113.2-109.5,114.3-109.1z"/>
			<path class="st1" d="M118-119c-0.8,0-1.6,0.1-2.4,0.1c-0.4,0-0.8,0.1-1.1,0.1c-0.4,0.1-0.7,0.1-1.1,0.2c-0.3,0.1-0.7,0.1-1,0.2
				c-0.3,0.1-0.6,0.2-0.9,0.3c-0.3,0.1-0.6,0.2-0.8,0.3c-0.3,0.1-0.5,0.2-0.7,0.3c-0.2,0.1-0.4,0.2-0.6,0.3
				c-0.2,0.1-0.3,0.2-0.5,0.3c-0.6,0.4-0.9,0.6-0.9,0.6s0.4-0.1,1.1-0.3c0.2,0,0.4-0.1,0.6-0.1c0.2,0,0.4-0.1,0.7-0.1
				c0.2,0,0.5-0.1,0.7-0.1c0.3,0,0.6-0.1,0.8-0.1c0.6-0.1,1.2-0.1,1.9-0.1c0.7,0,1.4,0,2.1,0c0.8,0,1.5,0,2.3,0c0.8,0,1.6,0,2.4,0
				c0.8,0,1.6,0,2.5-0.1c0.8-0.1,1.6-0.2,2.4-0.3c0.8-0.1,1.5-0.3,2.2-0.6c0.7-0.2,1.3-0.5,1.8-0.9c0.5-0.4,0.9-0.8,1.2-1.2
				c0.3-0.4,0.4-0.8,0.5-1.2c0.1-0.3,0.1-0.6,0.1-0.8c0-0.2,0-0.3,0-0.3s0,0.1-0.1,0.3c-0.1,0.2-0.2,0.4-0.3,0.7
				c-0.2,0.3-0.4,0.6-0.8,0.8c-0.3,0.3-0.8,0.5-1.3,0.7c-1,0.4-2.3,0.6-3.8,0.7c-1.5,0.1-3,0.1-4.7,0.1
				C119.6-119.1,118.8-119.1,118-119z"/>
			<path class="st1" d="M112.6-143.1l-0.3-0.1l0,0l-0.1,0l-0.1,0l-0.1,0l-0.5,0l-0.1,0h-0.1l-0.3,0c-0.2,0-0.4,0-0.6,0l-0.5,0.1
				c-0.1,0-0.2,0-0.3,0l-0.3,0.1l-0.5,0.1c-1.4,0.4-2.8,1.1-3.9,2.1c-1.1,1-1.9,2.3-2.4,3.7c-0.1,0.4-0.2,0.7-0.3,1.1l-0.1,0.3
				l0,0.1l0,0.1l0,0.1l0,0.5c0,0,0,0.1,0,0.1l0,0.2v0.3l0,0.3l0,0.3c0,0.2,0,0.4,0.1,0.6l0.1,0.6c0.2,0.7,0.5,1.4,0.9,2.1
				c0.4,0.6,0.9,1.2,1.5,1.7c0.6,0.5,1.2,0.9,1.9,1.2c0.2,0.1,0.3,0.1,0.5,0.2l0.5,0.2c0.2,0.1,0.4,0.1,0.5,0.1l0.3,0.1l0.1,0l0,0
				l0.1,0l0.1,0l0.2,0c0.1,0,0.1,0,0.3,0c0.2,0,0.4,0,0.6,0l0.6-0.1c0.2,0,0.4-0.1,0.6-0.1c0.7-0.2,1.4-0.5,2-0.9
				c1.2-0.8,2.1-2.1,2.5-3.5c0.1-0.2,0.1-0.3,0.1-0.5l0-0.3l0-0.1l0,0l0-0.1l0-0.1l0-0.2c0,0,0-0.1,0-0.1v-0.2c0-0.2,0-0.4,0-0.6
				c-0.1-0.7-0.3-1.4-0.6-2c-0.7-1.2-1.8-2.1-3.1-2.5c-0.2,0-0.3-0.1-0.5-0.1l-0.2,0l-0.1,0l-0.1,0l0,0l-0.1,0l-0.2,0l-0.1,0l0,0
				l-0.1,0c-0.2,0-0.4,0-0.6,0c-0.7,0.1-1.3,0.3-1.8,0.6c-1.1,0.6-1.9,1.7-2.1,2.8c-0.1,0.5-0.2,1.1-0.1,1.7
				c0.1,0.6,0.3,1.1,0.6,1.5c0.3,0.5,0.7,0.9,1.1,1.1c1.1,0.9,2.7,1,3.8,0.1c1.3-1,1.6-3,0.6-4.3c-0.2-0.2-0.4-0.4-0.6-0.6
				c0.5,0.2,1,0.6,1.3,1.2c0.2,0.3,0.3,0.6,0.3,1c0,0.1,0,0.2,0,0.2l0,0.1c0,0,0,0.1,0,0.1l0,0.2l0,0.1l0,0l0,0l0,0.2
				c0,0.1,0,0.2-0.1,0.3c-0.4,1.6-2.1,2.9-4,2.7l-0.1,0l0,0l0,0l-0.2,0c-0.1,0-0.2,0-0.4-0.1l-0.4-0.1l-0.3-0.1
				c-0.4-0.2-0.9-0.4-1.3-0.8c-0.4-0.3-0.7-0.7-1-1.1c-0.3-0.4-0.5-0.9-0.6-1.4l-0.1-0.4c0-0.1,0-0.3-0.1-0.4l0-0.2l0-0.2l0-0.2
				l0-0.1c0,0,0-0.1,0-0.1l0-0.5l0.1-0.4c0-0.3,0.1-0.5,0.2-0.8c0.3-1.1,0.9-2,1.7-2.8c0.8-0.8,1.8-1.4,2.9-1.7l0.4-0.1l0.2-0.1
				c0.1,0,0.1,0,0.2,0l0.4-0.1c0.1,0,0.3,0,0.4,0l0.2,0l0.1,0l0.1,0l0.5,0l0.1,0l0.1,0l0,0l0.2,0l0.4,0.1c1.1,0.2,2.2,0.7,3.1,1.3
				c0.9,0.6,1.8,1.4,2.4,2.3c0.6,0.9,1.1,1.9,1.4,3c0.1,0.3,0.1,0.5,0.2,0.8l0.1,0.4l0,0.2l0,0.2c0,0.3,0,0.5,0,0.8
				c0,0.3,0,0.6,0,0.8l0,0.1c0,0,0,0,0,0l0,0l0,0.1l0,0.2l-0.1,0.4c0,0.3-0.1,0.5-0.1,0.8c-0.1,0.2-0.1,0.5-0.2,0.7
				c-0.1,0.2-0.2,0.5-0.3,0.7c-0.2,0.5-0.4,0.9-0.6,1.3c-0.1,0.2-0.2,0.4-0.4,0.6c-0.1,0.2-0.2,0.4-0.4,0.6
				c-0.9,1.3-2.1,2.3-3.2,3.1c0,0,0,0,0,0c-0.5,0.1-1.1,0.3-1.6,0.5c-0.3,0.1-0.5,0.2-0.8,0.3c-0.2,0.1-0.5,0.2-0.7,0.3
				c-0.2,0.1-0.4,0.2-0.7,0.3c-0.2,0.1-0.4,0.2-0.6,0.3c-0.2,0.1-0.4,0.2-0.5,0.3c-0.2,0.1-0.3,0.2-0.4,0.4
				c-0.1,0.1-0.3,0.2-0.4,0.3c-0.1,0.1-0.2,0.2-0.3,0.3c-0.3,0.4-0.5,0.6-0.5,0.6s0.3-0.1,0.7-0.4c0.1-0.1,0.2-0.1,0.4-0.2
				c0.1-0.1,0.3-0.1,0.4-0.2c0.2-0.1,0.3-0.1,0.5-0.2c0.2-0.1,0.4-0.1,0.6-0.2c0.4-0.2,0.8-0.3,1.3-0.4c0.5-0.1,1-0.2,1.5-0.4
				c0.5-0.1,1.1-0.2,1.6-0.4c0.5-0.1,1.1-0.3,1.7-0.4c0.6-0.1,1.1-0.3,1.7-0.5c0.6-0.2,1.1-0.4,1.6-0.6c0.5-0.2,1-0.5,1.4-0.8
				c0.4-0.3,0.8-0.6,1.1-0.9c0.3-0.3,0.5-0.7,0.6-1c0.1-0.3,0.2-0.6,0.2-0.9c0-0.3-0.1-0.4-0.1-0.6c0-0.1-0.1-0.2-0.1-0.2
				s0,0.1,0,0.2c0,0.1,0,0.3-0.1,0.5c-0.1,0.2-0.2,0.5-0.4,0.7c-0.2,0.2-0.4,0.5-0.7,0.7c-0.6,0.4-1.5,0.8-2.5,1.1
				c-0.7,0.2-1.5,0.5-2.4,0.7c0.6-0.5,1.2-1.1,1.7-1.7c0.2-0.2,0.3-0.4,0.5-0.6c0.1-0.2,0.3-0.4,0.4-0.7c0.3-0.5,0.5-0.9,0.7-1.4
				c0.1-0.3,0.2-0.5,0.3-0.8c0.1-0.3,0.2-0.5,0.3-0.8c0.1-0.3,0.2-0.6,0.2-0.8l0.1-0.4l0-0.2l0-0.1l0,0l0-0.1l0-0.1
				c0-0.3,0.1-0.6,0.1-0.8c0-0.3,0-0.6,0-0.9v-0.2l0-0.2l0-0.5c0-0.3-0.1-0.6-0.2-0.9c-0.3-1.2-0.8-2.5-1.5-3.6
				c-1.4-2.2-3.8-4-6.6-4.6L112.6-143.1z"/>
			<path class="st1" d="M133.7-86.4c-0.7-0.4-1.5-0.6-2.2-0.6c-0.3-0.4-0.5-0.8-0.7-1.2c-2.5-4.8-1.7-9.5,0.9-14.1
				c0.9-1.7,2.1-3.8,3.6-5.1c-3.4,2.6-6.6,5.6-8.8,9.3c-1,1.6-1.8,3.2-2.3,5c-0.5,1.6-0.7,3.5-0.6,5.1c0,1.5,0.4,3.2,0.8,4.6
				c0.7,2.3,2,4.7,4.2,5.8c0,0,0.1,0.1,0.1,0.1c2.5,1.4,5.6,0.5,7-2C137-81.9,136.1-85,133.7-86.4z"/>
			<path class="st1" d="M170.7-121.2c-1.7-0.9-3.8-1.8-5.7-2.2c-2.1-0.4-4.3-0.5-6.5-0.4c-5.1,0.3-9.9,2-14.5,4.1c2.1-1,5-1,7.3-1
				c6.2-0.1,11.5,1.6,15.1,6.8c1.9,2.6,3.1,6.4,6.1,7.9c2.6,1.3,5.5,0.1,6.1-2.9c0.7-3.4-1.2-6.7-3.6-9
				C173.8-119,172.3-120.3,170.7-121.2z"/>
			<path class="st1" d="M181.8-126.8c-1.2-1-2.7-2.1-4.2-2.7c-1.6-0.7-3.5-1.3-5.2-1.5c-1.9-0.2-3.9-0.1-5.8,0.2
				c-4.5,0.7-8.7,2.5-12.7,4.7c1.9-1,4.4-1.2,6.5-1.4c5.5-0.6,10.4,0.6,14.1,5c1.9,2.2,3.2,5.5,6.1,6.7c2.5,1,4.9-0.3,5.3-3
				C186.1-122.1,184.1-124.9,181.8-126.8z"/>
			<path class="st1" d="M189.8-130.9c-0.3-2.8-2.6-4.9-5-6.1c-1.3-0.7-2.8-1.3-4.2-1.6c-1.5-0.3-3.3-0.5-4.9-0.3
				c-1.7,0.2-3.5,0.7-5.1,1.3c-3.8,1.5-7.2,3.9-10.2,6.7c1.4-1.3,3.6-1.9,5.4-2.5c4.8-1.6,9.3-1.5,13.3,1.6c2.1,1.6,3.9,4.2,6.7,4.7
				C188.1-126.8,190-128.5,189.8-130.9z"/>
			<path class="st1" d="M163.7-139.7c2.2-1.3,4.3-2.7,6-4.7c0.7-0.8,1.3-1.7,1.8-2.7c0.4-0.9,0.7-2,0.8-2.9c0.1-0.9,0-1.9-0.1-2.8
				c-0.2-1.7-1-3.4-2.6-4.1c-1.4-0.6-2.7,0.2-3,1.6c-0.3,1.7,0.9,3.3,1.4,4.9c1,3,0.2,5.7-1.7,8.2
				C165.6-141.4,164.7-140.3,163.7-139.7z"/>
			<path class="st1" d="M131.9-137.9c0.3,0.1,0.6,0.2,0.9,0.3c0.1,0,0.1,0,0.2,0c0,0,0.1,0,0.1,0c0.5,0.1,1,0.1,1.5,0
				c0,0,0.1,0,0.1,0l0,0c0.6-0.1,1.2-0.4,1.7-0.9c1.6-1.4,1.7-3.9,0.3-5.5c-1.4-1.6-3.9-1.7-5.5-0.3c-0.8,0.8-1.3,1.8-1.3,2.8
				c-0.3-0.8-0.4-1.6-0.2-2.6c0.2-1.2,0.9-2.5,2-3.4c1.1-0.9,2.6-1.5,4.1-1.5c0.2,0,0.3,0,0.5,0l0.7,0.1c0,0,0,0,0,0c0,0,0,0-0.1,0
				l0,0l0,0l0.1,0l0.1,0l0.3,0.1c0.2,0.1,0.4,0.1,0.5,0.2c0.3,0.2,0.7,0.3,1,0.6l0.5,0.3l0.5,0.4c0.6,0.6,1.2,1.3,1.7,2
				c0.2,0.4,0.5,0.7,0.7,1.2l0.4,0.7l0.1,0.2l0.1,0.1l0.1,0.3c1.5,3.4,1.7,7.3,1.1,10.8c-0.3,1.8-0.8,3.5-1.5,5
				c-0.4,1-0.9,1.9-1.4,2.7c0.2-0.4,0.4-0.8,0.6-1.2c0.3-0.7,0.6-1.5,0.7-2.4c0.2-0.8,0.2-1.8,0.1-2.7c-0.2-0.9-0.5-1.9-1.2-2.7
				c-0.2-0.2-0.3-0.4-0.5-0.6c-0.2-0.2-0.3-0.3-0.5-0.4c-0.5-0.3-0.9-0.6-1.4-0.8c-0.9-0.4-1.9-0.5-2.9-0.4
				c-0.9,0.1-1.9,0.4-2.6,0.9c-0.7,0.5-1.3,1.1-1.7,1.8c-0.1,0.2-0.2,0.3-0.2,0.5c-0.1,0.2-0.1,0.4-0.2,0.5c-0.1,0.3-0.1,0.7-0.1,1
				c0,0.6,0.1,1.1,0.2,1.5c0.1,0.3,0.2,0.5,0.3,0.7c0,0,0.1,0.1,0.1,0.1c0,0,0,0,0,0.1c0.1,0.2,0.2,0.3,0.2,0.3s0,0,0,0
				c0,0,0,0,0,0.1c1,1.1,2.8,1.2,3.9,0.2c1.1-1,1.2-2.8,0.2-3.9c-0.7-0.8-1.8-1.1-2.7-0.8c0.3-0.2,0.5-0.4,0.9-0.6
				c0.6-0.3,1.2-0.5,1.9-0.5c0.7,0,1.5,0,2.2,0.3c0.4,0.1,0.7,0.3,1,0.4c0.1,0.1,0.3,0.2,0.5,0.4c0.1,0.1,0.3,0.2,0.4,0.3
				c0.6,0.5,1,1.2,1.3,2c0.3,0.8,0.4,1.6,0.3,2.4c0,0.8-0.2,1.6-0.4,2.3c-0.2,0.7-0.6,1.4-0.9,2c-0.3,0.6-0.6,1.1-0.9,1.6
				c-0.1,0.2-0.2,0.3-0.3,0.5c-0.1,0.1-0.2,0.2-0.3,0.4c-0.2,0.3-0.4,0.5-0.6,0.8c-0.2,0.2-0.4,0.4-0.6,0.7
				c-0.8,0.9-1.6,1.5-2.3,2.1c-0.6,0.6-1.2,1-1.5,1.3c-0.4,0.3-0.5,0.5-0.5,0.5s0.2-0.1,0.6-0.4c0.4-0.3,0.9-0.7,1.6-1.2
				c0.7-0.5,1.5-1.2,2.4-2c0.2-0.2,0.5-0.4,0.7-0.6c0.2-0.2,0.4-0.5,0.7-0.7c0.5-0.5,1-1,1.4-1.6c0.9-1.2,1.8-2.6,2.6-4.1
				c0.8-1.6,1.4-3.3,1.9-5.1c0.9-3.7,1.1-7.9-0.4-11.9c-0.7-1.9-1.7-3.9-3.2-5.5c-0.2-0.2-0.4-0.4-0.6-0.6l-0.7-0.5
				c-0.4-0.4-1-0.6-1.4-0.9c-0.2-0.1-0.5-0.2-0.8-0.3l-0.4-0.1l-0.2-0.1l-0.1,0l-0.1,0l0,0l-0.1,0l-0.7-0.1l-0.9,0
				c-2.2,0.1-4.2,1.1-5.5,2.5c-0.7,0.7-1.2,1.5-1.6,2.3c-0.4,0.8-0.6,1.7-0.6,2.6c-0.1,1.7,0.5,3.2,1.3,4.2
				C130.1-138.9,131.1-138.3,131.9-137.9z M137-148.8C137-148.8,137-148.8,137-148.8L137-148.8z"/>
			<path class="st1" d="M202.8-125l-0.1-0.9c-0.1-0.3-0.1-0.6-0.2-0.9c-0.6-2.3-1.8-4.3-3.2-6c-1.4-1.8-3.1-3.3-4.9-4.5
				c-1.8-1.2-3.8-2.1-5.7-2.7c-1.9-0.6-3.9-1-5.7-1.2c-1.8-0.2-3.6-0.1-5.2,0c-0.8,0.1-1.6,0.2-2.3,0.4c-0.4,0.1-0.7,0.1-1,0.2
				c-0.3,0.1-0.7,0.2-1,0.3c-1.3,0.3-2.3,0.8-3.2,1.1c-0.9,0.3-1.5,0.6-2,0.8c-0.5,0.2-0.7,0.3-0.7,0.3s0.2-0.1,0.7-0.2
				c0.5-0.2,1.2-0.4,2-0.7c0.9-0.3,2-0.6,3.2-0.9c0.3-0.1,0.6-0.1,1-0.2c0.3,0,0.7-0.1,1-0.1c0.7-0.1,1.4-0.2,2.2-0.2
				c1.6-0.1,3.3,0,5,0.3c1.8,0.3,3.6,0.8,5.4,1.5c3.6,1.4,7.1,3.8,9.3,7.1l0.2,0.3l0.1,0.1l0.1,0.2l0.4,0.7c0.3,0.5,0.4,0.9,0.7,1.3
				c0.4,0.9,0.7,1.8,0.8,2.7l0.1,0.7l0,0.7c0.1,0.4,0,0.8,0,1.3c0,0.2-0.1,0.4-0.1,0.6l-0.1,0.3l0,0.1l0,0.1l0,0l0,0
				c0.1-0.1,0,0,0-0.1l-0.3,0.7c-0.1,0.1-0.2,0.3-0.2,0.5c-0.8,1.4-2.2,2.4-3.7,2.9c-1.5,0.5-3,0.4-4.2-0.1c-0.9-0.4-1.7-1-2.2-1.7
				c1,0.6,2.1,0.8,3.3,0.4c2.2-0.6,3.5-3,2.9-5.2c-0.6-2.2-3-3.5-5.2-2.9c-0.7,0.2-1.3,0.6-1.8,1.1l0,0c0,0,0,0,0,0.1
				c-0.4,0.4-0.7,0.9-0.9,1.4c0,0,0,0.1,0,0.1c0,0.1-0.1,0.1-0.1,0.2c-0.1,0.3-0.2,0.6-0.3,1c-0.2,1-0.2,2.3,0.4,3.6
				c0.5,1.3,1.6,2.7,3.1,3.6c0.8,0.5,1.7,0.8,2.7,0.9c1,0.1,2,0,3-0.2c2-0.5,4-1.7,5.4-3.7c0.2-0.3,0.3-0.6,0.5-0.8l0.3-0.7l0-0.1
				l0,0l0-0.1l0-0.1l0.1-0.2l0.1-0.4c0.1-0.3,0.2-0.6,0.2-0.9C202.8-123.8,202.9-124.4,202.8-125z"/>
			<path class="st1" d="M159.6-164.2c-3.7-3.7-9.6-3.7-13.3-0.1c-3.7,3.7-3.7,9.6-0.1,13.3c1,1.1,2.3,1.8,3.6,2.3
				c0.2,0.9,0.5,1.7,0.6,2.5c1.9,9.7-1.9,17.5-8.8,24.3c-2.5,2.5-5.6,5.7-9,7.1c7.3-2.9,14.4-6.6,20.3-11.9c2.5-2.3,4.8-4.8,6.6-7.6
				c1.6-2.5,2.9-5.8,3.7-8.7c0.7-2.7,0.9-5.8,0.9-8.6c0-4.5-1.1-9.3-4.4-12.4C159.7-164.1,159.7-164.1,159.6-164.2z"/>
			<path class="st1" d="M162.8-92.3c3.3,0.8,6.7-1.2,7.6-4.5c0-0.1,0-0.1,0-0.2c0.8-2.9-0.2-6-1.7-8.6c-0.9-1.6-2.1-3.3-3.4-4.6
				c-1.4-1.4-3.3-2.8-5.1-3.7c-2-1-4.2-1.7-6.4-2.1c-5.1-1.1-10.4-0.7-15.6,0.1c2.4-0.4,5.2,0.4,7.5,1c6.2,1.6,11,4.7,13.2,10.9
				c0.2,0.5,0.4,1.1,0.5,1.7c-0.6,0.7-1,1.6-1.3,2.5C157.4-96.5,159.5-93.1,162.8-92.3z"/>
			<path class="st1" d="M140.7-156.2c0.1,0.4,0.1,0.7,0.2,1c0.1,0.3,0.2,0.6,0.2,0.8c0.1,0.5,0.3,0.8,0.4,1.1
				c0.1,0.3,0.2,0.4,0.2,0.4s0-0.1-0.1-0.4c-0.1-0.3-0.2-0.7-0.3-1.2c0-0.2-0.1-0.5-0.1-0.8c0-0.3,0-0.6-0.1-1c0-0.7,0-1.5,0.2-2.3
				c0.2-0.8,0.4-1.7,0.7-2.6c0.3-0.9,0.9-1.8,1.5-2.6c0.6-0.8,1.4-1.6,2.2-2.3c0.8-0.7,1.9-1.2,2.8-1.6c1.1-0.4,2.1-0.7,3.2-0.8
				c1.1-0.1,2.2-0.1,3.2,0.1c1,0.2,2,0.5,2.9,0.9c0.9,0.4,1.6,0.9,2.3,1.4c0.7,0.5,1.2,1.1,1.7,1.6c0.2,0.3,0.4,0.5,0.6,0.8
				c0.2,0.3,0.3,0.5,0.5,0.7c0.3,0.4,0.5,0.8,0.6,1c0.1,0.2,0.2,0.4,0.2,0.4s0-0.1-0.1-0.4c-0.1-0.2-0.2-0.7-0.4-1.1
				c-0.1-0.2-0.2-0.5-0.4-0.8c-0.2-0.3-0.3-0.5-0.5-0.9c-0.2-0.3-0.5-0.6-0.7-0.9c-0.3-0.3-0.6-0.6-0.9-0.9
				c-0.7-0.6-1.4-1.2-2.4-1.7c-0.9-0.5-1.9-0.9-3.1-1.2c-1.1-0.3-2.3-0.3-3.5-0.3c-1.2,0.1-2.5,0.4-3.5,0.8
				c-1.2,0.5-2.2,1.1-3.2,1.8c-0.9,0.8-1.7,1.6-2.4,2.6c-0.6,0.9-1.1,1.9-1.4,2.9c-0.4,1-0.5,2-0.6,2.8c0,0.5,0,0.9,0,1.3
				C140.7-156.9,140.7-156.5,140.7-156.2z"/>
			<path class="st1" d="M164.8-161.5c0.4,0.6,1,1.1,1.8,1.3c1.5,0.3,3-0.7,3.3-2.2c0.3-1.5-0.7-3-2.2-3.3c-0.9-0.2-1.9,0.1-2.5,0.8
				c0.3-0.7,0.8-1.4,1.4-1.9c0.8-0.6,1.8-0.9,2.9-0.8c1.1,0.1,2.2,0.7,3,1.4c0.2,0.1,0.4,0.5,0.7,0.7c0.1,0.2,0.3,0.5,0.5,0.7
				c0.3,0.5,0.6,1.1,0.8,1.7c0.4,1.2,0.7,2.5,0.8,3.9c0.3,2.8,0.2,5.6-0.4,8.1c-0.3,1.3-0.6,2.5-1,3.6c-0.5,1.1-0.9,2.2-1.5,3
				c-1.1,1.8-2.4,3.1-3.4,3.8c-0.5,0.4-0.9,0.6-1.2,0.8c-0.3,0.2-0.4,0.3-0.4,0.3s0.2-0.1,0.5-0.2c0.3-0.1,0.8-0.3,1.3-0.6
				c0.6-0.3,1.2-0.8,1.9-1.3c0.7-0.6,1.4-1.3,2.1-2.2c0.7-0.9,1.3-1.9,1.9-3.1c0.5-1.2,1-2.4,1.4-3.8c0.4-1.3,0.6-2.8,0.8-4.2
				c0.1-1.5,0.1-3,0-4.4c-0.1-1.5-0.3-3-0.9-4.5c-0.3-0.7-0.7-1.4-1.1-2.1c-0.3-0.3-0.4-0.6-0.8-0.9c-0.3-0.2-0.4-0.5-0.8-0.7
				c-1.3-1-2.7-1.4-4.1-1.4c-1.4,0-2.8,0.5-3.6,1.4c-1.7,1.7-2,3.8-1.6,5.1C164.5-162.1,164.7-161.8,164.8-161.5z"/>
			<path class="st1" d="M175.4-92.6c-0.1-0.1-0.1-0.2-0.1-0.2l0,0c-0.4-0.7-0.9-1.3-1.7-1.6c-1.9-0.9-4.3-0.1-5.2,1.8
				c-0.9,1.9-0.1,4.3,1.8,5.2c1.6,0.8,3.4,0.4,4.5-0.8c-0.1,0.4-0.3,0.9-0.5,1.3c-0.5,1.1-1.2,2.3-2.3,3.2c-1.1,1-2.4,1.8-4,2.2
				c-1.6,0.4-3.4,0.6-5.1,0.2c-1.7-0.4-3.4-1.4-4.8-2.6c-1.4-1.2-2.6-2.8-3.5-4.5c-0.2-0.4-0.4-0.9-0.6-1.3
				c-0.2-0.4-0.3-0.8-0.5-1.3l-0.2-0.7l-0.2-0.7c-0.1-0.5-0.2-1-0.3-1.5c-0.4-2-0.7-4-1.2-5.9c-0.5-2-1.2-3.8-2.3-5.6l-0.2-0.3
				l-0.2-0.3l-0.4-0.5l-0.4-0.5l-0.2-0.2l0-0.1l-0.1-0.1l0,0l0,0l-0.1-0.1c-0.3-0.3-0.7-0.6-1-0.9c-0.3-0.3-0.7-0.5-1-0.8
				c-0.3-0.3-0.7-0.5-1-0.7c-0.3-0.2-0.7-0.4-1-0.6c-0.7-0.3-1.4-0.6-2-0.8c-1.3-0.4-2.4-0.6-3.4-0.7c-0.5,0-0.9-0.1-1.3-0.1
				c-0.4,0-0.7,0-0.9,0.1c-0.5,0.1-0.8,0.1-0.8,0.1s0.2,0.1,0.7,0.3c0.2,0.1,0.5,0.2,0.9,0.3c0.3,0.1,0.7,0.3,1.1,0.5
				c0.8,0.4,1.8,0.8,2.8,1.4c1,0.6,2.1,1.4,3.1,2.3c0.2,0.3,0.5,0.5,0.8,0.7c0.2,0.3,0.5,0.5,0.7,0.8l0.1,0.1l0,0l0.2,0.3l0.4,0.5
				l0.4,0.5l0.2,0.3l0.1,0.3c0.7,1.3,1.3,2.9,1.9,4.7c0.5,1.8,1,3.7,1.6,5.7c0.1,0.5,0.3,1,0.5,1.5l0.2,0.8l0.3,0.8
				c0.2,0.5,0.4,1,0.7,1.5c0.3,0.5,0.5,1,0.8,1.5c1.1,1.9,2.6,3.6,4.3,4.9c1.7,1.3,3.7,2.4,5.7,2.8c2.1,0.4,4.1,0.1,5.9-0.4
				c1.8-0.6,3.4-1.5,4.5-2.7c1.2-1.2,1.9-2.5,2.4-3.7c0.5-1.2,0.7-2.4,0.7-3.3c0-1-0.2-1.7-0.3-2.2
				C175.5-92.3,175.4-92.4,175.4-92.6z"/>
		</g>
		<g>
			<path class="st1" d="M164.5-203.9c1.5-0.7,2.6-1.9,3.1-3.1c0.6-1.2,0.7-2.4,0.6-3.3c0-0.4-0.1-0.7-0.2-0.9c0-0.1,0-0.1-0.1-0.2
				c0,0,0-0.1,0-0.1c-0.2-0.5-0.4-0.9-0.7-1.3c0,0,0-0.1,0-0.1l0,0c-0.4-0.5-0.9-0.9-1.6-1.1c-2-0.7-4.3,0.3-5,2.3
				c-0.7,2,0.3,4.3,2.3,5c1.1,0.4,2.2,0.3,3.1-0.2c-0.6,0.6-1.3,1.1-2.2,1.4c-1.2,0.4-2.6,0.4-3.9-0.2c-1.3-0.6-2.6-1.6-3.2-3
				c-0.1-0.1-0.1-0.3-0.2-0.4l-0.2-0.7c0,0,0,0,0,0c0,0,0,0,0,0.1l0,0l0,0l0-0.1l0-0.1l0-0.3c0-0.2-0.1-0.4-0.1-0.6
				c0-0.4,0-0.8,0-1.2l0.1-0.6l0.2-0.6c0.2-0.8,0.6-1.6,1-2.5c0.2-0.4,0.4-0.8,0.7-1.2l0.4-0.6l0.1-0.2l0.1-0.1l0.2-0.3
				c2.3-2.9,5.7-4.9,9.1-5.9c1.7-0.5,3.4-0.8,5.1-1c0.2,0,0.4,0,0.6,0c-0.4,0.1-0.9,0.2-1.3,0.3c-0.8,0.2-1.7,0.6-2.4,1.2
				c-0.8,0.6-1.4,1.4-1.8,2.3c-0.1,0.3-0.2,0.4-0.3,0.7c-0.1,0.2-0.1,0.4-0.1,0.7c-0.1,0.6-0.1,1.1,0,1.6c0.1,1,0.5,2,1,2.7
				c0.5,0.8,1.2,1.5,2,1.9c0.8,0.4,1.6,0.7,2.4,0.7c0.2,0,0.4,0,0.6,0c0.2,0,0.4-0.1,0.5-0.1c0.3-0.1,0.6-0.2,0.9-0.3
				c0.5-0.3,1-0.6,1.2-0.9c0.2-0.2,0.3-0.4,0.4-0.6c0,0,0-0.1,0.1-0.1c0,0,0-0.1,0-0.1c0.1-0.2,0.1-0.3,0.1-0.3s0,0,0,0
				c0,0,0,0,0-0.1c0.5-1.4-0.2-3-1.6-3.5c-1.4-0.5-3,0.2-3.5,1.6c-0.4,1-0.1,2.1,0.6,2.8c-0.3-0.1-0.6-0.3-0.9-0.5
				c-0.5-0.4-1-0.9-1.4-1.5c-0.4-0.6-0.6-1.3-0.7-2c-0.1-0.4-0.1-0.8-0.1-1.1c0-0.2,0.1-0.4,0.1-0.6c0-0.1,0.1-0.4,0.1-0.5
				c0.2-0.7,0.6-1.4,1.1-2c0.5-0.6,1.2-1.1,2-1.4c0.7-0.3,1.5-0.6,2.2-0.7c0.7-0.1,1.4-0.1,2.1-0.1c0.3,0,0.5,0,0.8,0.1
				c0.7,0.1,1.4,0.2,2,0.4c0.3,0.1,0.6,0.1,0.9,0.2c0.3,0.1,0.6,0.2,0.9,0.3c1.1,0.3,2.1,0.7,2.9,1c0.8,0.3,1.4,0.6,1.8,0.8
				c0.4,0.2,0.7,0.3,0.7,0.3l0.2-0.4c0,0-0.2-0.1-0.6-0.3c-0.4-0.2-1-0.5-1.8-0.9c-0.8-0.4-1.8-0.8-2.9-1.2
				c-0.3-0.1-0.6-0.2-0.9-0.3c-0.3-0.1-0.6-0.2-1-0.3c-0.7-0.2-1.4-0.4-2.1-0.5c-1.5-0.2-3.1-0.4-4.9-0.3c-1.7,0.1-3.6,0.3-5.4,0.8
				c-3.7,0.9-7.5,2.8-10.3,6c-1.3,1.5-2.6,3.3-3.3,5.4c-0.1,0.3-0.2,0.5-0.2,0.8l-0.2,0.8c-0.1,0.5-0.1,1.1-0.1,1.7
				c0,0.3,0.1,0.6,0.1,0.8l0.1,0.4l0,0.2l0,0.1l0,0.1l0,0l0,0.1l0.2,0.7l0.4,0.8c1.1,1.9,2.9,3.2,4.8,3.8c0.9,0.3,1.9,0.4,2.8,0.4
				C162.8-203.2,163.7-203.5,164.5-203.9z"/>
			<path class="st1" d="M177.5-226.9c3.4,1.1,7.7,2.3,10.4,4.7c-6-5.1-12.5-9.7-19.9-12.4c-3.2-1.1-6.5-2-9.8-2.3
				c-3-0.3-6.5,0.1-9.4,0.8c-2.7,0.6-5.6,1.9-8,3.2c-3.9,2.1-7.7,5.3-8.9,9.7c0,0.1-0.1,0.2-0.1,0.3c-1.6,5,1.2,10.2,6.1,11.8
				c5,1.6,10.2-1.2,11.8-6.1c0.4-1.4,0.5-2.9,0.3-4.2c0.6-0.6,1.3-1.2,2-1.7C159.6-229.5,168.2-229.8,177.5-226.9z"/>
			<path class="st1" d="M175.9-247c0,2.2,0.5,4.5,1.1,6.6c1.5,5,4.2,9.6,7.3,13.8c-1.5-2-2.1-4.8-2.6-7.1c-1.5-6.2-1-11.9,3.5-16.8
				c0.4-0.4,0.8-0.8,1.2-1.2c0.9,0.2,1.9,0.2,2.8,0c3.4-0.8,5.4-4.2,4.6-7.5c-0.8-3.3-4.2-5.4-7.5-4.6c-0.1,0-0.1,0-0.2,0
				c-2.9,0.6-5.2,3-6.8,5.5c-1,1.6-2,3.4-2.5,5.2C176.2-251.3,175.8-249,175.9-247z"/>
			<path class="st1" d="M148.8-211.4c-0.2,0.1-0.4,0.3-0.7,0.5c-0.3,0.2-0.5,0.3-0.8,0.5c-0.6,0.3-1.3,0.7-2.1,0.9
				c-0.8,0.2-1.7,0.5-2.7,0.6c-1,0.1-2,0-3-0.1c-1-0.1-2.1-0.5-3-0.9c-1-0.5-1.9-1.1-2.8-1.8c-0.8-0.8-1.6-1.5-2.2-2.5
				c-0.6-0.9-1.1-1.9-1.4-2.9c-0.3-1-0.5-2-0.5-3c-0.1-1,0-1.9,0.2-2.7c0.2-0.8,0.4-1.6,0.6-2.2c0.1-0.3,0.3-0.6,0.4-0.9
				c0.1-0.3,0.3-0.5,0.4-0.7c0.2-0.5,0.5-0.8,0.6-1c0.1-0.2,0.2-0.4,0.2-0.4s-0.1,0.1-0.3,0.3c-0.2,0.2-0.5,0.5-0.8,0.9
				c-0.2,0.2-0.3,0.4-0.5,0.7c-0.2,0.3-0.3,0.6-0.5,0.9c-0.2,0.3-0.3,0.7-0.5,1c-0.2,0.4-0.3,0.8-0.4,1.2c-0.2,0.9-0.4,1.8-0.4,2.9
				c0,1,0.1,2.1,0.4,3.2c0.3,1.1,0.8,2.2,1.4,3.2c0.6,1,1.5,2,2.4,2.8c0.9,0.8,2,1.4,3.1,1.9c1.1,0.5,2.3,0.8,3.4,0.9
				c1.1,0.1,2.2,0.1,3.3-0.1c1-0.1,2-0.5,2.8-0.8c0.4-0.2,0.8-0.4,1.1-0.6c0.3-0.2,0.7-0.4,1-0.6c0.3-0.2,0.5-0.4,0.8-0.6
				c0.2-0.2,0.4-0.4,0.6-0.6c0.4-0.3,0.6-0.7,0.8-0.9c0.2-0.2,0.3-0.3,0.3-0.3s-0.1,0.1-0.3,0.3C149.4-212,149.2-211.7,148.8-211.4z
				"/>
			<path class="st1" d="M131.6-228.9c0.4-0.6,0.5-1.4,0.3-2.2c-0.4-1.5-2-2.3-3.4-1.9c-1.5,0.4-2.3,2-1.9,3.4c0.3,0.9,1,1.6,1.8,1.9
				c-0.7,0-1.6-0.1-2.4-0.4c-0.9-0.4-1.6-1.2-2-2.2c-0.4-1-0.4-2.3-0.1-3.3c0-0.2,0.2-0.6,0.3-0.9c0.1-0.2,0.3-0.5,0.4-0.8
				c0.3-0.5,0.7-1,1.1-1.5c0.9-0.9,1.9-1.8,3.1-2.6c2.3-1.6,4.8-2.7,7.4-3.5c1.3-0.4,2.5-0.6,3.7-0.8c1.2-0.1,2.3-0.2,3.4-0.1
				c2.1,0.1,3.8,0.6,4.9,1.2c0.6,0.2,1,0.5,1.3,0.7c0.3,0.2,0.4,0.3,0.4,0.3s-0.1-0.1-0.4-0.3c-0.3-0.2-0.6-0.6-1.2-0.9
				c-0.5-0.4-1.2-0.7-2.1-1.1c-0.8-0.3-1.8-0.7-2.9-0.8c-1.1-0.2-2.3-0.3-3.6-0.2c-1.3,0.1-2.6,0.2-4,0.5c-1.4,0.3-2.8,0.7-4.1,1.3
				c-1.4,0.6-2.7,1.3-4,2c-1.3,0.8-2.5,1.7-3.6,2.9c-0.5,0.6-1,1.2-1.3,1.9c-0.2,0.4-0.3,0.7-0.5,1.1c-0.1,0.4-0.2,0.6-0.2,1
				c-0.2,1.6,0,3,0.6,4.3c0.6,1.2,1.8,2.2,2.9,2.5c2.3,0.7,4.3,0,5.3-0.9C131.2-228.3,131.4-228.6,131.6-228.9z"/>
			<path class="st1" d="M195.1-214.5c1.1,0.4,2.3,0.6,3.4,0.9c1.1,0.2,2.3,0.3,3.3,0.4c1.1,0,2.1-0.1,3.1-0.3c0.9-0.2,1.8-0.6,2.4-1
				c0.7-0.4,1.1-0.9,1.5-1.4c0.3-0.4,0.5-0.8,0.6-1.1c0.1-0.3,0.2-0.4,0.2-0.4s-0.1,0.1-0.3,0.3c-0.2,0.2-0.5,0.5-0.9,0.8
				c-0.4,0.3-0.9,0.5-1.6,0.7c-0.6,0.2-1.4,0.3-2.2,0.3c-1.6,0-3.5-0.4-5.6-1c-2-0.6-4.2-1.4-6.4-2.2c-1.1-0.4-2.2-0.8-3.3-1.2
				c-1.1-0.4-2.2-0.7-3.3-1c-0.5-0.2-1.1-0.3-1.6-0.4c-0.5-0.1-1-0.3-1.6-0.3c-0.5-0.1-1-0.2-1.5-0.2c-0.5-0.1-1-0.1-1.4-0.1
				c-0.5,0-0.9-0.1-1.3-0.1c-1,0.1-2.1,0.1-3.1,0.4c-1,0.2-1.6,0.4-1.6,0.4s0,0,0.1,0c-0.1,0-0.2,0-0.2,0l0,0.6c0,0,0.6,0,1.8,0.1
				c0.6,0,1.3,0.2,2.2,0.3c0.8,0.1,1.8,0.4,2.8,0.7c2.1,0.7,4.5,1.8,7,3.6c2.4,1.8,4.8,4.3,6.6,7.5c0.2,0.4,0.4,0.8,0.6,1.2
				c0.2,0.4,0.4,0.8,0.6,1.3c0.3,0.9,0.7,1.8,0.9,2.8c0.1,0.5,0.3,1,0.3,1.4c0.1,0.5,0.1,1,0.2,1.5c0.1,0.5,0.1,1,0.1,1.5l0,0.8
				l0,0.4l0,0.2l0,0c0,0,0,0,0,0l0,0.1c0,0.6-0.1,1.1-0.1,1.7c-0.1,0.5-0.2,1-0.2,1.5l-0.1,0.4l-0.1,0.4l-0.2,0.8
				c-0.1,0.5-0.3,1-0.5,1.5c-0.7,2-1.9,3.9-3.3,5.5c-1.4,1.6-3.2,3-5.2,4c-2,1-4.2,1.6-6.4,1.8l-0.8,0l-0.4,0l0,0l-0.1,0l-0.2,0
				l-0.9,0l-0.2,0l-0.2,0l-0.4-0.1c-0.3,0-0.5-0.1-0.8-0.1l-0.8-0.2c-0.1,0-0.3-0.1-0.4-0.1l-0.4-0.1l-0.8-0.3
				c-2-0.9-3.9-2.2-5.2-3.9c-1.4-1.7-2.4-3.7-2.7-5.9c-0.1-0.5-0.2-1.1-0.2-1.6l0-0.7l0-1c0-0.1,0-0.2,0-0.2l0-0.2l0.1-0.3l0-0.3
				l0.1-0.4c0.1-0.2,0.1-0.5,0.2-0.7l0.3-0.7c0.4-0.9,0.9-1.8,1.5-2.6c0.6-0.8,1.4-1.4,2.2-2c0.8-0.6,1.7-0.9,2.7-1.2l0.7-0.2
				l0.7-0.1c0.2-0.1,0.5,0,0.7-0.1l0.4,0l0.1,0h0l0.2,0c3.8,0,6.7,3,7.2,6.2c0,0.2,0.1,0.4,0.1,0.6l0,0.3l0,0.1l0,0l0,0.1l0,0.4
				c0,0.1,0,0.2,0,0.2l0,0.1c0,0.1,0,0.2-0.1,0.4c-0.2,0.7-0.4,1.3-0.8,1.9c-0.7,1-1.7,1.7-2.7,2c0.5-0.3,0.9-0.6,1.3-1
				c2.3-2.4,2.2-6.2-0.2-8.6c-2.1-2-5.2-2.2-7.5-0.7c-0.9,0.5-1.7,1.1-2.4,2c-0.6,0.8-1.2,1.8-1.4,2.9c-0.3,1.2-0.3,2.3-0.1,3.4
				c0.3,2.2,1.6,4.4,3.6,5.9c1,0.7,2.2,1.3,3.5,1.5c0.3,0.1,0.7,0.1,1.1,0.2l0.1,0l0.1,0l0.2,0l0.3,0l0.2,0l0.1,0l0.1,0l0.2,0l0.5,0
				c0.3,0,0.6-0.1,0.9-0.2c2.5-0.5,4.9-2,6.5-4.3c0.8-1.1,1.4-2.4,1.7-3.8c0.1-0.3,0.1-0.8,0.2-1.2l0-0.3c0-0.1,0-0.1,0-0.2l0-0.4
				l0-0.2v-0.2l0-0.1l0-0.1l0-0.5c0-0.3-0.1-0.7-0.1-1c-0.4-2.8-1.9-5.4-4.1-7.3c-1.1-1-2.4-1.7-3.8-2.3c-0.4-0.1-0.7-0.2-1.1-0.3
				l-1.1-0.2c-0.4-0.1-0.8-0.1-1.2-0.2c-0.2,0-0.4,0-0.5,0l-0.4,0l-0.2,0H176l-0.1,0l-0.1,0l-0.5,0c-0.4,0-0.7,0-1.1,0.1l-1.1,0.2
				c-0.4,0.1-0.7,0.2-1.1,0.3c-1.4,0.5-2.8,1.1-4,1.9c-1.2,0.9-2.3,1.9-3.3,3c-0.9,1.2-1.7,2.5-2.2,3.9l-0.4,1.1
				c-0.1,0.4-0.2,0.7-0.3,1.1l-0.1,0.6l-0.1,0.6l-0.1,0.6l0,0.3c0,0.1,0,0.2,0,0.2l0,1v0.2l0,0.1l0,0.3l0,0.5c0,0.7,0.2,1.5,0.3,2.2
				c0.6,2.9,2,5.6,3.9,7.8c1.9,2.2,4.4,3.9,7.1,5l1,0.3l0.5,0.2c0.2,0,0.4,0.1,0.5,0.1l1.1,0.2c0.4,0.1,0.8,0.1,1.1,0.1l0.6,0.1
				l0.3,0l0.2,0l1,0l0.2,0l0.1,0l0.2,0l0.1,0l0.5,0l1-0.1c5.6-0.6,10.6-3.5,13.9-7.6c1.7-2,2.9-4.3,3.7-6.7c0.2-0.6,0.4-1.2,0.5-1.8
				l0.2-0.9l0.1-0.4l0.1-0.5c0.1-0.6,0.2-1.3,0.2-1.9c0-0.6,0-1.1,0-1.7l0-0.1v-0.1l0-0.1l0-0.2l0-0.4l-0.1-0.9
				c-0.1-0.6-0.1-1.1-0.2-1.7c-0.1-0.6-0.2-1.1-0.3-1.6c-0.1-0.5-0.3-1.1-0.5-1.6c-0.3-1.1-0.7-2-1.1-3c-0.2-0.5-0.5-0.9-0.7-1.4
				c-0.3-0.4-0.5-0.9-0.8-1.3c-1.9-3-4.3-5.4-6.7-7.1c0.7,0.3,1.4,0.6,2.2,0.8C192.8-215.3,194-214.8,195.1-214.5z"/>
			<path class="st1" d="M198.8-224.4c-0.8,0-1.6,0.1-2.4,0.1c-0.4,0-0.8,0.1-1.1,0.1c-0.4,0.1-0.7,0.1-1.1,0.2
				c-0.3,0.1-0.7,0.1-1,0.2c-0.3,0.1-0.6,0.2-0.9,0.3c-0.3,0.1-0.6,0.2-0.8,0.3c-0.3,0.1-0.5,0.2-0.7,0.3c-0.2,0.1-0.4,0.2-0.6,0.3
				c-0.2,0.1-0.3,0.2-0.5,0.3c-0.6,0.4-0.9,0.6-0.9,0.6s0.4-0.1,1.1-0.3c0.2,0,0.4-0.1,0.6-0.1c0.2,0,0.4-0.1,0.7-0.1
				c0.2,0,0.5-0.1,0.7-0.1c0.3,0,0.6-0.1,0.8-0.1c0.6-0.1,1.2-0.1,1.9-0.1c0.7,0,1.4,0,2.1,0c0.8,0,1.5,0,2.3,0c0.8,0,1.6,0,2.4,0
				c0.8,0,1.6,0,2.5-0.1c0.8-0.1,1.6-0.2,2.4-0.3c0.8-0.1,1.5-0.3,2.2-0.6c0.7-0.2,1.3-0.5,1.8-0.9c0.5-0.4,0.9-0.8,1.2-1.2
				c0.3-0.4,0.4-0.8,0.5-1.2c0.1-0.3,0.1-0.6,0.1-0.8c0-0.2,0-0.3,0-0.3s0,0.1-0.1,0.3c-0.1,0.2-0.2,0.4-0.3,0.7
				c-0.2,0.3-0.4,0.6-0.8,0.8c-0.3,0.3-0.8,0.5-1.3,0.7c-1,0.4-2.3,0.6-3.8,0.7c-1.5,0.1-3,0.1-4.7,0.1
				C200.4-224.4,199.6-224.4,198.8-224.4z"/>
			<path class="st1" d="M193.4-248.5l-0.3-0.1l0,0l-0.1,0l-0.1,0l-0.1,0l-0.5,0l-0.1,0h-0.1l-0.3,0c-0.2,0-0.4,0-0.6,0l-0.5,0.1
				c-0.1,0-0.2,0-0.3,0l-0.3,0.1l-0.5,0.1c-1.4,0.4-2.8,1.1-3.9,2.1c-1.1,1-1.9,2.3-2.4,3.7c-0.1,0.4-0.2,0.7-0.3,1.1l-0.1,0.3
				l0,0.1l0,0.1l0,0.1l0,0.5c0,0,0,0.1,0,0.1l0,0.2v0.3l0,0.3l0,0.3c0,0.2,0,0.4,0.1,0.6l0.1,0.6c0.2,0.7,0.5,1.4,0.9,2.1
				c0.4,0.6,0.9,1.2,1.5,1.7c0.6,0.5,1.2,0.9,1.9,1.2c0.2,0.1,0.3,0.1,0.5,0.2l0.5,0.2c0.2,0.1,0.4,0.1,0.5,0.1l0.3,0.1l0.1,0l0,0
				l0.1,0l0.1,0l0.2,0c0.1,0,0.1,0,0.3,0c0.2,0,0.4,0,0.6,0l0.6-0.1c0.2,0,0.4-0.1,0.6-0.1c0.7-0.2,1.4-0.5,2-0.9
				c1.2-0.8,2.1-2.1,2.5-3.5c0.1-0.2,0.1-0.3,0.1-0.5l0-0.3l0-0.1l0,0l0-0.1l0-0.1l0-0.2c0,0,0-0.1,0-0.1v-0.2c0-0.2,0-0.4,0-0.6
				c-0.1-0.7-0.3-1.4-0.6-2c-0.7-1.2-1.8-2.1-3.1-2.5c-0.2,0-0.3-0.1-0.5-0.1l-0.2,0l-0.1,0l-0.1,0l0,0l-0.1,0l-0.2,0l-0.1,0l0,0
				l-0.1,0c-0.2,0-0.4,0-0.6,0c-0.7,0.1-1.3,0.3-1.8,0.6c-1.1,0.6-1.9,1.7-2.1,2.8c-0.1,0.5-0.2,1.1-0.1,1.7
				c0.1,0.6,0.3,1.1,0.6,1.5c0.3,0.5,0.7,0.9,1.1,1.1c1.1,0.9,2.7,1,3.8,0.1c1.3-1,1.6-3,0.6-4.3c-0.2-0.2-0.4-0.4-0.6-0.6
				c0.5,0.2,1,0.6,1.3,1.2c0.2,0.3,0.3,0.6,0.3,1c0,0.1,0,0.2,0,0.2l0,0.1c0,0,0,0.1,0,0.1l0,0.2l0,0.1l0,0l0,0l0,0.2
				c0,0.1,0,0.2-0.1,0.3c-0.4,1.6-2.1,2.9-4,2.7l-0.1,0l0,0l0,0l-0.2,0c-0.1,0-0.2,0-0.4-0.1l-0.4-0.1l-0.3-0.1
				c-0.4-0.2-0.9-0.4-1.3-0.8c-0.4-0.3-0.7-0.7-1-1.1c-0.3-0.4-0.5-0.9-0.6-1.4l-0.1-0.4c0-0.1,0-0.3-0.1-0.4l0-0.2l0-0.2l0-0.2
				l0-0.1c0,0,0-0.1,0-0.1l0-0.5l0.1-0.4c0-0.3,0.1-0.5,0.2-0.8c0.3-1.1,0.9-2,1.7-2.8c0.8-0.8,1.8-1.4,2.9-1.7l0.4-0.1l0.2-0.1
				c0.1,0,0.1,0,0.2,0l0.4-0.1c0.1,0,0.3,0,0.4,0l0.2,0l0.1,0l0.1,0l0.5,0l0.1,0l0.1,0l0,0l0.2,0l0.4,0.1c1.1,0.2,2.2,0.7,3.1,1.3
				c0.9,0.6,1.8,1.4,2.4,2.3c0.6,0.9,1.1,1.9,1.4,3c0.1,0.3,0.1,0.5,0.2,0.8l0.1,0.4l0,0.2l0,0.2c0,0.3,0,0.5,0,0.8
				c0,0.3,0,0.6,0,0.8l0,0.1c0,0,0,0,0,0l0,0l0,0.1l0,0.2l-0.1,0.4c0,0.3-0.1,0.5-0.1,0.8c-0.1,0.2-0.1,0.5-0.2,0.7
				c-0.1,0.2-0.2,0.5-0.3,0.7c-0.2,0.5-0.4,0.9-0.6,1.3c-0.1,0.2-0.2,0.4-0.4,0.6c-0.1,0.2-0.2,0.4-0.4,0.6
				c-0.9,1.3-2.1,2.3-3.2,3.1c0,0,0,0,0,0c-0.5,0.1-1.1,0.3-1.6,0.5c-0.3,0.1-0.5,0.2-0.8,0.3c-0.2,0.1-0.5,0.2-0.7,0.3
				c-0.2,0.1-0.4,0.2-0.7,0.3c-0.2,0.1-0.4,0.2-0.6,0.3c-0.2,0.1-0.4,0.2-0.5,0.3c-0.2,0.1-0.3,0.2-0.4,0.4
				c-0.1,0.1-0.3,0.2-0.4,0.3c-0.1,0.1-0.2,0.2-0.3,0.3c-0.3,0.4-0.5,0.6-0.5,0.6s0.3-0.1,0.7-0.4c0.1-0.1,0.2-0.1,0.4-0.2
				c0.1-0.1,0.3-0.1,0.4-0.2c0.2-0.1,0.3-0.1,0.5-0.2c0.2-0.1,0.4-0.1,0.6-0.2c0.4-0.2,0.8-0.3,1.3-0.4c0.5-0.1,1-0.2,1.5-0.4
				c0.5-0.1,1.1-0.2,1.6-0.4c0.5-0.1,1.1-0.3,1.7-0.4c0.6-0.1,1.1-0.3,1.7-0.5c0.6-0.2,1.1-0.4,1.6-0.6c0.5-0.2,1-0.5,1.4-0.8
				c0.4-0.3,0.8-0.6,1.1-0.9c0.3-0.3,0.5-0.7,0.6-1c0.1-0.3,0.2-0.6,0.2-0.9c0-0.3-0.1-0.4-0.1-0.6c0-0.1-0.1-0.2-0.1-0.2
				s0,0.1,0,0.2c0,0.1,0,0.3-0.1,0.5c-0.1,0.2-0.2,0.5-0.4,0.7c-0.2,0.2-0.4,0.5-0.7,0.7c-0.6,0.4-1.5,0.8-2.5,1.1
				c-0.7,0.2-1.5,0.5-2.4,0.7c0.6-0.5,1.2-1.1,1.7-1.7c0.2-0.2,0.3-0.4,0.5-0.6c0.1-0.2,0.3-0.4,0.4-0.7c0.3-0.5,0.5-0.9,0.7-1.4
				c0.1-0.3,0.2-0.5,0.3-0.8c0.1-0.3,0.2-0.5,0.3-0.8c0.1-0.3,0.2-0.6,0.2-0.8l0.1-0.4l0-0.2l0-0.1l0,0l0-0.1l0-0.1
				c0-0.3,0.1-0.6,0.1-0.8c0-0.3,0-0.6,0-0.9v-0.2l0-0.2l0-0.5c0-0.3-0.1-0.6-0.2-0.9c-0.3-1.2-0.8-2.5-1.5-3.6
				c-1.4-2.2-3.8-4-6.6-4.6L193.4-248.5z"/>
		</g>
		<g>
			<path class="st1" d="M33.5-214.5c1.1,0.4,2.3,0.6,3.4,0.9c1.1,0.2,2.3,0.3,3.3,0.4c1.1,0,2.1-0.1,3.1-0.3c0.9-0.2,1.8-0.6,2.4-1
				c0.7-0.4,1.1-0.9,1.5-1.4c0.3-0.4,0.5-0.8,0.6-1.1c0.1-0.3,0.2-0.4,0.2-0.4s-0.1,0.1-0.3,0.3c-0.2,0.2-0.5,0.5-0.9,0.8
				c-0.4,0.3-0.9,0.5-1.6,0.7c-0.6,0.2-1.4,0.3-2.2,0.3c-1.6,0-3.5-0.4-5.6-1c-2-0.6-4.2-1.4-6.4-2.2c-1.1-0.4-2.2-0.8-3.3-1.2
				c-1.1-0.4-2.2-0.7-3.3-1c-0.5-0.2-1.1-0.3-1.6-0.4c-0.5-0.1-1-0.3-1.6-0.3c-0.5-0.1-1-0.2-1.5-0.2c-0.5-0.1-1-0.1-1.4-0.1
				c-0.5,0-0.9-0.1-1.3-0.1c-1,0.1-2.1,0.1-3.1,0.4c-1,0.2-1.6,0.4-1.6,0.4s0,0,0.1,0c-0.1,0-0.2,0-0.2,0l0,0.6c0,0,0.6,0,1.8,0.1
				c0.6,0,1.3,0.2,2.2,0.3c0.8,0.1,1.8,0.4,2.8,0.7c2.1,0.7,4.5,1.8,7,3.6c2.4,1.8,4.8,4.3,6.6,7.5c0.2,0.4,0.4,0.8,0.6,1.2
				c0.2,0.4,0.4,0.8,0.6,1.3c0.3,0.9,0.7,1.8,0.9,2.8c0.1,0.5,0.3,1,0.3,1.4c0.1,0.5,0.1,1,0.2,1.5c0.1,0.5,0.1,1,0.1,1.5l0,0.8
				l0,0.4l0,0.2l0,0c0,0,0,0,0,0l0,0.1c0,0.6-0.1,1.1-0.1,1.7c-0.1,0.5-0.2,1-0.2,1.5l-0.1,0.4l-0.1,0.4l-0.2,0.8
				c-0.1,0.5-0.3,1-0.5,1.5c-0.7,2-1.9,3.9-3.3,5.5c-1.4,1.6-3.2,3-5.2,4c-2,1-4.2,1.6-6.4,1.8l-0.8,0l-0.4,0l0,0l-0.1,0l-0.2,0
				l-0.9,0l-0.2,0l-0.2,0l-0.4-0.1c-0.3,0-0.5-0.1-0.8-0.1l-0.8-0.2c-0.1,0-0.3-0.1-0.4-0.1l-0.4-0.1l-0.8-0.3
				c-2-0.9-3.9-2.2-5.2-3.9c-1.4-1.7-2.4-3.7-2.7-5.9c-0.1-0.5-0.2-1.1-0.2-1.6l0-0.7l0-1c0-0.1,0-0.2,0-0.2l0-0.2l0.1-0.3l0-0.3
				l0.1-0.4c0.1-0.2,0.1-0.5,0.2-0.7l0.3-0.7c0.4-0.9,0.9-1.8,1.5-2.6c0.6-0.8,1.4-1.4,2.2-2c0.8-0.6,1.7-0.9,2.7-1.2l0.7-0.2
				l0.7-0.1c0.2-0.1,0.5,0,0.7-0.1l0.4,0l0.1,0h0l0.2,0c3.8,0,6.7,3,7.2,6.2c0,0.2,0.1,0.4,0.1,0.6l0,0.3l0,0.1l0,0l0,0.1l0,0.4
				c0,0.1,0,0.2,0,0.2l0,0.1c0,0.1,0,0.2-0.1,0.4c-0.2,0.7-0.4,1.3-0.8,1.9c-0.7,1-1.7,1.7-2.7,2c0.5-0.3,0.9-0.6,1.3-1
				c2.3-2.4,2.2-6.2-0.2-8.6c-2.1-2-5.2-2.2-7.5-0.7c-0.9,0.5-1.7,1.1-2.4,2c-0.6,0.8-1.2,1.8-1.4,2.9c-0.3,1.2-0.3,2.3-0.1,3.4
				c0.3,2.2,1.6,4.4,3.6,5.9c1,0.7,2.2,1.3,3.5,1.5c0.3,0.1,0.7,0.1,1.1,0.2l0.1,0l0.1,0l0.2,0l0.3,0l0.2,0l0.1,0l0.1,0l0.2,0l0.5,0
				c0.3,0,0.6-0.1,0.9-0.2c2.5-0.5,4.9-2,6.5-4.3c0.8-1.1,1.4-2.4,1.7-3.8c0.1-0.3,0.1-0.8,0.2-1.2l0-0.3c0-0.1,0-0.1,0-0.2l0-0.4
				l0-0.2v-0.2l0-0.1l0-0.1l0-0.5c0-0.3-0.1-0.7-0.1-1c-0.4-2.8-1.9-5.4-4.1-7.3c-1.1-1-2.4-1.7-3.8-2.3c-0.4-0.1-0.7-0.2-1.1-0.3
				l-1.1-0.2c-0.4-0.1-0.8-0.1-1.2-0.2c-0.2,0-0.4,0-0.5,0l-0.4,0l-0.2,0h-0.2l-0.1,0l-0.1,0l-0.5,0c-0.4,0-0.7,0-1.1,0.1l-1.1,0.2
				c-0.4,0.1-0.7,0.2-1.1,0.3c-1.4,0.5-2.8,1.1-4,1.9c-1.2,0.9-2.3,1.9-3.3,3c-0.9,1.2-1.7,2.5-2.2,3.9L0.6-197
				c-0.1,0.4-0.2,0.7-0.3,1.1l-0.1,0.6l-0.1,0.6l-0.1,0.6l0,0.3c0,0.1,0,0.2,0,0.2l0,1v0.2l0,0.1l0,0.3l0,0.5c0,0.7,0.2,1.5,0.3,2.2
				c0.6,2.9,2,5.6,3.9,7.8c1.9,2.2,4.4,3.9,7.1,5l1,0.3l0.5,0.2c0.2,0,0.4,0.1,0.5,0.1l1.1,0.2c0.4,0.1,0.8,0.1,1.1,0.1l0.6,0.1
				l0.3,0l0.2,0l1,0l0.2,0l0.1,0l0.2,0l0.1,0l0.5,0l1-0.1c5.6-0.6,10.6-3.5,13.9-7.6c1.7-2,2.9-4.3,3.7-6.7c0.2-0.6,0.4-1.2,0.5-1.8
				l0.2-0.9l0.1-0.4l0.1-0.5c0.1-0.6,0.2-1.3,0.2-1.9c0-0.6,0-1.1,0-1.7l0-0.1v-0.1l0-0.1l0-0.2l0-0.4l-0.1-0.9
				c-0.1-0.6-0.1-1.1-0.2-1.7c-0.1-0.6-0.2-1.1-0.3-1.6c-0.1-0.5-0.3-1.1-0.5-1.6c-0.3-1.1-0.7-2-1.1-3c-0.2-0.5-0.5-0.9-0.7-1.4
				c-0.3-0.4-0.5-0.9-0.8-1.3c-1.9-3-4.3-5.4-6.7-7.1c0.7,0.3,1.4,0.6,2.2,0.8C31.2-215.3,32.3-214.8,33.5-214.5z"/>
			<path class="st1" d="M37.2-224.4c-0.8,0-1.6,0.1-2.4,0.1c-0.4,0-0.8,0.1-1.1,0.1c-0.4,0.1-0.7,0.1-1.1,0.2
				c-0.3,0.1-0.7,0.1-1,0.2c-0.3,0.1-0.6,0.2-0.9,0.3c-0.3,0.1-0.6,0.2-0.8,0.3c-0.3,0.1-0.5,0.2-0.7,0.3c-0.2,0.1-0.4,0.2-0.6,0.3
				c-0.2,0.1-0.3,0.2-0.5,0.3c-0.6,0.4-0.9,0.6-0.9,0.6s0.4-0.1,1.1-0.3c0.2,0,0.4-0.1,0.6-0.1c0.2,0,0.4-0.1,0.7-0.1
				c0.2,0,0.5-0.1,0.7-0.1c0.3,0,0.6-0.1,0.8-0.1c0.6-0.1,1.2-0.1,1.9-0.1c0.7,0,1.4,0,2.1,0c0.8,0,1.5,0,2.3,0c0.8,0,1.6,0,2.4,0
				c0.8,0,1.6,0,2.5-0.1c0.8-0.1,1.6-0.2,2.4-0.3c0.8-0.1,1.5-0.3,2.2-0.6c0.7-0.2,1.3-0.5,1.8-0.9c0.5-0.4,0.9-0.8,1.2-1.2
				c0.3-0.4,0.4-0.8,0.5-1.2c0.1-0.3,0.1-0.6,0.1-0.8c0-0.2,0-0.3,0-0.3s0,0.1-0.1,0.3c-0.1,0.2-0.2,0.4-0.3,0.7
				c-0.2,0.3-0.4,0.6-0.8,0.8c-0.3,0.3-0.8,0.5-1.3,0.7c-1,0.4-2.3,0.6-3.8,0.7c-1.5,0.1-3,0.1-4.7,0.1
				C38.8-224.4,38-224.4,37.2-224.4z"/>
			<path class="st1" d="M31.8-248.5l-0.3-0.1l0,0l-0.1,0l-0.1,0l-0.1,0l-0.5,0l-0.1,0h-0.1l-0.3,0c-0.2,0-0.4,0-0.6,0l-0.5,0.1
				c-0.1,0-0.2,0-0.3,0l-0.3,0.1l-0.5,0.1c-1.4,0.4-2.8,1.1-3.9,2.1c-1.1,1-1.9,2.3-2.4,3.7c-0.1,0.4-0.2,0.7-0.3,1.1l-0.1,0.3
				l0,0.1l0,0.1l0,0.1l0,0.5c0,0,0,0.1,0,0.1l0,0.2v0.3l0,0.3l0,0.3c0,0.2,0,0.4,0.1,0.6l0.1,0.6c0.2,0.7,0.5,1.4,0.9,2.1
				c0.4,0.6,0.9,1.2,1.5,1.7c0.6,0.5,1.2,0.9,1.9,1.2c0.2,0.1,0.3,0.1,0.5,0.2l0.5,0.2c0.2,0.1,0.4,0.1,0.5,0.1l0.3,0.1l0.1,0l0,0
				l0.1,0l0.1,0l0.2,0c0.1,0,0.1,0,0.3,0c0.2,0,0.4,0,0.6,0l0.6-0.1c0.2,0,0.4-0.1,0.6-0.1c0.7-0.2,1.4-0.5,2-0.9
				c1.2-0.8,2.1-2.1,2.5-3.5c0.1-0.2,0.1-0.3,0.1-0.5l0-0.3l0-0.1l0,0l0-0.1l0-0.1l0-0.2c0,0,0-0.1,0-0.1v-0.2c0-0.2,0-0.4,0-0.6
				c-0.1-0.7-0.3-1.4-0.6-2c-0.7-1.2-1.8-2.1-3.1-2.5c-0.2,0-0.3-0.1-0.5-0.1l-0.2,0l-0.1,0l-0.1,0l0,0l-0.1,0l-0.2,0l-0.1,0l0,0
				l-0.1,0c-0.2,0-0.4,0-0.6,0c-0.7,0.1-1.3,0.3-1.8,0.6c-1.1,0.6-1.9,1.7-2.1,2.8c-0.1,0.5-0.2,1.1-0.1,1.7
				c0.1,0.6,0.3,1.1,0.6,1.5c0.3,0.5,0.7,0.9,1.1,1.1c1.1,0.9,2.7,1,3.8,0.1c1.3-1,1.6-3,0.6-4.3c-0.2-0.2-0.4-0.4-0.6-0.6
				c0.5,0.2,1,0.6,1.3,1.2c0.2,0.3,0.3,0.6,0.3,1c0,0.1,0,0.2,0,0.2l0,0.1c0,0,0,0.1,0,0.1l0,0.2l0,0.1l0,0l0,0l0,0.2
				c0,0.1,0,0.2-0.1,0.3c-0.4,1.6-2.1,2.9-4,2.7l-0.1,0l0,0l0,0l-0.2,0c-0.1,0-0.2,0-0.4-0.1l-0.4-0.1l-0.3-0.1
				c-0.4-0.2-0.9-0.4-1.3-0.8c-0.4-0.3-0.7-0.7-1-1.1c-0.3-0.4-0.5-0.9-0.6-1.4l-0.1-0.4c0-0.1,0-0.3-0.1-0.4l0-0.2l0-0.2l0-0.2
				l0-0.1c0,0,0-0.1,0-0.1l0-0.5l0.1-0.4c0-0.3,0.1-0.5,0.2-0.8c0.3-1.1,0.9-2,1.7-2.8c0.8-0.8,1.8-1.4,2.9-1.7l0.4-0.1l0.2-0.1
				c0.1,0,0.1,0,0.2,0l0.4-0.1c0.1,0,0.3,0,0.4,0l0.2,0l0.1,0l0.1,0l0.5,0l0.1,0l0.1,0l0,0l0.2,0l0.4,0.1c1.1,0.2,2.2,0.7,3.1,1.3
				c0.9,0.6,1.8,1.4,2.4,2.3c0.6,0.9,1.1,1.9,1.4,3c0.1,0.3,0.1,0.5,0.2,0.8l0.1,0.4l0,0.2l0,0.2c0,0.3,0,0.5,0,0.8
				c0,0.3,0,0.6,0,0.8l0,0.1c0,0,0,0,0,0l0,0l0,0.1l0,0.2l-0.1,0.4c0,0.3-0.1,0.5-0.1,0.8c-0.1,0.2-0.1,0.5-0.2,0.7
				c-0.1,0.2-0.2,0.5-0.3,0.7c-0.2,0.5-0.4,0.9-0.6,1.3c-0.1,0.2-0.2,0.4-0.4,0.6c-0.1,0.2-0.2,0.4-0.4,0.6
				c-0.9,1.3-2.1,2.3-3.2,3.1c0,0,0,0,0,0c-0.5,0.1-1.1,0.3-1.6,0.5c-0.3,0.1-0.5,0.2-0.8,0.3c-0.2,0.1-0.5,0.2-0.7,0.3
				c-0.2,0.1-0.4,0.2-0.7,0.3c-0.2,0.1-0.4,0.2-0.6,0.3c-0.2,0.1-0.4,0.2-0.5,0.3c-0.2,0.1-0.3,0.2-0.4,0.4
				c-0.1,0.1-0.3,0.2-0.4,0.3c-0.1,0.1-0.2,0.2-0.3,0.3c-0.3,0.4-0.5,0.6-0.5,0.6s0.3-0.1,0.7-0.4c0.1-0.1,0.2-0.1,0.4-0.2
				c0.1-0.1,0.3-0.1,0.4-0.2c0.2-0.1,0.3-0.1,0.5-0.2c0.2-0.1,0.4-0.1,0.6-0.2c0.4-0.2,0.8-0.3,1.3-0.4c0.5-0.1,1-0.2,1.5-0.4
				c0.5-0.1,1.1-0.2,1.6-0.4c0.5-0.1,1.1-0.3,1.7-0.4c0.6-0.1,1.1-0.3,1.7-0.5c0.6-0.2,1.1-0.4,1.6-0.6c0.5-0.2,1-0.5,1.4-0.8
				c0.4-0.3,0.8-0.6,1.1-0.9c0.3-0.3,0.5-0.7,0.6-1c0.1-0.3,0.2-0.6,0.2-0.9c0-0.3-0.1-0.4-0.1-0.6c0-0.1-0.1-0.2-0.1-0.2
				s0,0.1,0,0.2c0,0.1,0,0.3-0.1,0.5c-0.1,0.2-0.2,0.5-0.4,0.7c-0.2,0.2-0.4,0.5-0.7,0.7c-0.6,0.4-1.5,0.8-2.5,1.1
				c-0.7,0.2-1.5,0.5-2.4,0.7c0.6-0.5,1.2-1.1,1.7-1.7c0.2-0.2,0.3-0.4,0.5-0.6c0.1-0.2,0.3-0.4,0.4-0.7c0.3-0.5,0.5-0.9,0.7-1.4
				c0.1-0.3,0.2-0.5,0.3-0.8c0.1-0.3,0.2-0.5,0.3-0.8c0.1-0.3,0.2-0.6,0.2-0.8l0.1-0.4l0-0.2l0-0.1l0,0l0-0.1l0-0.1
				c0-0.3,0.1-0.6,0.1-0.8c0-0.3,0-0.6,0-0.9v-0.2l0-0.2l0-0.5c0-0.3-0.1-0.6-0.2-0.9c-0.3-1.2-0.8-2.5-1.5-3.6
				c-1.4-2.2-3.8-4-6.6-4.6L31.8-248.5z"/>
			<path class="st1" d="M52.8-191.7c-0.7-0.4-1.5-0.6-2.2-0.6c-0.3-0.4-0.5-0.8-0.7-1.2c-2.5-4.8-1.7-9.5,0.9-14.1
				c0.9-1.7,2.1-3.8,3.6-5.1c-3.4,2.6-6.6,5.6-8.8,9.3c-1,1.6-1.8,3.2-2.3,5c-0.5,1.6-0.7,3.5-0.6,5.1c0,1.5,0.4,3.2,0.8,4.6
				c0.7,2.3,2,4.7,4.2,5.8c0,0,0.1,0.1,0.1,0.1c2.5,1.4,5.6,0.5,7-2C56.2-187.2,55.3-190.4,52.8-191.7z"/>
			<path class="st1" d="M89.9-226.5c-1.7-0.9-3.8-1.8-5.7-2.2c-2.1-0.4-4.3-0.5-6.5-0.4c-5.1,0.3-9.9,2-14.5,4.1c2.1-1,5-1,7.3-1
				c6.2-0.1,11.5,1.6,15.1,6.8c1.9,2.6,3.1,6.4,6.1,7.9c2.6,1.3,5.5,0.1,6.1-2.9c0.7-3.4-1.2-6.7-3.6-9
				C93-224.4,91.5-225.7,89.9-226.5z"/>
			<path class="st1" d="M101-232.1c-1.2-1-2.7-2.1-4.2-2.7c-1.6-0.7-3.5-1.3-5.2-1.5c-1.9-0.2-3.9-0.1-5.8,0.2
				c-4.5,0.7-8.7,2.5-12.7,4.7c1.9-1,4.4-1.2,6.5-1.4c5.5-0.6,10.4,0.6,14.1,5c1.9,2.2,3.2,5.5,6.1,6.7c2.5,1,4.9-0.3,5.3-3
				C105.3-227.5,103.3-230.2,101-232.1z"/>
			<path class="st1" d="M51.1-243.3c0.3,0.1,0.6,0.2,0.9,0.3c0.1,0,0.1,0,0.2,0c0,0,0.1,0,0.1,0c0.5,0.1,1,0.1,1.5,0
				c0,0,0.1,0,0.1,0l0,0c0.6-0.1,1.2-0.4,1.7-0.9c1.6-1.4,1.7-3.9,0.3-5.5c-1.4-1.6-3.9-1.7-5.5-0.3c-0.8,0.8-1.3,1.8-1.3,2.8
				c-0.3-0.8-0.4-1.6-0.2-2.6c0.2-1.2,0.9-2.5,2-3.4c1.1-0.9,2.6-1.5,4.1-1.5c0.2,0,0.3,0,0.5,0l0.7,0.1c0,0,0,0,0,0c0,0,0,0-0.1,0
				l0,0l0,0l0.1,0l0.1,0l0.3,0.1c0.2,0.1,0.4,0.1,0.5,0.2c0.3,0.2,0.7,0.3,1,0.6l0.5,0.3l0.5,0.4c0.6,0.6,1.2,1.3,1.7,2
				c0.2,0.4,0.5,0.7,0.7,1.2l0.4,0.7l0.1,0.2l0.1,0.1l0.1,0.3c1.5,3.4,1.7,7.3,1.1,10.8c-0.3,1.8-0.8,3.5-1.5,5
				c-0.4,1-0.9,1.9-1.4,2.7c0.2-0.4,0.4-0.8,0.6-1.2c0.3-0.7,0.6-1.5,0.7-2.4c0.2-0.8,0.2-1.8,0.1-2.7c-0.2-0.9-0.5-1.9-1.2-2.7
				c-0.2-0.2-0.3-0.4-0.5-0.6c-0.2-0.2-0.3-0.3-0.5-0.4c-0.5-0.3-0.9-0.6-1.4-0.8c-0.9-0.4-1.9-0.5-2.9-0.4
				c-0.9,0.1-1.9,0.4-2.6,0.9c-0.7,0.5-1.3,1.1-1.7,1.8c-0.1,0.2-0.2,0.3-0.2,0.5c-0.1,0.2-0.1,0.4-0.2,0.5c-0.1,0.3-0.1,0.7-0.1,1
				c0,0.6,0.1,1.1,0.2,1.5c0.1,0.3,0.2,0.5,0.3,0.7c0,0,0.1,0.1,0.1,0.1c0,0,0,0,0,0.1c0.1,0.2,0.2,0.3,0.2,0.3s0,0,0,0
				c0,0,0,0,0,0.1c1,1.1,2.8,1.2,3.9,0.2c1.1-1,1.2-2.8,0.2-3.9c-0.7-0.8-1.8-1.1-2.7-0.8c0.3-0.2,0.5-0.4,0.9-0.6
				c0.6-0.3,1.2-0.5,1.9-0.5c0.7,0,1.5,0,2.2,0.3c0.4,0.1,0.7,0.3,1,0.4c0.1,0.1,0.3,0.2,0.5,0.4c0.1,0.1,0.3,0.2,0.4,0.3
				c0.6,0.5,1,1.2,1.3,2c0.3,0.8,0.4,1.6,0.3,2.4c0,0.8-0.2,1.6-0.4,2.3c-0.2,0.7-0.6,1.4-0.9,2c-0.3,0.6-0.6,1.1-0.9,1.6
				c-0.1,0.2-0.2,0.3-0.3,0.5c-0.1,0.1-0.2,0.2-0.3,0.4c-0.2,0.3-0.4,0.5-0.6,0.8c-0.2,0.2-0.4,0.4-0.6,0.7
				c-0.8,0.9-1.6,1.5-2.3,2.1c-0.6,0.6-1.2,1-1.5,1.3c-0.4,0.3-0.5,0.5-0.5,0.5s0.2-0.1,0.6-0.4c0.4-0.3,0.9-0.7,1.6-1.2
				c0.7-0.5,1.5-1.2,2.4-2c0.2-0.2,0.5-0.4,0.7-0.6c0.2-0.2,0.4-0.5,0.7-0.7c0.5-0.5,1-1,1.4-1.6c0.9-1.2,1.8-2.6,2.6-4.1
				c0.8-1.6,1.4-3.3,1.9-5.1c0.9-3.7,1.1-7.9-0.4-11.9c-0.7-1.9-1.7-3.9-3.2-5.5c-0.2-0.2-0.4-0.4-0.6-0.6l-0.7-0.5
				c-0.4-0.4-1-0.6-1.4-0.9c-0.2-0.1-0.5-0.2-0.8-0.3l-0.4-0.1l-0.2-0.1l-0.1,0l-0.1,0l0,0l-0.1,0l-0.7-0.1l-0.9,0
				c-2.2,0.1-4.2,1.1-5.5,2.5c-0.7,0.7-1.2,1.5-1.6,2.3c-0.4,0.8-0.6,1.7-0.6,2.6c-0.1,1.7,0.5,3.2,1.3,4.2
				C49.2-244.3,50.3-243.6,51.1-243.3z M56.2-254.2C56.2-254.2,56.2-254.2,56.2-254.2L56.2-254.2z"/>
			<path class="st1" d="M122-230.4l-0.1-0.9c-0.1-0.3-0.1-0.6-0.2-0.9c-0.6-2.3-1.8-4.3-3.2-6c-1.4-1.8-3.1-3.3-4.9-4.5
				c-1.8-1.2-3.8-2.1-5.7-2.7c-1.9-0.6-3.9-1-5.7-1.2c-1.8-0.2-3.6-0.1-5.2,0c-0.8,0.1-1.6,0.2-2.3,0.4c-0.4,0.1-0.7,0.1-1,0.2
				c-0.3,0.1-0.7,0.2-1,0.3c-1.3,0.3-2.3,0.8-3.2,1.1c-0.9,0.3-1.5,0.6-2,0.8c-0.5,0.2-0.7,0.3-0.7,0.3s0.2-0.1,0.7-0.2
				c0.5-0.2,1.2-0.4,2-0.7c0.9-0.3,2-0.6,3.2-0.9c0.3-0.1,0.6-0.1,1-0.2c0.3,0,0.7-0.1,1-0.1c0.7-0.1,1.4-0.2,2.2-0.2
				c1.6-0.1,3.3,0,5,0.3c1.8,0.3,3.6,0.8,5.4,1.5c3.6,1.4,7.1,3.8,9.3,7.1l0.2,0.3l0.1,0.1l0.1,0.2l0.4,0.7c0.3,0.5,0.4,0.9,0.7,1.3
				c0.4,0.9,0.7,1.8,0.8,2.7l0.1,0.7l0,0.7c0.1,0.4,0,0.8,0,1.3c0,0.2-0.1,0.4-0.1,0.6l-0.1,0.3l0,0.1l0,0.1l0,0l0,0
				c0.1-0.1,0,0,0-0.1l-0.3,0.7c-0.1,0.1-0.2,0.3-0.2,0.5c-0.8,1.4-2.2,2.4-3.7,2.9c-1.5,0.5-3,0.4-4.2-0.1c-0.9-0.4-1.7-1-2.2-1.7
				c1,0.6,2.1,0.8,3.3,0.4c2.2-0.6,3.5-3,2.9-5.2c-0.6-2.2-3-3.5-5.2-2.9c-0.7,0.2-1.3,0.6-1.8,1.1l0,0c0,0,0,0,0,0.1
				c-0.4,0.4-0.7,0.9-0.9,1.4c0,0,0,0.1,0,0.1c0,0.1-0.1,0.1-0.1,0.2c-0.1,0.3-0.2,0.6-0.3,1c-0.2,1-0.2,2.3,0.4,3.6
				c0.5,1.3,1.6,2.7,3.1,3.6c0.8,0.5,1.7,0.8,2.7,0.9c1,0.1,2,0,3-0.2c2-0.5,4-1.7,5.4-3.7c0.2-0.3,0.3-0.6,0.5-0.8l0.3-0.7l0-0.1
				l0,0l0-0.1l0-0.1l0.1-0.2l0.1-0.4c0.1-0.3,0.2-0.6,0.2-0.9C122-229.2,122.1-229.8,122-230.4z"/>
			<path class="st1" d="M78.8-269.6c-3.7-3.7-9.6-3.7-13.3-0.1c-3.7,3.7-3.7,9.6-0.1,13.3c1,1.1,2.3,1.8,3.6,2.3
				c0.2,0.9,0.5,1.7,0.6,2.5c1.9,9.7-1.9,17.5-8.8,24.3c-2.5,2.5-5.6,5.7-9,7.1c7.3-2.9,14.4-6.6,20.3-11.9c2.5-2.3,4.8-4.8,6.6-7.6
				c1.6-2.5,2.9-5.8,3.7-8.7c0.7-2.7,0.9-5.8,0.9-8.6c0-4.5-1.1-9.3-4.4-12.4C78.9-269.4,78.9-269.5,78.8-269.6z"/>
			<path class="st1" d="M82-197.6c3.3,0.8,6.7-1.2,7.6-4.5c0-0.1,0-0.1,0-0.2c0.8-2.9-0.2-6-1.7-8.6c-0.9-1.6-2.1-3.3-3.4-4.6
				c-1.4-1.4-3.3-2.8-5.1-3.7c-2-1-4.2-1.7-6.4-2.1c-5.1-1.1-10.4-0.7-15.6,0.1c2.4-0.4,5.2,0.4,7.5,1c6.2,1.6,11,4.7,13.2,10.9
				c0.2,0.5,0.4,1.1,0.5,1.7c-0.6,0.7-1,1.6-1.3,2.5C76.6-201.9,78.6-198.5,82-197.6z"/>
			<path class="st1" d="M94.5-197.9c-0.1-0.1-0.1-0.2-0.1-0.2l0,0c-0.4-0.7-0.9-1.3-1.7-1.6c-1.9-0.9-4.3-0.1-5.2,1.8
				c-0.9,1.9-0.1,4.3,1.8,5.2c1.6,0.8,3.4,0.4,4.5-0.8c-0.1,0.4-0.3,0.9-0.5,1.3c-0.5,1.1-1.2,2.3-2.3,3.2c-1.1,1-2.4,1.8-4,2.2
				c-1.6,0.4-3.4,0.6-5.1,0.2c-1.7-0.4-3.4-1.4-4.8-2.6c-1.4-1.2-2.6-2.8-3.5-4.5c-0.2-0.4-0.4-0.9-0.6-1.3
				c-0.2-0.4-0.3-0.8-0.5-1.3l-0.2-0.7l-0.2-0.7c-0.1-0.5-0.2-1-0.3-1.5c-0.4-2-0.7-4-1.2-5.9c-0.5-2-1.2-3.8-2.3-5.6l-0.2-0.3
				l-0.2-0.3l-0.4-0.5l-0.4-0.5l-0.2-0.2l0-0.1l-0.1-0.1l0,0l0,0l-0.1-0.1c-0.3-0.3-0.7-0.6-1-0.9c-0.3-0.3-0.7-0.5-1-0.8
				c-0.3-0.3-0.7-0.5-1-0.7c-0.3-0.2-0.7-0.4-1-0.6c-0.7-0.3-1.4-0.6-2-0.8c-1.3-0.4-2.4-0.6-3.4-0.7c-0.5,0-0.9-0.1-1.3-0.1
				c-0.4,0-0.7,0-0.9,0.1c-0.5,0.1-0.8,0.1-0.8,0.1s0.2,0.1,0.7,0.3c0.2,0.1,0.5,0.2,0.9,0.3c0.3,0.1,0.7,0.3,1.1,0.5
				c0.8,0.4,1.8,0.8,2.8,1.4c1,0.6,2.1,1.4,3.1,2.3c0.2,0.3,0.5,0.5,0.8,0.7c0.2,0.3,0.5,0.5,0.7,0.8l0.1,0.1l0,0l0.2,0.3l0.4,0.5
				l0.4,0.5l0.2,0.3l0.1,0.3c0.7,1.3,1.3,2.9,1.9,4.7c0.5,1.8,1,3.7,1.6,5.7c0.1,0.5,0.3,1,0.5,1.5l0.2,0.8l0.3,0.8
				c0.2,0.5,0.4,1,0.7,1.5c0.3,0.5,0.5,1,0.8,1.5c1.1,1.9,2.6,3.6,4.3,4.9c1.7,1.3,3.7,2.4,5.7,2.8c2.1,0.4,4.1,0.1,5.9-0.4
				c1.8-0.6,3.4-1.5,4.5-2.7c1.2-1.2,1.9-2.5,2.4-3.7c0.5-1.2,0.7-2.4,0.7-3.3c0-1-0.2-1.7-0.3-2.2
				C94.7-197.6,94.6-197.8,94.5-197.9z"/>
		</g>
	</g>
</pattern>
<g id="background">
	<rect x="0" y="0" class="st2" width="800" height="800"/>
</g>
<g id="objects">
	<g>
		<g>
			<g>
				<g>
					<g>
						<rect x="0" y="5.3" class="st3" width="800" height="794.7"/>
					</g>
					<rect x="0" y="5.3" class="st4" width="800" height="794.7"/>
				</g>
			</g>
		</g>
	</g>
</g>
</svg>
