<?xml version="1.0" encoding="utf-8"?>
<!-- Generator: Adobe Illustrator 19.2.1, SVG Export Plug-In . SVG Version: 6.00 Build 0)  -->
<svg version="1.1" id="_x31_" xmlns="http://www.w3.org/2000/svg" xmlns:xlink="http://www.w3.org/1999/xlink" x="0px" y="0px"
	 viewBox="0 0 387.3 183.5" style="enable-background:new 0 0 387.3 183.5;" xml:space="preserve">
<style type="text/css">
	.st0{fill:#333333;}
	.st1{fill:#242424;}
	.st2{fill:#FBA918;}
	.st3{fill:#FFC706;}
	.st4{fill:#F78D1D;}
	.st5{fill:#1A1A1A;}
	.st6{fill:#212121;}
	.st7{fill:#0F0F0F;}
	.st8{fill:none;}
	.st9{fill:#FFFFFF;stroke:#FFFFFF;stroke-width:3;stroke-miterlimit:10;}
	.st10{font-family:'KozGoPr6N-Regular-83pv-RKSJ-H';}
	.st11{font-size:51px;}
</style>
<g>
	<path class="st0" d="M102.8,12.4c-45,0-81.5,35.1-81.5,78.5c0,43.3,36.5,78.5,81.5,78.5s81.5-35.1,81.5-78.5
		C184.3,47.6,147.8,12.4,102.8,12.4z M105.1,158.9c-27.4,0-50.9-16.1-60.8-39.1c-0.3-0.5-0.6-1-0.8-1.5c-0.9-1.8-1.8-3.7-2.5-5.7
		c-2.4-6.3-3.7-13-3.9-20l0,0c0-0.4,0-0.8,0-1.2c0-0.2,0-0.4,0-0.6l0,0l0,0c0-0.6,0-1.1,0-1.7l0,0c0.5-17.9,8.7-34,21.5-45.2
		c11.7-10.2,27.2-16.4,44.2-16.4S135.3,33.8,147,44c7.1,6.2,12.8,13.9,16.5,22.6c4.7,8.7,7.3,18.5,7.3,29
		C170.8,130.6,141.4,158.9,105.1,158.9z"/>
	<path class="st1" d="M168.5,89.2L168.5,89.2c0,0.6,0,1.1,0,1.7l0,0l0,0c0,0.2,0,0.4,0,0.6c0,0.4,0,0.8,0,1.2l0,0
		c-0.2,7-1.6,13.7-3.9,20c-0.7,1.9-1.6,3.8-2.5,5.7c-0.9,1.8-1.9,3.6-3,5.4c-5.5,8.7-13.1,16-22.1,21.3c-2.7,1.6-5.6,3-8.5,4.2
		c-7.9,3.2-16.5,5-25.6,5s-17.7-1.8-25.6-5c-3-1.2-5.8-2.6-8.5-4.2c-9-5.3-16.7-12.6-22.1-21.3c-0.8-1.3-1.5-2.5-2.2-3.8
		c9.9,22.9,33.4,39.1,60.8,39.1c36.3,0,65.8-28.3,65.8-63.3c0-10.4-2.6-20.3-7.3-29C166.5,73.6,168.3,81.3,168.5,89.2z"/>
	<path class="st2" d="M811.6,90c0,0.2,0,0.4,0,0.6C811.6,90.4,811.6,90.2,811.6,90L811.6,90z"/>
	<path class="st2" d="M37,92.7c0.2,7,1.6,13.7,3.9,20C38.6,106.4,37.2,99.7,37,92.7L37,92.7z"/>
	<path class="st2" d="M43.5,118.3c0.3,0.5,0.5,1,0.8,1.5c0.7,1.3,1.4,2.6,2.2,3.8C45.4,122,44.4,120.2,43.5,118.3z"/>
	<path class="st2" d="M162.1,118.3c-0.9,1.8-1.9,3.6-3,5.4C160.1,122,161.1,120.2,162.1,118.3z"/>
	<path class="st2" d="M168.5,90.9L168.5,90.9c0,0.2,0,0.4,0,0.6C168.5,91.3,168.5,91.1,168.5,90.9z"/>
	<path class="st2" d="M102.8,31.1C67.6,31.1,39,57.6,37.1,91c1.9,33.4,30.5,59.9,65.6,59.9s63.8-26.5,65.6-59.9
		C166.5,57.6,137.9,31.1,102.8,31.1z"/>
	<path class="st2" d="M81.3,80.7c-5.6,0-8.9,5.2-8.9,12.1c0,7,3.4,11.8,9,11.8s8.9-5.2,8.9-12.1C90.2,86.2,87.1,80.7,81.3,80.7z"/>
	<path class="st2" d="M164.5,112.7c2.4-6.3,3.7-13,3.9-20l0,0C168.3,99.7,166.9,106.4,164.5,112.7z"/>
	<path class="st3" d="M811.6,90L811.6,90c0,0.2,0,0.4,0,0.6c0,0.4,0,0.8,0,1.2l0,0l0,0C811.6,91.2,811.6,90.6,811.6,90z"/>
	<path class="st3" d="M37.1,91c1.9-33.4,30.5-59.9,65.6-59.9s63.8,26.5,65.6,59.9c0-0.6,0.1-1.2,0.1-1.8c-0.2-8-2-15.6-5-22.6
		C159.8,58,154.1,50.3,147,44c-11.7-10.2-27.2-16.4-44.2-16.4S70.2,33.8,58.5,44C45.7,55.3,37.5,71.3,37,89.2
		C37,89.8,37.1,90.4,37.1,91z"/>
	<path class="st3" d="M168.5,92.7L168.5,92.7L168.5,92.7c0-0.4,0-0.8,0-1.2c0-0.2,0-0.4,0-0.6l0,0C168.5,91.5,168.5,92.1,168.5,92.7
		z"/>
	<path class="st4" d="M46.5,123.7c5.5,8.7,13.1,16,22.1,21.3c2.7,1.6,5.6,3,8.5,4.2c7.9,3.2,16.5,5,25.6,5s17.7-1.8,25.6-5
		c3-1.2,5.8-2.6,8.5-4.2c9-5.3,16.7-12.6,22.1-21.3c1.1-1.7,2.1-3.5,3-5.4c0.9-1.8,1.8-3.7,2.5-5.7c2.4-6.3,3.7-13,3.9-20
		c0-0.6,0-1.2,0-1.8c0-0.6,0-1.1,0-1.7l0,0c0,0.6-0.1,1.2-0.1,1.8c-1.9,33.4-30.5,59.9-65.6,59.9S39,124.4,37.1,91
		c0-0.6-0.1-1.2-0.1-1.8l0,0c0,0.6,0,1.1,0,1.7s0,1.2,0,1.8c0.2,7,1.6,13.7,3.9,20c0.7,1.9,1.6,3.8,2.5,5.7
		C44.4,120.2,45.4,122,46.5,123.7z"/>
	<path class="st0" d="M293.3,12.4c-45,0-81.5,35.1-81.5,78.5c0,43.3,36.5,78.5,81.5,78.5s81.5-35.1,81.5-78.5
		C374.9,47.6,338.4,12.4,293.3,12.4z M295.6,158.9c-27.4,0-50.9-16.1-60.8-39.1c-0.3-0.5-0.6-1-0.8-1.5c-0.9-1.8-1.8-3.7-2.5-5.7
		c-2.4-6.3-3.7-13-3.9-20l0,0c0-0.4,0-0.8,0-1.2c0-0.2,0-0.4,0-0.6l0,0l0,0c0-0.6,0-1.1,0-1.7l0,0c0.5-17.9,8.7-34,21.5-45.2
		c11.7-10.2,27.2-16.4,44.2-16.4c2.3,0,4.5,0.1,6.7,0.3c3.3,0.3,6.6,0.9,9.7,1.7c1.1,0.3,2.1,0.5,3.1,0.9c3.1,0.9,6.1,2.1,9,3.4
		c4.8,2.2,9.3,5,13.3,8.2c8.2,6.5,14.8,15,18.9,24.6c4.7,8.7,7.3,18.5,7.3,29C361.4,130.6,332,158.9,295.6,158.9z"/>
	<path class="st1" d="M354.1,66.6c3,7,4.7,14.6,5,22.6l0,0c0,0.6,0,1.1,0,1.7l0,0l0,0c0,0.2,0,0.4,0,0.6c0,0.4,0,0.8,0,1.2l0,0
		c-0.2,7-1.6,13.7-3.9,20c-0.4,1-0.8,1.9-1.2,2.9c-1.2,2.8-2.7,5.6-4.4,8.2c-1.1,1.7-2.3,3.4-3.5,5.1c-1.3,1.6-2.6,3.2-4,4.7
		c-0.7,0.7-1.4,1.5-2.2,2.2c-1.5,1.4-3,2.8-4.7,4.1c-2.4,1.9-5,3.7-7.7,5.3c-4.5,2.6-9.4,4.8-14.5,6.3c-1,0.3-2.1,0.6-3.1,0.9
		c-3.2,0.8-6.4,1.3-9.7,1.7c-2.2,0.2-4.5,0.3-6.7,0.3c-9.1,0-17.7-1.8-25.6-5c-3-1.2-5.8-2.6-8.5-4.2c-9-5.3-16.7-12.6-22.1-21.3
		c-0.8-1.3-1.5-2.5-2.2-3.8c9.9,22.9,33.4,39.1,60.8,39.1c36.3,0,65.8-28.3,65.8-63.3C361.4,85.2,358.8,75.3,354.1,66.6z"/>
	<path class="st5" d="M227.6,92.7c0.2,7,1.6,13.7,3.9,20C229.2,106.4,227.8,99.7,227.6,92.7L227.6,92.7z"/>
	<path class="st5" d="M227.6,90.9c0,0.2,0,0.4,0,0.6C227.6,91.3,227.6,91.1,227.6,90.9L227.6,90.9z"/>
	<path class="st5" d="M234.1,118.3c0.3,0.5,0.5,1,0.8,1.5c0.7,1.3,1.4,2.6,2.2,3.8C236,122,235,120.2,234.1,118.3z"/>
	<path class="st5" d="M359.1,90.9L359.1,90.9c0,0.2,0,0.4,0,0.6C359.1,91.3,359.1,91.1,359.1,90.9z"/>
	<path class="st5" d="M355.1,112.7c2.4-6.3,3.7-13,3.9-20l0,0C358.9,99.7,357.5,106.4,355.1,112.7z"/>
	<path class="st5" d="M293.3,31.1c-35.1,0-63.8,26.5-65.6,59.9c1.9,33.4,30.5,59.9,65.6,59.9S357.1,124.4,359,91
		C357.1,57.6,328.5,31.1,293.3,31.1z"/>
	<path class="st6" d="M227.6,90.9L227.6,90.9c0,0.2,0,0.4,0,0.6c0,0.4,0,0.8,0,1.2l0,0l0,0C227.6,92.1,227.6,91.5,227.6,90.9z"/>
	<path class="st6" d="M227.7,91c1.9-33.4,30.5-59.9,65.6-59.9S357.1,57.6,359,91c0-0.6,0.1-1.2,0.1-1.8c-0.2-8-2-15.6-5-22.6
		c-4.1-9.6-10.7-18-18.9-24.6c-4.1-3.2-8.5-6-13.3-8.2c-2.9-1.3-5.9-2.5-9-3.4c-1-0.3-2.1-0.6-3.1-0.9c-3.2-0.8-6.4-1.3-9.7-1.7
		c-2.2-0.2-4.5-0.3-6.7-0.3c-17,0-32.5,6.2-44.2,16.4c-12.8,11.2-21,27.3-21.5,45.2C227.6,89.8,227.7,90.4,227.7,91z"/>
	<path class="st6" d="M359.1,92.7L359.1,92.7L359.1,92.7c0-0.4,0-0.8,0-1.2c0-0.2,0-0.4,0-0.6l0,0C359.1,91.5,359.1,92.1,359.1,92.7
		z"/>
	<path class="st7" d="M237.1,123.7c5.5,8.7,13.1,16,22.1,21.3c2.7,1.6,5.6,3,8.5,4.2c7.9,3.2,16.5,5,25.6,5c2.3,0,4.5-0.1,6.7-0.3
		c3.3-0.3,6.6-0.9,9.7-1.7c1.1-0.3,2.1-0.5,3.1-0.9c5.1-1.5,10-3.7,14.5-6.3c2.7-1.6,5.3-3.4,7.7-5.3c1.6-1.3,3.2-2.7,4.7-4.1
		c0.7-0.7,1.5-1.4,2.2-2.2c1.4-1.5,2.8-3.1,4-4.7c1.3-1.6,2.4-3.3,3.5-5.1c1.6-2.6,3.1-5.3,4.4-8.2c0.4-0.9,0.8-1.9,1.2-2.9
		c2.4-6.3,3.7-13,3.9-20c0-0.6,0-1.2,0-1.8c0-0.6,0-1.1,0-1.7l0,0c0,0.6-0.1,1.2-0.1,1.8c-1.9,33.4-30.5,59.9-65.6,59.9
		s-63.8-26.5-65.6-59.9c0-0.6-0.1-1.2-0.1-1.8l0,0c0,0.6,0,1.1,0,1.7s0,1.2,0,1.8c0.2,7,1.6,13.7,3.9,20c0.7,1.9,1.6,3.8,2.5,5.7
		C235,120.2,236,122,237.1,123.7z"/>
</g>
<rect x="54.1" y="68.2" class="st8" width="86.5" height="45.9"/>
<text transform="matrix(1 0 0 1 54.1 113.1304)" class="st9 st10 st11">YES</text>
<rect x="250" y="67.1" class="st8" width="86.5" height="45.9"/>
<text transform="matrix(1 0 0 1 249.9501 111.9304)" class="st9 st10 st11">NO</text>
</svg>
