<?xml version="1.0" encoding="utf-8"?>
<!-- Generator: Adobe Illustrator 19.2.1, SVG Export Plug-In . SVG Version: 6.00 Build 0)  -->
<svg version="1.1" id="objects" xmlns="http://www.w3.org/2000/svg" xmlns:xlink="http://www.w3.org/1999/xlink" x="0px" y="0px"
	 viewBox="0 0 395.7 89.5" style="enable-background:new 0 0 395.7 89.5;" xml:space="preserve">
<style type="text/css">
	.st0{fill:#C49347;}
	.st1{fill-rule:evenodd;clip-rule:evenodd;fill:#C49347;}
</style>
<g>
	<g>
		<g>
			<g>
				<g>
					<path class="st0" d="M213.5,42.4c1.7,1.4,2.8,3.7,3.8,5.6c2.6,5,3.3,10,0.5,15.1c-1.4,2.6-4,5.1-4,8.2c0,2.7,2.2,4.5,4.8,3.8
						c3.1-0.8,5-3.7,5.9-6.6c0.5-1.5,1-3.3,1-5c0.1-1.8-0.1-3.8-0.5-5.5c-0.5-1.9-1.3-3.7-2.3-5.4C220.4,48.7,217.1,45.4,213.5,42.4
						z"/>
				</g>
				<g>
					<path class="st0" d="M222.8,47.8c1.6,1.1,2.8,3.1,3.8,4.7c2.7,4.3,3.7,8.8,1.6,13.6c-1.1,2.4-3.2,4.9-3,7.7
						c0.2,2.4,2.3,3.9,4.6,3.1c2.7-1,4.2-3.7,4.8-6.4c0.3-1.4,0.6-3.1,0.6-4.5c-0.1-1.6-0.3-3.4-0.9-4.9c-0.6-1.7-1.5-3.3-2.5-4.7
						C229.5,52.9,226.2,50.1,222.8,47.8z"/>
				</g>
				<g>
					<path class="st0" d="M229.4,51.2c1.6,0.7,3.1,2.2,4.3,3.4c3.2,3.3,5,7,4.1,11.6c-0.5,2.4-1.9,4.9-1.1,7.4
						c0.6,2.1,2.8,3,4.7,1.8c2.2-1.4,2.9-4.1,3-6.5c0-1.3-0.1-2.8-0.4-4.1c-0.4-1.4-1-2.9-1.7-4.1c-0.9-1.4-1.9-2.6-3.1-3.6
						C236.2,54.4,232.8,52.6,229.4,51.2z"/>
				</g>
				<g>
					<path class="st0" d="M237.9,50.4c0.9,0.6,2.2,0.8,3.2,1c2.8,0.5,5.3,0.2,7.4-1.9c1.1-1.1,1.9-2.7,3.4-3.1
						c1.3-0.4,2.5,0.4,2.5,1.8c0.1,1.6-1.1,2.9-2.4,3.8c-0.7,0.5-1.5,0.9-2.3,1.2c-0.8,0.3-1.9,0.5-2.7,0.5c-1,0-2-0.1-3-0.3
						C241.9,52.9,239.9,51.7,237.9,50.4z"/>
				</g>
				<g>
					<path class="st0" d="M223.9,38.7c1.7-0.4,3.4-0.9,5.1-1.8c1.6-0.8,3.2-2,4.5-3.4l0.2-0.3l0.1-0.1l0.1-0.1l0.2-0.3l0.2-0.3
						c0.3-0.4,0.6-0.8,0.9-1.2c0.5-0.8,1-1.7,1.4-2.6c0.4-0.9,0.6-2,0.5-3c0-0.3,0-0.5-0.1-0.8c0-0.1,0-0.3-0.1-0.4l0-0.2l0-0.1l0,0
						l0,0c0-0.1,0-0.1,0-0.1c-0.1-0.2-0.1-0.4-0.2-0.6c-0.1-0.3-0.2-0.5-0.4-0.8c-1-1.8-2.6-3-4.3-3.5c-0.8-0.3-1.7-0.4-2.5-0.4
						c-0.9,0-1.6,0.2-2.4,0.6c-0.2,0.1-0.3,0.1-0.5,0.2c-0.2,0.1-0.3,0.2-0.5,0.3c-0.3,0.2-0.6,0.4-0.8,0.7c-0.5,0.5-0.9,1-1.2,1.5
						c-0.3,0.5-0.5,1.1-0.6,1.6c0,0.1,0,0.3-0.1,0.4c0,0.1,0,0.2,0,0.4c0,0.2,0,0.5,0,0.7c0,0.4,0.1,0.7,0.2,0.9
						c0.3,1.1,1,2.1,2.2,2.5c1.8,0.7,3.9-0.2,4.6-2c0.7-1.8-0.2-3.9-2-4.6c-0.9-0.4-2-0.3-2.8,0.1c0.2-0.1,0.3-0.3,0.5-0.4
						c0.2-0.2,0.5-0.3,0.7-0.5c0.1-0.1,0.2-0.1,0.4-0.2c0.1-0.1,0.3-0.1,0.5-0.2c0.5-0.2,1.1-0.3,1.7-0.2c0.6,0,1.2,0.2,1.9,0.5
						c1.2,0.5,2.3,1.5,2.9,2.8c0,0.1,0.1,0.3,0.2,0.4c0.1,0.2,0.1,0.4,0.2,0.6c0,0,0,0,0,0c0,0,0,0,0-0.1l0,0l0,0l0,0.1l0,0.1
						c0,0.1,0,0.2,0,0.3c0,0.2,0,0.3,0,0.5c0,0.7-0.1,1.4-0.3,2.2c-0.4,1.5-1.3,3-2.4,4.3c-1.1,1.3-2.4,2.4-3.9,3.3
						c-1.5,0.9-3,1.5-4.6,2c-1.6,0.5-3.2,0.7-4.7,0.8c-0.4,0-0.8,0-1.1,0c-0.4,0-0.7,0-1.1,0c-0.4,0-0.7,0-1-0.1c-0.2,0-0.3,0-0.5,0
						c-0.2,0-0.3,0-0.5-0.1c-1.3-0.2-2.5-0.5-3.6-0.8c-1-0.3-1.9-0.7-2.6-1c-0.7-0.3-1.3-0.6-1.7-0.7c-0.4-0.2-0.6-0.3-0.6-0.3
						s0.2,0.1,0.6,0.3c0.4,0.2,0.9,0.5,1.6,0.8c0.7,0.4,1.6,0.8,2.6,1.2c1,0.4,2.2,0.8,3.6,1.1c0.2,0,0.3,0.1,0.5,0.1
						c0.2,0,0.4,0,0.5,0.1c0.4,0,0.7,0.1,1.1,0.1c0.4,0,0.7,0.1,1.1,0.1c0.4,0,0.8,0,1.2,0C220.5,39.2,222.2,39,223.9,38.7z
						 M234.6,24.8C234.6,24.8,234.6,24.8,234.6,24.8L234.6,24.8z"/>
					<path class="st0" d="M217.3,38.3c0.7,0,1.5-0.1,2.2-0.3c0.8-0.2,1.5-0.5,2.3-1c0.7-0.5,1.3-1.2,1.7-2.1
						c0.1-0.2,0.2-0.4,0.3-0.7c0.1-0.2,0.1-0.5,0.2-0.7c0.1-0.5,0.1-0.9,0.1-1.4c-0.1-0.9-0.4-1.8-0.9-2.5c-0.5-0.7-1.1-1.4-1.8-1.8
						c-0.7-0.4-1.5-0.7-2.2-0.7c-0.2,0-0.4,0-0.5,0c-0.2,0-0.3,0-0.5,0.1c-0.3,0.1-0.6,0.2-0.8,0.3c-0.5,0.2-0.9,0.5-1.2,0.8
						c-0.3,0.3-0.4,0.5-0.5,0.7c0,0,0,0,0,0c0,0-0.1,0.1-0.1,0.1c0,0.1,0,0.1,0,0.1s0,0,0,0c0,0,0,0,0,0.1c-0.5,1.3,0.1,2.7,1.4,3.3
						c1.3,0.5,2.7-0.1,3.3-1.4c0.4-0.9,0.1-1.9-0.5-2.6c0.3,0.1,0.6,0.3,0.8,0.5c0.5,0.3,0.9,0.8,1.2,1.4c0.3,0.6,0.5,1.2,0.6,1.9
						c0,0.3,0.1,0.7,0,1c0,0.2,0,0.3-0.1,0.5c0,0.2-0.1,0.3-0.1,0.5c-0.2,0.7-0.6,1.3-1.1,1.8c-0.5,0.5-1.2,1-1.8,1.3
						c-0.7,0.3-1.4,0.5-2.1,0.6c-0.7,0.1-1.3,0.1-2,0.1c-0.6,0-1.2-0.1-1.7-0.1c-0.5-0.1-0.9-0.1-1.3-0.2c-0.7-0.1-1.1-0.2-1.1-0.2
						l0,0.2c0,0,0.4,0.1,1.1,0.2c0.7,0.1,1.7,0.3,2.9,0.3c0.3,0,0.6,0,1,0C216.6,38.3,216.9,38.3,217.3,38.3z"/>
				</g>
				<path class="st0" d="M238.5,89.5C238.6,89.5,238.5,89.5,238.5,89.5l0.1,0l0.1,0l0.1,0l0.2,0c0.1,0,0.3,0,0.4-0.1
					c0.3-0.1,0.6-0.1,0.8-0.2c1.1-0.4,2-1,2.8-1.7c0.8-0.7,1.5-1.5,2.1-2.4c0.3-0.4,0.6-0.9,0.8-1.3l0.2-0.3l0.2-0.3l0.1-0.2
					l0.1-0.2l0.2-0.4c0.9-1.9,1.5-3.9,1.7-5.8c0.2-2,0.2-3.9-0.1-5.8c-0.3-1.8-0.7-3.6-1.3-5.2c-0.2-0.4-0.3-0.8-0.5-1.2
					c-0.2-0.4-0.3-0.7-0.5-1.1c-0.2-0.4-0.4-0.7-0.6-1c-0.1-0.2-0.2-0.3-0.3-0.5c-0.1-0.2-0.2-0.3-0.3-0.5c-0.8-1.3-1.6-2.3-2.4-3.2
					c-0.8-0.9-1.6-1.6-2.2-2.2c-0.6-0.6-1.1-1-1.5-1.3c-0.3-0.3-0.5-0.5-0.5-0.5s0.2,0.2,0.5,0.5c0.3,0.3,0.8,0.8,1.4,1.4
					c0.6,0.6,1.3,1.4,2,2.3c0.7,0.9,1.5,2,2.2,3.3c0.1,0.2,0.2,0.3,0.3,0.5c0.1,0.2,0.2,0.3,0.2,0.5c0.2,0.3,0.3,0.7,0.5,1
					c0.1,0.4,0.3,0.7,0.4,1.1c0.1,0.4,0.3,0.8,0.4,1.1c0.5,1.6,0.8,3.3,0.9,5c0.1,1.8,0.1,3.6-0.2,5.4c-0.3,1.8-0.9,3.6-1.8,5.1
					c-0.9,1.6-2.1,3-3.4,4c-0.7,0.5-1.4,0.9-2.1,1.1c-0.2,0.1-0.4,0.1-0.5,0.2c-0.1,0-0.2,0-0.3,0.1l-0.1,0l-0.1,0l0,0l0,0
					c0,0,0,0,0,0c-0.2,0-0.4,0-0.6,0.1c-0.2,0-0.3,0-0.5,0c-1.5-0.1-2.9-0.9-3.9-1.9c-0.5-0.5-0.9-1.1-1.2-1.7
					c-0.3-0.6-0.4-1.2-0.4-1.8l0-0.3c0-0.1,0-0.2,0-0.2c0-0.1,0-0.3,0-0.4c0.1-0.3,0.1-0.6,0.2-0.9c0.1-0.2,0.2-0.4,0.2-0.7
					c-0.1,1,0.2,2.1,1,2.9c1.4,1.6,3.9,1.7,5.4,0.3c1.6-1.4,1.7-3.9,0.3-5.4c-0.9-1-2.1-1.4-3.3-1.2c-0.3,0-0.6,0.1-1,0.2
					c-0.2,0.1-0.5,0.1-0.7,0.2c-0.1,0.1-0.2,0.1-0.4,0.2c-0.1,0.1-0.2,0.1-0.4,0.2c-0.2,0.1-0.5,0.3-0.7,0.5
					c-0.1,0.1-0.2,0.2-0.3,0.3c-0.1,0.1-0.2,0.2-0.3,0.3c-0.4,0.5-0.8,1.1-1.1,1.8c-0.2,0.3-0.3,0.7-0.4,1.1c0,0.2-0.1,0.4-0.1,0.6
					c0,0.1,0,0.2,0,0.3l0,0.3c-0.1,0.9,0,1.7,0.3,2.6c0.3,0.9,0.8,1.7,1.4,2.4c1.2,1.5,3,2.6,5.2,2.9c0.3,0,0.6,0.1,0.9,0.1
					C238.1,89.5,238.3,89.5,238.5,89.5z"/>
				<path class="st0" d="M231.8,49.2c2.7,0.3,5.9,0.1,8.6-0.5c2.5-0.5,5.2-1.6,7.4-2.7c3.7-1.8,7.2-4.7,8.4-8.6
					c0-0.1,0.1-0.2,0.1-0.2c1.5-4.5-0.8-9.4-5.3-10.9c-4.5-1.5-9.4,0.8-10.9,5.3c-0.4,1.3-0.6,2.6-0.4,3.9c-0.6,0.5-1.2,1.1-1.8,1.5
					c-7.2,5.5-15.1,5.5-23.5,2.6c-3.1-1.1-6.9-2.3-9.4-4.5c5.3,4.8,11.2,9.2,17.9,11.8C225.8,48,228.8,48.8,231.8,49.2z"/>
				<path class="st0" d="M215.4,58c0,1.8-0.4,3.9-1,5.7c-0.5,1.6-1.5,3.3-2.4,4.7c-1.5,2.3-3.6,4.4-6.3,4.9c-0.1,0-0.1,0-0.2,0
					c-3.1,0.7-6.1-1.3-6.8-4.4c-0.7-3.1,1.3-6.1,4.4-6.8c0.9-0.2,1.8-0.2,2.6,0c0.4-0.4,0.8-0.7,1.2-1.1c4.2-4.3,4.8-9.5,3.6-15.3
					c-0.5-2.1-1-4.8-2.2-6.6c2.7,3.9,5.2,8.1,6.4,12.8C215,53.9,215.4,55.9,215.4,58z"/>
				<path class="st0" d="M244.3,25.8c0,0,0.1-0.1,0.3-0.2c0.1-0.1,0.2-0.1,0.3-0.2c0.1,0,0.1-0.1,0.2-0.1c0.1,0,0.2-0.1,0.3-0.1
					c0.2-0.1,0.4-0.2,0.6-0.3c0.2-0.1,0.5-0.2,0.8-0.3c0.3-0.1,0.6-0.2,0.9-0.2c0.3-0.1,0.7-0.1,1-0.2c0.4,0,0.7,0,1.1,0
					c0.4,0,0.8,0,1.2,0.1c0.8,0.1,1.7,0.4,2.5,0.7c0.2,0.1,0.4,0.2,0.6,0.3c0.2,0.1,0.4,0.2,0.6,0.4l0.3,0.2l0.3,0.2
					c0.2,0.1,0.4,0.3,0.6,0.5c0.3,0.3,0.7,0.7,1,1c0.2,0.2,0.3,0.4,0.5,0.6l0.4,0.6c0.4,0.8,0.9,1.7,1.1,2.7
					c0.1,0.2,0.1,0.5,0.1,0.7l0.1,0.4l0,0.4c0,0.2,0,0.5,0,0.7c0,0.2,0,0.5,0,0.7c-0.1,0.9-0.2,1.8-0.5,2.6
					c-0.1,0.4-0.3,0.8-0.4,1.1c-0.2,0.3-0.4,0.7-0.6,1c-0.2,0.3-0.4,0.6-0.6,0.8c-0.2,0.2-0.4,0.5-0.6,0.7c-0.2,0.2-0.4,0.4-0.6,0.5
					c-0.2,0.2-0.4,0.3-0.5,0.4c-0.1,0.1-0.2,0.1-0.2,0.2c-0.1,0-0.2,0.1-0.2,0.1c-0.1,0.1-0.3,0.1-0.4,0.2c-0.2,0.1-0.3,0.2-0.3,0.2
					s0.1-0.1,0.3-0.2c0.2-0.1,0.4-0.3,0.7-0.6c0.1-0.1,0.3-0.3,0.5-0.5c0.2-0.2,0.3-0.4,0.5-0.6c0.2-0.2,0.3-0.5,0.5-0.7
					c0.2-0.3,0.3-0.5,0.5-0.8c0.1-0.3,0.3-0.6,0.4-1c0.1-0.3,0.3-0.7,0.3-1.1c0.2-0.7,0.3-1.5,0.3-2.4c0-0.8-0.1-1.7-0.3-2.5
					c-0.2-0.9-0.6-1.6-1-2.4l-0.4-0.5c-0.1-0.2-0.3-0.4-0.4-0.5c-0.3-0.3-0.6-0.6-0.9-1c-0.7-0.6-1.3-1.1-2.1-1.4
					c-0.7-0.4-1.5-0.7-2.3-0.8c-0.4-0.1-0.7-0.1-1.1-0.2c-0.4,0-0.7,0-1-0.1c-0.3,0-0.7,0-1,0.1c-0.3,0-0.6,0.1-0.9,0.1
					c-0.3,0.1-0.5,0.1-0.8,0.2c-0.2,0.1-0.4,0.1-0.6,0.2c-0.4,0.1-0.7,0.3-0.9,0.4C244.4,25.8,244.3,25.8,244.3,25.8z"/>
				<path class="st0" d="M252.1,56.5c1.3-0.3,2.5-0.6,3.8-1.1c0.6-0.2,1.3-0.5,1.9-0.8l0.5-0.2l0.4-0.2c0.3-0.2,0.6-0.3,0.9-0.5
					c1.2-0.7,2.4-1.5,3.3-2.5c0.5-0.5,0.9-1.1,1.2-1.7c0.2-0.3,0.3-0.6,0.4-1c0.1-0.3,0.2-0.7,0.3-1c0.2-1.4,0.1-2.8-0.5-3.9
					c-0.3-0.6-0.7-1.1-1.1-1.5c-0.1-0.1-0.2-0.2-0.3-0.3l-0.2-0.1l0,0l0,0l0,0l0,0l-0.1,0c-0.1-0.1-0.2-0.1-0.4-0.2
					c-0.1-0.1-0.3-0.1-0.4-0.2c-0.5-0.2-1-0.3-1.5-0.3c-0.5,0-0.9,0-1.4,0.1c-0.8,0.1-1.5,0.5-2,0.9c-0.3,0.2-0.5,0.5-0.6,0.7
					c-0.4,0.6-0.5,1.3-0.3,2c0.4,1.4,1.7,2.2,3.1,1.8c1.4-0.4,2.2-1.7,1.8-3.1c-0.2-0.9-0.9-1.5-1.7-1.8c0.3,0,0.6,0,0.9,0
					c0.4,0.1,0.8,0.2,1.2,0.4c0.1,0,0.2,0.1,0.3,0.1c0.1,0,0.2,0.1,0.3,0.2l0.1,0.1l0,0l0,0c0,0,0,0,0,0l0,0l0.1,0.1
					c0.1,0.1,0.2,0.2,0.2,0.2c0.3,0.3,0.6,0.8,0.7,1.2c0.3,0.9,0.3,2,0,3.1c0,0.1-0.1,0.3-0.1,0.4c0,0.1-0.1,0.3-0.2,0.4l0,0.1
					c0,0,0,0,0,0l0,0l0,0l0,0l-0.1,0.2c-0.1,0.1-0.1,0.2-0.2,0.4c-0.3,0.5-0.7,0.9-1.1,1.3c-0.8,0.8-1.8,1.6-2.9,2.3
					c-0.3,0.2-0.5,0.3-0.8,0.5l-0.4,0.2L257,53c-0.5,0.3-1.1,0.6-1.7,0.8c-1.1,0.5-2.3,0.9-3.5,1.2c-1.2,0.3-2.3,0.5-3.4,0.6
					c-0.3,0-0.5,0-0.8,0c-0.1,0-0.3,0-0.4,0c-0.1,0-0.3,0-0.4,0c-0.3,0-0.5,0-0.8,0c-0.2,0-0.5,0-0.7-0.1c-1-0.1-1.8-0.3-2.6-0.5
					c-0.7-0.2-1.4-0.5-1.9-0.7c-0.5-0.2-0.9-0.5-1.2-0.7c-0.3-0.2-0.4-0.3-0.4-0.3s0.1,0.1,0.4,0.3c0.2,0.2,0.5,0.5,1,0.8
					c0.2,0.2,0.5,0.4,0.8,0.5c0.3,0.2,0.6,0.4,1,0.5c0.8,0.3,1.6,0.6,2.7,0.8c0.3,0,0.5,0.1,0.8,0.1c0.3,0,0.5,0.1,0.8,0.1
					c0.5,0.1,1.1,0.1,1.7,0.1C249.6,56.8,250.9,56.7,252.1,56.5z"/>
			</g>
			<g>
				<g>
					<path class="st0" d="M182.1,42.4c-1.7,1.4-2.8,3.7-3.8,5.6c-2.6,5-3.3,10-0.5,15.1c1.4,2.6,4,5.1,4,8.2c0,2.7-2.1,4.5-4.8,3.8
						c-3.1-0.8-5-3.7-5.9-6.6c-0.5-1.5-1-3.3-1-5c-0.1-1.8,0.1-3.8,0.5-5.5c0.5-1.9,1.3-3.7,2.3-5.4
						C175.3,48.7,178.6,45.4,182.1,42.4z"/>
				</g>
				<g>
					<path class="st0" d="M172.8,47.8c-1.6,1.1-2.8,3.1-3.8,4.7c-2.7,4.3-3.7,8.8-1.6,13.6c1.1,2.4,3.2,4.9,3,7.7
						c-0.2,2.4-2.3,3.9-4.6,3.1c-2.7-1-4.2-3.7-4.8-6.4c-0.3-1.4-0.6-3.1-0.6-4.5c0.1-1.6,0.3-3.4,0.9-4.9c0.6-1.7,1.5-3.3,2.5-4.7
						C166.2,52.9,169.4,50.1,172.8,47.8z"/>
				</g>
				<g>
					<path class="st0" d="M166.3,51.2c-1.6,0.7-3.1,2.2-4.3,3.4c-3.2,3.3-5,7-4.1,11.6c0.5,2.4,1.9,4.9,1.1,7.4
						c-0.6,2.1-2.8,3-4.7,1.8c-2.2-1.4-2.9-4.1-3-6.5c0-1.3,0.1-2.8,0.4-4.1c0.4-1.4,1-2.9,1.7-4.1c0.9-1.4,1.9-2.6,3.1-3.6
						C159.4,54.4,162.8,52.6,166.3,51.2z"/>
				</g>
				<g>
					<path class="st0" d="M157.7,50.4c-0.9,0.6-2.2,0.8-3.2,1c-2.8,0.5-5.3,0.2-7.4-1.9c-1.1-1.1-1.9-2.7-3.4-3.1
						c-1.3-0.4-2.5,0.4-2.5,1.8c-0.1,1.6,1.1,2.9,2.4,3.8c0.7,0.5,1.5,0.9,2.3,1.2c0.8,0.3,1.8,0.5,2.7,0.5c1,0,2-0.1,3-0.3
						C153.7,52.9,155.8,51.7,157.7,50.4z"/>
				</g>
				<g>
					<path class="st0" d="M177.9,39.2c0.4,0,0.8-0.1,1.1-0.1c0.4,0,0.7-0.1,1.1-0.1c0.2,0,0.4-0.1,0.5-0.1c0.2,0,0.3-0.1,0.5-0.1
						c1.3-0.3,2.5-0.7,3.6-1.1c1-0.4,1.9-0.8,2.6-1.2c0.7-0.4,1.3-0.6,1.6-0.8c0.4-0.2,0.6-0.3,0.6-0.3s-0.2,0.1-0.6,0.3
						c-0.4,0.2-0.9,0.4-1.7,0.7c-0.7,0.3-1.6,0.7-2.6,1c-1,0.3-2.2,0.7-3.6,0.8c-0.2,0-0.3,0-0.5,0.1c-0.2,0-0.3,0-0.5,0
						c-0.3,0-0.7,0.1-1.1,0.1c-0.4,0-0.7,0-1.1,0c-0.4,0-0.7,0-1.1,0c-1.5-0.1-3.1-0.4-4.7-0.8c-1.6-0.5-3.2-1.1-4.6-2
						c-1.5-0.9-2.8-2-3.9-3.3c-1.1-1.3-2-2.8-2.4-4.3c-0.2-0.7-0.3-1.5-0.3-2.2c0-0.2,0-0.3,0-0.5c0-0.1,0-0.2,0-0.3l0-0.1l0-0.1
						l0,0l0,0c0,0,0,0,0,0.1c0,0,0,0,0,0c0.1-0.2,0.1-0.4,0.2-0.6c0.1-0.1,0.1-0.3,0.2-0.4c0.6-1.2,1.7-2.2,2.9-2.8
						c0.6-0.3,1.2-0.4,1.9-0.5c0.6,0,1.2,0,1.7,0.2c0.2,0.1,0.3,0.1,0.5,0.2c0.1,0.1,0.2,0.1,0.4,0.2c0.2,0.1,0.5,0.3,0.7,0.5
						c0.2,0.1,0.3,0.3,0.5,0.4c-0.9-0.4-1.9-0.5-2.8-0.1c-1.8,0.7-2.7,2.8-2,4.6c0.7,1.8,2.8,2.7,4.6,2c1.1-0.4,1.9-1.4,2.2-2.5
						c0.1-0.3,0.2-0.6,0.2-0.9c0-0.2,0-0.4,0-0.7c0-0.1,0-0.2,0-0.4c0-0.1,0-0.2-0.1-0.4c-0.1-0.5-0.3-1.1-0.6-1.6
						c-0.3-0.5-0.7-1.1-1.2-1.5c-0.2-0.2-0.5-0.5-0.8-0.7c-0.2-0.1-0.3-0.2-0.5-0.3c-0.2-0.1-0.3-0.2-0.5-0.2
						c-0.7-0.3-1.5-0.5-2.4-0.6c-0.8,0-1.7,0.1-2.5,0.4c-1.7,0.6-3.3,1.8-4.3,3.5c-0.1,0.2-0.2,0.5-0.4,0.8
						c-0.1,0.2-0.1,0.4-0.2,0.6c0,0,0-0.1,0,0.1l0,0l0,0l0,0.1l0,0.2c0,0.1-0.1,0.3-0.1,0.4c0,0.3-0.1,0.5-0.1,0.8
						c0,1,0.2,2.1,0.5,3c0.4,0.9,0.9,1.8,1.4,2.6c0.3,0.4,0.6,0.8,0.9,1.2l0.2,0.3l0.2,0.3l0.1,0.1l0.1,0.1l0.2,0.3
						c1.3,1.4,2.9,2.5,4.5,3.4c1.6,0.8,3.4,1.4,5.1,1.8c1.7,0.4,3.4,0.5,5,0.5C177.1,39.2,177.5,39.2,177.9,39.2z M161,24.8
						C161,24.8,161,24.8,161,24.8L161,24.8z"/>
					<path class="st0" d="M179.4,38.3c0.3,0,0.6,0,1,0c1.2-0.1,2.2-0.2,2.9-0.3c0.7-0.1,1.1-0.2,1.1-0.2l0-0.2c0,0-0.4,0.1-1.1,0.2
						c-0.3,0.1-0.8,0.1-1.3,0.2c-0.5,0.1-1,0.1-1.7,0.1c-0.6,0-1.3,0-2-0.1c-0.7-0.1-1.4-0.3-2.1-0.6c-0.7-0.3-1.3-0.7-1.8-1.3
						c-0.5-0.5-0.9-1.2-1.1-1.8c0-0.2-0.1-0.3-0.1-0.5c0-0.2-0.1-0.3-0.1-0.5c0-0.3,0-0.7,0-1c0.1-0.7,0.3-1.3,0.6-1.9
						c0.3-0.6,0.8-1,1.2-1.4c0.3-0.2,0.6-0.4,0.8-0.5c-0.6,0.7-0.8,1.7-0.5,2.6c0.5,1.3,2,1.9,3.3,1.4s1.9-2,1.4-3.3c0,0,0,0,0-0.1
						c0,0,0,0,0,0s0,0-0.1-0.1c0,0,0-0.1-0.1-0.1c0,0,0,0,0,0c-0.1-0.2-0.3-0.4-0.5-0.7c-0.3-0.3-0.6-0.6-1.2-0.8
						c-0.3-0.1-0.5-0.2-0.8-0.3c-0.2,0-0.3-0.1-0.5-0.1c-0.1,0-0.3,0-0.5,0c-0.7,0-1.5,0.3-2.2,0.7c-0.7,0.4-1.3,1-1.8,1.8
						c-0.5,0.7-0.8,1.6-0.9,2.5c0,0.5,0,0.9,0.1,1.4c0,0.2,0.1,0.5,0.2,0.7c0.1,0.2,0.2,0.4,0.3,0.7c0.4,0.8,1,1.6,1.7,2.1
						c0.7,0.5,1.5,0.8,2.3,1c0.8,0.2,1.5,0.3,2.2,0.3C178.7,38.3,179.1,38.3,179.4,38.3z"/>
				</g>
				<path class="st0" d="M157.1,89.5c0.2,0,0.5,0,0.7,0c0.3,0,0.6,0,0.9-0.1c2.2-0.3,4-1.5,5.2-2.9c0.6-0.7,1.1-1.5,1.4-2.4
					c0.3-0.9,0.4-1.7,0.3-2.6l0-0.3c0-0.1,0-0.2,0-0.3c0-0.2-0.1-0.4-0.1-0.6c-0.1-0.4-0.2-0.7-0.4-1.1c-0.3-0.7-0.7-1.3-1.1-1.8
					c-0.1-0.1-0.2-0.2-0.3-0.3c-0.1-0.1-0.2-0.2-0.3-0.3c-0.2-0.2-0.5-0.4-0.7-0.5c-0.1-0.1-0.2-0.1-0.4-0.2
					c-0.1-0.1-0.2-0.1-0.4-0.2c-0.2-0.1-0.5-0.2-0.7-0.2c-0.4-0.1-0.7-0.1-1-0.2c-1.2-0.2-2.5,0.3-3.3,1.2c-1.4,1.6-1.3,4,0.3,5.4
					c1.6,1.4,4,1.3,5.4-0.3c0.7-0.8,1.1-1.9,1-2.9c0.1,0.2,0.2,0.4,0.2,0.7c0.1,0.3,0.1,0.6,0.2,0.9c0,0.1,0,0.3,0,0.4
					c0,0.1,0,0.2,0,0.2l0,0.3c0,0.6-0.2,1.2-0.4,1.8c-0.3,0.6-0.7,1.2-1.2,1.7c-1,1-2.4,1.8-3.9,1.9c-0.2,0-0.3,0-0.5,0
					c-0.2,0-0.4,0-0.6-0.1c0,0,0,0,0,0l0,0l0,0l-0.1,0l-0.1,0c-0.1,0-0.2,0-0.3-0.1c-0.2-0.1-0.4-0.1-0.5-0.2
					c-0.7-0.2-1.4-0.6-2.1-1.1c-1.3-1-2.5-2.4-3.4-4c-0.9-1.6-1.5-3.3-1.8-5.1c-0.3-1.8-0.4-3.6-0.2-5.4c0.1-1.8,0.5-3.5,0.9-5
					c0.1-0.4,0.3-0.8,0.4-1.1c0.1-0.4,0.3-0.7,0.4-1.1c0.1-0.4,0.3-0.7,0.5-1c0.1-0.2,0.2-0.3,0.2-0.5c0.1-0.2,0.2-0.3,0.3-0.5
					c0.7-1.3,1.4-2.3,2.2-3.3c0.7-0.9,1.4-1.7,2-2.3c0.6-0.6,1.1-1.1,1.4-1.4c0.3-0.3,0.5-0.5,0.5-0.5s-0.2,0.2-0.5,0.5
					c-0.3,0.3-0.8,0.7-1.5,1.3c-0.6,0.6-1.4,1.3-2.2,2.2c-0.8,0.9-1.7,1.9-2.4,3.2c-0.1,0.2-0.2,0.3-0.3,0.5
					c-0.1,0.2-0.2,0.3-0.3,0.5c-0.2,0.3-0.4,0.7-0.6,1c-0.2,0.4-0.4,0.7-0.5,1.1c-0.2,0.4-0.3,0.8-0.5,1.2c-0.6,1.6-1.1,3.3-1.3,5.2
					c-0.3,1.8-0.3,3.8-0.1,5.8c0.2,2,0.8,4,1.7,5.8l0.2,0.4l0.1,0.2l0.1,0.2l0.2,0.3l0.2,0.3c0.3,0.5,0.5,0.9,0.8,1.3
					c0.6,0.8,1.3,1.7,2.1,2.4c0.8,0.7,1.8,1.3,2.8,1.7c0.3,0.1,0.5,0.2,0.8,0.2c0.1,0,0.3,0,0.4,0.1l0.2,0l0.1,0l0.1,0L157.1,89.5
					C157.2,89.5,157.1,89.5,157.1,89.5z"/>
				<path class="st0" d="M163.8,49.2c-2.7,0.3-5.9,0.1-8.6-0.5c-2.5-0.5-5.2-1.6-7.4-2.7c-3.7-1.8-7.2-4.7-8.4-8.6
					c0-0.1-0.1-0.2-0.1-0.2c-1.5-4.5,0.8-9.4,5.3-10.9c4.5-1.5,9.4,0.8,10.9,5.3c0.4,1.3,0.6,2.6,0.4,3.9c0.6,0.5,1.2,1.1,1.8,1.5
					c7.2,5.5,15.1,5.5,23.5,2.6c3.1-1.1,6.9-2.3,9.4-4.5c-5.3,4.8-11.2,9.2-17.9,11.8C169.9,48,166.9,48.8,163.8,49.2z"/>
				<path class="st0" d="M180.3,58c0,1.8,0.4,3.9,1,5.7c0.5,1.6,1.5,3.3,2.4,4.7c1.5,2.3,3.6,4.4,6.3,4.9c0.1,0,0.1,0,0.2,0
					c3.1,0.7,6.1-1.3,6.8-4.4c0.7-3.1-1.3-6.1-4.4-6.8c-0.9-0.2-1.8-0.2-2.6,0c-0.4-0.4-0.8-0.7-1.2-1.1c-4.2-4.3-4.8-9.5-3.6-15.3
					c0.5-2.1,1-4.8,2.2-6.6c-2.7,3.9-5.2,8.1-6.4,12.8C180.6,53.9,180.3,55.9,180.3,58z"/>
				<path class="st0" d="M151.4,25.8c0,0-0.1,0-0.3-0.1c-0.2-0.1-0.5-0.2-0.9-0.4c-0.2-0.1-0.4-0.1-0.6-0.2
					c-0.2-0.1-0.5-0.1-0.8-0.2c-0.3-0.1-0.6-0.1-0.9-0.1c-0.3,0-0.6,0-1-0.1c-0.3,0-0.7,0-1.1,0.1c-0.4,0.1-0.7,0.1-1.1,0.2
					c-0.8,0.1-1.5,0.4-2.3,0.8c-0.7,0.4-1.4,0.9-2.1,1.4c-0.3,0.3-0.6,0.6-0.9,1c-0.1,0.2-0.3,0.3-0.4,0.5l-0.4,0.5
					c-0.5,0.8-0.8,1.6-1,2.4c-0.2,0.8-0.3,1.7-0.3,2.5c0,0.8,0.1,1.6,0.3,2.4c0.1,0.4,0.2,0.7,0.3,1.1c0.1,0.3,0.3,0.7,0.4,1
					c0.2,0.3,0.3,0.6,0.5,0.8c0.2,0.2,0.3,0.5,0.5,0.7c0.2,0.2,0.4,0.4,0.5,0.6c0.2,0.2,0.3,0.3,0.5,0.5c0.3,0.3,0.5,0.5,0.7,0.6
					c0.2,0.1,0.3,0.2,0.3,0.2s-0.1-0.1-0.3-0.2c-0.1-0.1-0.2-0.1-0.4-0.2c-0.1,0-0.1-0.1-0.2-0.1c-0.1-0.1-0.2-0.1-0.2-0.2
					c-0.2-0.1-0.4-0.3-0.6-0.4c-0.2-0.2-0.4-0.4-0.6-0.5c-0.2-0.2-0.4-0.4-0.6-0.7c-0.2-0.2-0.4-0.5-0.6-0.8c-0.2-0.3-0.4-0.6-0.6-1
					c-0.2-0.4-0.3-0.7-0.5-1.1c-0.3-0.8-0.4-1.7-0.5-2.6c0-0.2,0-0.5,0-0.7c0-0.2,0-0.5,0-0.7l0-0.4l0.1-0.4c0-0.2,0.1-0.5,0.1-0.7
					c0.2-0.9,0.7-1.9,1.1-2.7l0.4-0.6c0.1-0.2,0.3-0.4,0.5-0.6c0.3-0.4,0.7-0.7,1-1c0.2-0.2,0.4-0.3,0.6-0.5l0.3-0.2l0.3-0.2
					c0.2-0.1,0.4-0.3,0.6-0.4c0.2-0.1,0.4-0.2,0.6-0.3c0.8-0.4,1.7-0.6,2.5-0.7c0.4-0.1,0.8-0.1,1.2-0.1c0.4,0,0.8,0,1.1,0
					c0.4,0.1,0.7,0.1,1,0.2c0.3,0.1,0.6,0.1,0.9,0.2c0.3,0.1,0.5,0.2,0.8,0.3c0.2,0.1,0.4,0.2,0.6,0.3c0.1,0,0.2,0.1,0.3,0.1
					c0.1,0,0.1,0.1,0.2,0.1c0.1,0.1,0.2,0.2,0.3,0.2C151.3,25.7,151.4,25.8,151.4,25.8z"/>
				<path class="st0" d="M148.9,56.7c0.3,0,0.5-0.1,0.8-0.1c0.3,0,0.5-0.1,0.8-0.1c1-0.2,1.9-0.5,2.7-0.8c0.4-0.1,0.7-0.4,1-0.5
					c0.3-0.2,0.6-0.4,0.8-0.5c0.5-0.3,0.8-0.6,1-0.8c0.2-0.2,0.4-0.3,0.4-0.3s-0.1,0.1-0.4,0.3c-0.3,0.2-0.6,0.4-1.2,0.7
					c-0.5,0.3-1.2,0.5-1.9,0.7c-0.8,0.2-1.6,0.4-2.6,0.5c-0.2,0-0.5,0-0.7,0.1c-0.3,0-0.5,0-0.8,0c-0.1,0-0.3,0-0.4,0
					c-0.1,0-0.3,0-0.4,0c-0.3,0-0.5,0-0.8,0c-1.1-0.1-2.2-0.3-3.4-0.6c-1.2-0.3-2.3-0.7-3.5-1.2c-0.6-0.3-1.1-0.5-1.7-0.8l-0.4-0.2
					l-0.4-0.2c-0.3-0.2-0.5-0.3-0.8-0.5c-1.1-0.7-2.1-1.4-2.9-2.3c-0.4-0.4-0.8-0.9-1.1-1.3c-0.1-0.1-0.2-0.2-0.2-0.4l-0.1-0.2l0,0
					l0,0l0,0c0,0,0,0,0,0l0-0.1c-0.1-0.1-0.1-0.3-0.2-0.4c0-0.1-0.1-0.2-0.1-0.4c-0.3-1-0.3-2.1,0-3.1c0.2-0.5,0.4-0.9,0.7-1.2
					c0.1-0.1,0.2-0.2,0.2-0.2l0.1-0.1l0,0c0,0,0,0,0,0l0,0l0,0l0.1-0.1c0.1-0.1,0.2-0.2,0.3-0.2c0.1,0,0.2-0.1,0.3-0.1
					c0.4-0.2,0.8-0.3,1.2-0.4c0.3,0,0.6-0.1,0.9,0c-0.8,0.3-1.4,0.9-1.7,1.8c-0.4,1.4,0.5,2.8,1.8,3.1c1.4,0.4,2.8-0.5,3.1-1.8
					c0.2-0.7,0-1.4-0.3-2c-0.1-0.2-0.3-0.5-0.6-0.7c-0.5-0.4-1.2-0.8-2-0.9c-0.4-0.1-0.9-0.1-1.4-0.1c-0.5,0-1,0.1-1.5,0.3
					c-0.1,0.1-0.3,0.1-0.4,0.2c-0.1,0.1-0.2,0.1-0.4,0.2l-0.1,0l0,0l0,0l0,0l0,0l-0.2,0.1c-0.1,0.1-0.2,0.2-0.3,0.3
					c-0.4,0.4-0.8,0.9-1.1,1.5c-0.6,1.2-0.7,2.5-0.5,3.9c0,0.3,0.2,0.8,0.3,1c0.1,0.4,0.3,0.7,0.4,1c0.3,0.6,0.8,1.2,1.2,1.7
					c1,1.1,2.1,1.9,3.3,2.5c0.3,0.2,0.6,0.3,0.9,0.5l0.4,0.2l0.5,0.2c0.6,0.3,1.2,0.6,1.9,0.8c1.3,0.5,2.5,0.8,3.8,1.1
					c1.3,0.2,2.5,0.3,3.7,0.4C147.8,56.8,148.4,56.8,148.9,56.7z"/>
			</g>
			<path class="st0" d="M203.9,44.8c-0.1,1-2.3,3.6-3.4,5c-0.6,0.7-1.2,1.4-1.7,2.2c-0.3,0.4-0.6,0.9-0.9,1.3
				c-0.3-0.4-0.6-0.8-0.9-1.3c-0.5-0.7-1.2-1.4-1.7-2.2c-1.2-1.4-3.4-4.1-3.4-5c0-0.4,0.4-0.7,2-1.8c0.4-0.3,0.9-0.6,1.3-0.9
				c1-0.7,2-1.6,2.8-2.3c0.8,0.7,1.8,1.6,2.8,2.3c0.5,0.3,0.9,0.6,1.3,0.9C203.6,44,203.9,44.4,203.9,44.8 M206.8,44.8
				c0-2.5-2.2-3.4-4.5-5c-2.2-1.6-4.5-3.9-4.5-3.9s-2.2,2.3-4.5,3.9c-2.2,1.6-4.5,2.5-4.5,5c0,2.5,3.5,6,5.8,8.9
				c2.2,2.9,3.2,5.2,3.2,5.2s0.9-2.3,3.2-5.2C203.2,50.8,206.8,47.2,206.8,44.8L206.8,44.8z"/>
			<g>
				<g>
					<path class="st0" d="M193,22.7c0,0,0,0-0.1,0.1c-0.1,0.1-0.2,0.1-0.3,0.3c-0.1,0.1-0.3,0.3-0.4,0.4c-0.1,0.1-0.2,0.2-0.3,0.3
						c-0.1,0.1-0.2,0.2-0.3,0.3c-0.1,0.1-0.2,0.2-0.3,0.4c-0.1,0.1-0.2,0.3-0.3,0.4c-0.2,0.3-0.3,0.6-0.5,0.9
						c-0.1,0.3-0.3,0.7-0.4,1c-0.1,0.4-0.2,0.7-0.2,1.1c0,0.2,0,0.4,0,0.5l0,0.1v0.1v0c0-0.1,0,0,0,0v0l0,0l0,0l0,0.3l0,0.3
						c0,0.1,0,0.2,0,0.2c0,0.2,0,0.3,0.1,0.5c0.1,0.2,0.1,0.3,0.2,0.5c0.1,0.1,0.1,0.3,0.2,0.4c0.1,0.1,0.2,0.3,0.2,0.4
						c0,0.1,0.1,0.1,0.1,0.2c0,0.1,0.1,0.1,0.1,0.2c0.1,0.1,0.2,0.2,0.3,0.3c0.1,0.1,0.2,0.2,0.3,0.3c0.2,0.2,0.3,0.3,0.5,0.4
						c0.3,0.2,0.4,0.3,0.4,0.3s-0.2,0-0.6-0.1c-0.1,0-0.2,0-0.3-0.1c-0.1,0-0.2-0.1-0.3-0.2c-0.1-0.1-0.2-0.1-0.4-0.2
						c-0.1-0.1-0.2-0.2-0.4-0.3c-0.1,0-0.1-0.1-0.2-0.1c-0.1-0.1-0.1-0.1-0.2-0.2c-0.1-0.1-0.3-0.3-0.4-0.4
						c-0.1-0.2-0.2-0.3-0.3-0.5c-0.1-0.2-0.2-0.4-0.2-0.6c-0.1-0.2-0.1-0.4-0.2-0.6c0-0.1-0.1-0.2-0.1-0.3l0-0.3l0-0.3l0,0l0,0l0,0
						v0l0-0.1l0-0.2c0-0.2,0-0.4,0-0.6c0.1-0.4,0.2-0.9,0.3-1.2c0.1-0.4,0.3-0.8,0.5-1.1c0.2-0.3,0.4-0.7,0.7-0.9
						c0.1-0.1,0.2-0.3,0.4-0.4c0.1-0.1,0.2-0.2,0.4-0.3c0.1-0.1,0.2-0.2,0.4-0.3c0.1-0.1,0.2-0.2,0.3-0.2c0.2-0.1,0.4-0.2,0.6-0.3
						c0.2-0.1,0.3-0.1,0.4-0.1C193,22.7,193,22.7,193,22.7z"/>
					<path class="st0" d="M189.3,25.6c0,0-0.1,0.2-0.2,0.5c-0.1,0.3-0.3,0.7-0.6,1.1c-0.2,0.2-0.3,0.5-0.5,0.7
						c-0.1,0.1-0.2,0.2-0.3,0.4c-0.1,0.1-0.2,0.2-0.4,0.4c-0.1,0.1-0.3,0.2-0.4,0.3c-0.1,0.1-0.3,0.2-0.4,0.3
						c-0.2,0.1-0.3,0.2-0.5,0.3c-0.2,0.1-0.3,0.2-0.5,0.2c-0.2,0.1-0.4,0.1-0.5,0.2l0,0l0,0l0,0l0,0l-0.1,0l-0.1,0l-0.3,0
						c-0.2,0-0.4,0-0.6,0c-0.2,0-0.4,0-0.5-0.1c-0.2,0-0.3-0.1-0.5-0.1c-0.1,0-0.2,0-0.2-0.1c-0.1,0-0.2-0.1-0.2-0.1
						c-0.1-0.1-0.3-0.1-0.4-0.2c-0.1-0.1-0.3-0.2-0.4-0.2c-0.2-0.1-0.4-0.3-0.6-0.5c-0.2-0.1-0.3-0.3-0.4-0.4
						c-0.2-0.2-0.3-0.4-0.3-0.4s0.2,0.1,0.4,0.2c0.1,0.1,0.3,0.2,0.5,0.3c0.2,0.1,0.4,0.2,0.6,0.3c0.1,0,0.2,0.1,0.4,0.1
						c0.1,0,0.3,0.1,0.4,0.1c0.1,0,0.3,0.1,0.4,0.1c0.1,0,0.3,0.1,0.4,0.1c0.1,0,0.3,0,0.5,0c0.2,0,0.3,0,0.4,0l0.3,0l0.1,0l0.1,0
						l0,0c0,0,0,0,0,0l0,0l0,0l0,0c0.2,0,0.3-0.1,0.5-0.1c0.1-0.1,0.3-0.1,0.4-0.2c0.1-0.1,0.3-0.1,0.4-0.2c0.1-0.1,0.3-0.2,0.4-0.3
						c0.1-0.1,0.3-0.2,0.4-0.3c0.1-0.1,0.3-0.2,0.4-0.3c0.1-0.1,0.2-0.2,0.3-0.3c0.2-0.2,0.4-0.4,0.6-0.6c0.4-0.4,0.7-0.7,0.9-0.9
						C189.2,25.8,189.3,25.6,189.3,25.6z"/>
					<path class="st0" d="M188.5,27.9c0,0-0.5,3.2,1.3,5.1C189.8,33,186.5,30.8,188.5,27.9z"/>
				</g>
				<g>
					<path class="st0" d="M202.7,22.7c0,0,0,0,0.1,0c0.1,0,0.2,0.1,0.4,0.1c0.2,0.1,0.4,0.2,0.6,0.3c0.1,0.1,0.2,0.1,0.3,0.2
						c0.1,0.1,0.2,0.2,0.4,0.3c0.1,0.1,0.2,0.2,0.4,0.3c0.1,0.1,0.2,0.2,0.4,0.4c0.2,0.3,0.4,0.6,0.7,0.9c0.2,0.3,0.4,0.7,0.5,1.1
						c0.1,0.4,0.2,0.8,0.3,1.2c0,0.2,0,0.4,0,0.6l0,0.2l0,0.1v0l0,0l0,0l0,0l0,0.3l0,0.3c0,0.1,0,0.2-0.1,0.3
						c-0.1,0.2-0.1,0.4-0.2,0.6c-0.1,0.2-0.1,0.4-0.2,0.6c-0.1,0.2-0.2,0.3-0.3,0.5c-0.1,0.2-0.2,0.3-0.4,0.4
						c-0.1,0.1-0.1,0.1-0.2,0.2c-0.1,0.1-0.1,0.1-0.2,0.1c-0.1,0.1-0.3,0.2-0.4,0.3c-0.1,0.1-0.3,0.1-0.4,0.2
						c-0.1,0.1-0.2,0.1-0.3,0.2c-0.1,0-0.2,0.1-0.3,0.1c-0.4,0.1-0.6,0.1-0.6,0.1s0.2-0.1,0.4-0.3c0.1-0.1,0.3-0.2,0.5-0.4
						c0.1-0.1,0.2-0.2,0.3-0.3c0.1-0.1,0.2-0.2,0.3-0.3c0-0.1,0.1-0.1,0.1-0.2c0-0.1,0.1-0.1,0.1-0.2c0.1-0.1,0.2-0.2,0.2-0.4
						c0.1-0.1,0.1-0.3,0.2-0.4c0.1-0.1,0.1-0.3,0.1-0.5c0.1-0.2,0.1-0.3,0.1-0.5c0-0.1,0-0.2,0-0.2l0-0.3l0-0.3l0,0l0,0v0
						c0,0,0,0,0,0v0v-0.1l0-0.1c0-0.2,0-0.4,0-0.5c0-0.4-0.1-0.7-0.2-1.1c-0.1-0.4-0.2-0.7-0.4-1c-0.1-0.3-0.3-0.6-0.5-0.9
						c-0.1-0.1-0.2-0.3-0.3-0.4c-0.1-0.1-0.2-0.2-0.3-0.4c-0.1-0.1-0.2-0.2-0.3-0.3c-0.1-0.1-0.2-0.2-0.3-0.3
						c-0.2-0.2-0.3-0.3-0.4-0.4c-0.1-0.1-0.2-0.2-0.3-0.3C202.7,22.7,202.7,22.7,202.7,22.7z"/>
					<path class="st0" d="M206.4,25.6c0,0,0.1,0.1,0.3,0.4c0.2,0.2,0.5,0.6,0.9,0.9c0.2,0.2,0.4,0.4,0.6,0.6
						c0.1,0.1,0.2,0.2,0.3,0.3c0.1,0.1,0.2,0.2,0.4,0.3c0.1,0.1,0.3,0.2,0.4,0.3c0.1,0.1,0.3,0.2,0.4,0.3c0.1,0.1,0.3,0.1,0.4,0.2
						c0.1,0.1,0.3,0.1,0.5,0.2c0.2,0.1,0.3,0.1,0.5,0.1l0,0l0,0l0,0c0,0,0,0,0,0l0,0l0.1,0l0.1,0l0.3,0c0.2,0,0.3,0,0.4,0
						c0.1,0,0.3,0,0.5,0c0.2,0,0.3,0,0.4-0.1c0.1,0,0.3-0.1,0.4-0.1c0.1,0,0.3-0.1,0.4-0.1c0.1-0.1,0.2-0.1,0.4-0.1
						c0.1,0,0.2-0.1,0.3-0.1c0.1-0.1,0.2-0.1,0.3-0.1c0.2-0.1,0.4-0.2,0.5-0.3c0.3-0.2,0.4-0.2,0.4-0.2s-0.1,0.1-0.3,0.4
						c-0.1,0.1-0.2,0.3-0.4,0.4c-0.2,0.1-0.3,0.3-0.6,0.5c-0.1,0.1-0.2,0.2-0.4,0.2c-0.1,0.1-0.3,0.1-0.4,0.2
						c-0.1,0-0.1,0.1-0.2,0.1c-0.1,0-0.2,0-0.2,0.1c-0.2,0-0.3,0.1-0.5,0.1c-0.2,0-0.4,0.1-0.5,0.1c-0.2,0-0.4,0-0.6,0l-0.3,0
						l-0.1,0l-0.1,0l0,0l0,0l0,0l0,0c-0.2-0.1-0.4-0.1-0.5-0.2c-0.2-0.1-0.4-0.1-0.5-0.2c-0.2-0.1-0.3-0.2-0.5-0.3
						c-0.1-0.1-0.3-0.2-0.4-0.3c-0.1-0.1-0.3-0.2-0.4-0.3c-0.1-0.1-0.2-0.2-0.4-0.4c-0.1-0.1-0.2-0.2-0.3-0.4
						c-0.2-0.2-0.4-0.5-0.5-0.7c-0.3-0.4-0.5-0.8-0.6-1.1C206.5,25.8,206.4,25.6,206.4,25.6z"/>
					<path class="st0" d="M207.2,27.9c0,0,0.5,3.2-1.3,5.1C205.9,33,209.2,30.8,207.2,27.9z"/>
				</g>
			</g>
			<g>
				<path class="st0" d="M201.1,17.6c0,0-2.5,2.1-2.5,4.8C198.7,22.4,197.6,18.5,201.1,17.6z"/>
				<path class="st0" d="M194.5,17.6c0,0,2.5,2.1,2.5,4.8C197,22.4,198.1,18.5,194.5,17.6z"/>
			</g>
			<g>
				<path class="st0" d="M221.4,25.9c0.4-0.3,0.8-0.8,1-1.3c0.3-0.5,0.5-1.1,0.6-1.7c0.2-1.2,0.1-2.5-0.4-3.8
					c-0.1-0.3-0.3-0.6-0.4-0.9c-0.1-0.2-0.2-0.3-0.2-0.4l-0.3-0.5c-0.4-0.6-0.8-1.1-1.4-1.6c-1-1-2.3-1.7-3.7-2.2
					c-1.4-0.4-2.8-0.6-4.2-0.5c-1.4,0.1-2.8,0.4-4,0.9c-0.3,0.1-0.6,0.3-0.9,0.5c-0.1,0.1-0.3,0.2-0.4,0.2c-0.2,0.1-0.3,0.2-0.4,0.3
					c-0.5,0.4-1,0.8-1.4,1.2c-0.8,0.9-1.5,1.8-2,2.7c-0.5,0.9-0.9,1.8-1.2,2.5c-0.3,0.8-0.5,1.5-0.7,2c-0.2,0.6-0.3,1-0.3,1.3
					c-0.1,0.3-0.1,0.5-0.1,0.5s0.2-0.6,0.7-1.7c0.2-0.5,0.5-1.2,0.9-1.9c0.4-0.7,0.8-1.5,1.4-2.3c0.3-0.4,0.6-0.8,0.9-1.2
					c0,0,0.1-0.1,0.1-0.1c0.3-0.3,0.5-0.4,0.5-0.4c1.7-1,3.9-0.4,3.9-0.4c1.3,0.4,1.5-0.3,1.5-0.3c0.1-0.7,0.3-0.6,0.3-0.6
					c1.2,1.7,2.7,1.9,2.7,1.9c4.8-2.6,5.4,1.3,5.4,1.3c0-2.1-1.2-3.5-2.4-4.3c0.9,0.4,1.8,0.9,2.6,1.5c0.5,0.4,0.9,0.8,1.3,1.3
					l0.3,0.4l0.3,0.4c0.2,0.2,0.3,0.5,0.4,0.8c0.5,1.1,0.8,2.2,0.7,3.3c0,0.6-0.2,1.1-0.4,1.6c-0.2,0.5-0.5,0.9-0.8,1.2
					c-0.7,0.7-1.7,0.9-2.5,0.8c0,0-0.1,0-0.1,0c0,0,0,0,0,0c1.6,0,2.8-1.3,2.8-2.8c0-1.6-1.3-2.8-2.8-2.8c-1.6,0-2.8,1.3-2.8,2.8
					c0,0.2,0,0.3,0,0.5c0,0,0,0,0,0s0,0,0,0.1c0.2,1,0.8,1.8,1.7,2.1c0.3,0.2,0.7,0.4,1.1,0.4C219.6,26.8,220.6,26.6,221.4,25.9z"/>
				<path class="st0" d="M176.9,26.7c0.4-0.1,0.8-0.2,1.1-0.4c0.9-0.4,1.5-1.2,1.7-2.1c0,0,0-0.1,0-0.1s0,0,0,0c0-0.2,0-0.3,0-0.5
					c0-1.6-1.3-2.8-2.8-2.8c-1.6,0-2.8,1.3-2.8,2.8c0,1.6,1.3,2.8,2.8,2.8c0,0,0,0,0,0c0,0-0.1,0-0.1,0c-0.8,0.1-1.7-0.2-2.5-0.8
					c-0.4-0.3-0.6-0.7-0.8-1.2c-0.2-0.5-0.3-1-0.4-1.6c-0.1-1.1,0.2-2.3,0.7-3.3c0.1-0.3,0.3-0.5,0.4-0.8l0.3-0.4L175,18
					c0.4-0.5,0.8-0.9,1.3-1.3c0.8-0.6,1.6-1.1,2.6-1.5c-1.2,0.8-2.3,2.2-2.4,4.3c0,0,0.6-3.9,5.4-1.3c0,0,1.5-0.3,2.7-1.9
					c0,0,0.1-0.1,0.3,0.6c0,0,0.2,0.8,1.5,0.3c0,0,2.2-0.6,3.9,0.4c0,0,0.2,0.2,0.6,0.4c0,0,0.1,0.1,0.1,0.1
					c0.3,0.4,0.7,0.8,0.9,1.2c0.6,0.8,1,1.6,1.4,2.3c0.4,0.7,0.7,1.4,0.9,1.9c0.5,1.1,0.7,1.7,0.7,1.7s0-0.2-0.1-0.5
					c-0.1-0.3-0.2-0.8-0.3-1.3c-0.2-0.6-0.4-1.3-0.7-2c-0.3-0.8-0.7-1.6-1.2-2.5c-0.5-0.9-1.2-1.8-2-2.7c-0.4-0.4-0.9-0.9-1.4-1.2
					c-0.1-0.1-0.3-0.2-0.4-0.3c-0.1-0.1-0.3-0.2-0.4-0.2c-0.3-0.2-0.6-0.3-0.9-0.5c-1.2-0.5-2.6-0.9-4-0.9c-1.4-0.1-2.9,0.1-4.2,0.5
					c-1.4,0.4-2.7,1.2-3.7,2.2c-0.5,0.5-1,1-1.4,1.6l-0.3,0.5c-0.1,0.1-0.2,0.3-0.2,0.4c-0.2,0.3-0.3,0.6-0.4,0.9
					c-0.5,1.3-0.6,2.6-0.4,3.8c0.1,0.6,0.3,1.2,0.6,1.7c0.3,0.5,0.6,1,1,1.3C175.1,26.6,176.1,26.8,176.9,26.7z"/>
			</g>
			<g>
				<path class="st0" d="M203,16.3c0,0,0.1-0.3,0.2-0.7c0.2-0.5,0.5-1.1,0.9-1.8c0.2-0.4,0.5-0.7,0.8-1.1c0.3-0.4,0.6-0.8,1-1.2
					c0.4-0.4,0.8-0.7,1.3-1.1c0.5-0.3,1-0.6,1.5-0.9c0.5-0.2,1.1-0.4,1.7-0.6c0.6-0.1,1.1-0.2,1.7-0.2c0.3,0,0.5,0,0.8,0
					c0.3,0,0.5,0.1,0.8,0.1c0.5,0.1,0.9,0.3,1.3,0.4c0.4,0.2,0.8,0.3,1.1,0.5c0.3,0.2,0.6,0.3,0.8,0.5c0.4,0.3,0.6,0.5,0.6,0.5
					s-0.3-0.1-0.7-0.2c-0.2-0.1-0.5-0.1-0.8-0.2c-0.2,0-0.3-0.1-0.5-0.1c-0.2,0-0.4-0.1-0.6-0.1c-0.4,0-0.8-0.1-1.3-0.1
					c-0.2,0-0.4,0-0.7,0c-0.2,0-0.5,0-0.7,0c-0.5,0-1,0.1-1.4,0.3c-0.5,0.1-1,0.3-1.4,0.5c-0.5,0.2-0.9,0.5-1.3,0.7
					c-0.4,0.3-0.8,0.6-1.2,0.9c-0.4,0.3-0.7,0.6-1.1,0.9c-0.3,0.3-0.6,0.6-0.9,0.9c-0.3,0.3-0.5,0.6-0.7,0.8
					c-0.2,0.3-0.4,0.5-0.6,0.7C203.1,16,203,16.3,203,16.3z"/>
				<path class="st0" d="M192.7,16.3c0,0-0.2-0.2-0.5-0.6c-0.2-0.2-0.3-0.4-0.6-0.7c-0.2-0.3-0.5-0.5-0.7-0.8
					c-0.3-0.3-0.6-0.6-0.9-0.9c-0.3-0.3-0.7-0.6-1.1-0.9c-0.4-0.3-0.8-0.6-1.2-0.9c-0.4-0.3-0.9-0.5-1.3-0.7
					c-0.5-0.2-0.9-0.4-1.4-0.5c-0.5-0.1-1-0.2-1.4-0.3c-0.2,0-0.5,0-0.7,0c-0.2,0-0.5,0-0.7,0c-0.4,0-0.9,0.1-1.3,0.1
					c-0.2,0-0.4,0.1-0.6,0.1c-0.2,0-0.4,0.1-0.5,0.1c-0.3,0.1-0.6,0.1-0.8,0.2c-0.5,0.1-0.7,0.2-0.7,0.2s0.2-0.2,0.6-0.5
					c0.2-0.2,0.5-0.3,0.8-0.5c0.3-0.2,0.7-0.3,1-0.5c0.4-0.1,0.8-0.3,1.3-0.4c0.2-0.1,0.5-0.1,0.8-0.1c0.3,0,0.5,0,0.8,0
					c0.6,0,1.1,0.1,1.7,0.2c0.6,0.1,1.1,0.3,1.7,0.6c0.5,0.2,1,0.5,1.5,0.9c0.5,0.3,0.9,0.7,1.3,1.1c0.4,0.4,0.7,0.8,1,1.2
					c0.3,0.4,0.6,0.8,0.8,1.1c0.4,0.7,0.7,1.4,0.9,1.8C192.6,16,192.7,16.3,192.7,16.3z"/>
			</g>
			<path class="st0" d="M202.1,8.9c0-2.6-2-4.8-3.3-6l0.3-0.5L197.9,0l-1.4,2.3l0.3,0.6c-1.3,1.2-3.3,3.4-3.3,6
				c0,3.8,4.3,10.7,4.3,10.7S202.1,12.7,202.1,8.9z"/>
			<path class="st0" d="M198.8,36.1c1.7-0.8,2-3.7,2-5.4c0-0.5-0.2-1.4,0.2-1.8c0.9-0.9,2.2,0.1,2.8,0.8c-0.1-0.6-0.6-1.5-1.1-1.9
				c-0.8-0.7-1.8-0.6-2.7-0.2c0.3-0.1,0.2-1.1,0.1-1.3c-0.2-0.7-0.7-1.2-1.3-1.4l-1-1.9l-1.1,1.9c-0.6,0.2-1.1,0.7-1.3,1.4
				c0,0.2-0.1,1.2,0.1,1.3c-0.9-0.4-1.9-0.5-2.7,0.2c-0.5,0.4-1,1.3-1.1,1.9c0.6-0.7,1.9-1.7,2.8-0.8c0.4,0.4,0.3,1.3,0.2,1.8
				c0,1.7,0.3,4.8,2,5.4C197.3,36.2,198.4,36.3,198.8,36.1z"/>
		</g>
		<g>
			<path class="st1" d="M120.4,35c-1.9,0-3.6,2.3-4.5,3.8c-9.4,0.2-38.1,0.7-57.6,1c-6.4-0.3-12.8-0.7-19.2-1.2
				c-0.8-0.1-1.6-0.2-2.1-0.3c-0.3,0-0.5-0.1-0.8-0.1c0.1-0.1,0.3-0.2,0.4-0.2c0.3-0.2,0.5-0.5,0.7-0.9c0-0.1,0.1-0.2,0.1-0.3
				c0-0.2,0-0.4,0-0.6c0-0.1-0.1-0.2-0.1-0.3c0,0,0,0,0-0.1c0-0.1-0.2-0.3-0.2-0.4c0,0-0.1-0.1-0.1-0.1c0,0,0,0,0,0
				c-0.2-0.2-0.4-0.4-0.7-0.5c0,0,0,0,0,0c-0.1,0-0.2-0.1-0.3-0.1c-0.5-0.1-1,0-1.4,0.3c-0.3,0.2-0.5,0.7-0.5,1.1
				c0,0.3,0.2,0.7,0.6,0.9c0.3,0.2,0.7,0.3,1,0.1c-0.1,0-0.2-0.1-0.3-0.2c0-0.1,0-0.2,0.1-0.3c0.1-0.1,0.3-0.2,0.5,0
				c0.3,0.2,0.3,0.6,0,0.9c-0.1,0-0.2,0.1-0.2,0.1c-0.1,0.1-0.2,0.1-0.4,0.2c-0.3,0.1-0.8,0.3-1.1,0.3c-0.1,0-0.1,0-0.2,0
				c-1-0.1-2-0.2-2.8-0.4c0,0,0,0,0,0c0.3,0,0.4-0.1,0.7-0.2c0.1,0,0.2,0,0.3-0.1c0,0,0,0,0.1-0.1c0.1,0,0.2-0.1,0.3-0.1
				c0.3-0.2,0.6-0.6,0.7-1c-0.1-0.3-0.2-0.6-0.6-0.9c0,0-0.1,0-0.1-0.1c-0.6-0.2-1.1,0.1-1.2,0.7c0,0.1,0,0.1,0,0.2
				c0.1,0.2,0.5,0.4,0.7,0.3c-0.1,0-0.1,0-0.2-0.1c0-0.2,0.2-0.3,0.4-0.1c0,0.2,0,0.4-0.2,0.6c-0.1,0.1-0.2,0.1-0.2,0.2
				c-0.1,0.1-0.2,0.2-0.3,0.2c-0.1,0-0.2,0.1-0.3,0.1c0,0,0,0-0.1,0c-0.1,0-0.1,0-0.2,0.1c-0.1,0-0.2,0-0.3,0c-0.1,0-0.1,0-0.2,0
				c0,0-0.1,0-0.1,0c-0.8-0.3-1.5-0.6-2.1-1.4c-1.1-1.4,0.6-2.7,0.9-1.4c-0.6,0.4-1.7,1.4,0.6,1.4c2.5-0.5,0.4-5.2-2.7-3.9
				c-2.6,1.1-1.4,3.7,0.4,4.8c2.6,1.7,5.5,1.9,8.5,1.9c-3.3,1.4-7.8,0.6-10.2-1.9c-1.3-1.3-2.5-3.2-2.1-5.1c0.4-1.9,2.4-0.1,0.8-0.1
				c0.1,1.7,4.1-0.1,2.2-2.6c-1.7-2.3-4.8,0.2-5.3,2.2c-1.8,6.4,7.4,8.2,11.7,8.4c-3.6,1-8.6,0.3-12-1.1c-1.4-0.5-2.9-1.5-3.7-2.8
				c-1.2-1.9,1-3.2,1.1-2.6c0.1,0.5-1.7,0.7-0.3,1.6c1.2,0.8,2.3-1.1,2.6-2c1.2-4.5-5.4-3.9-6.1,0.3c-1.6,9.4,12.6,7.5,17.5,7.2
				c-0.1,0.1-0.1,0.1-0.2,0.1c-1.6,0.5-3.2,1.1-4.7,2c-4.5,0.5-8.4-2.7-13.3-4.3c-2.8-0.9-6,0.4-8.5-1c-1.3-0.8-2.3-1.6-2.8-3.2
				c-0.5-2.7,2.5-3.1,1.9-1.7c-0.5,0.1-0.3-0.2-0.7-0.2C2.8,33.5,5.4,35,6.5,34c2.1-1.8,0.6-4.3-1.5-5c-5.7,0.1-5.8,7-4,10.9
				c4.9,10.2,15.3,6.5,23.8,4.4c-1.2,0.8-2,1.9-2.8,3c-1.4,1.9-2.2,4.8,0.5,6c0.3,1.3,0.7,2.5,2,3c1.5,0.7,3-0.1,3.4-1.6
				c0-0.9-0.2-1.4-0.9-1.9c-0.5-0.3-2.1-0.3-1.3,0.7c0.6-0.5,0.5,0.3,0.3,0.6c-0.9,0-1.1-0.6-1.1-1.6c0,0,0,0,0,0
				c0-2.2,0.4-4,1.1-5.4l0,0c0.1,0.1,0.2,0.2,0.3,0.4c0,0,0,0.1,0,0.1c0.1,0.1,0.4,0.3,0.5,0.5c0.1,0.1,0.1,0.1,0.2,0.1
				c0,0,0,0,0,0.1c0.3,0.2,0.8,0.3,1.2,0.4c0,0,0,0,0.1,0c0.1,0,0.3,0,0.4,0c0.7-0.1,1.5-0.5,1.8-1c0.3-0.5,0.5-1.2,0.3-1.8
				c-0.2-0.5-0.7-0.9-1.3-1c-0.6-0.2-1.2-0.1-1.5,0.3c0.2,0,0.4,0,0.5,0.2c0,0.1,0.1,0.2,0,0.4c-0.1,0.2-0.4,0.4-0.8,0.3
				c-0.4-0.1-0.6-0.5-0.6-0.9c1.6-1.9,4-2.7,6.7-2.9c0,0,0,0,0,0c-0.4,0.2-0.6,0.3-0.9,0.5c-0.1,0.1-0.2,0.1-0.3,0.2
				c0,0,0,0.1-0.1,0.1c-0.1,0.1-0.2,0.2-0.4,0.3c-0.3,0.4-0.6,1.1-0.5,1.8c0.2,0.4,0.5,0.8,1.2,1c0.1,0,0.1,0,0.2,0
				c0.9,0,1.5-0.7,1.4-1.5c-0.1-0.1-0.1-0.1-0.1-0.2c-0.3-0.3-1-0.3-1.2-0.1c0.1,0,0.2,0,0.3,0.1c0.1,0.3-0.2,0.5-0.5,0.3
				c-0.2-0.3-0.1-0.6,0-0.9c0.1-0.1,0.2-0.2,0.3-0.3c0.1-0.2,0.2-0.3,0.4-0.4c0.1-0.1,0.3-0.2,0.4-0.3c0,0,0.1-0.1,0.1-0.1
				c0.1-0.1,0.2-0.1,0.3-0.2c0.1-0.1,0.3-0.1,0.5-0.2c0.1,0,0.1-0.1,0.2-0.1c0.1,0,0.1,0,0.2-0.1c0.4,0,0.9,0,1.3,0
				c0.5,0,1.2,0,1.8,0c9.9-1.1,19.9-1.4,29.8-1.5c18.2,0.3,39.7,0.7,47.6,0.9c0.9,1.6,2.6,3.9,4.5,3.9c2.9,0,5.2-5.3,5.2-5.3
				S123.3,35,120.4,35z"/>
			<path class="st1" d="M275.3,35c1.9,0,3.6,2.3,4.5,3.8c9.4,0.2,38.1,0.7,57.6,1c6.4-0.3,12.8-0.7,19.2-1.2
				c0.8-0.1,1.6-0.2,2.1-0.3c0.3,0,0.5-0.1,0.8-0.1c-0.1-0.1-0.3-0.2-0.4-0.2c-0.3-0.2-0.5-0.5-0.7-0.9c0-0.1-0.1-0.2-0.1-0.3
				c0-0.2,0-0.4,0-0.6c0-0.1,0.1-0.2,0.1-0.3c0,0,0,0,0-0.1c0-0.1,0.2-0.3,0.2-0.4c0,0,0.1-0.1,0.1-0.1c0,0,0,0,0,0
				c0.2-0.2,0.4-0.4,0.7-0.5c0,0,0,0,0,0c0.1,0,0.2-0.1,0.3-0.1c0.5-0.1,1,0,1.4,0.3c0.3,0.2,0.5,0.7,0.5,1.1c0,0.3-0.2,0.7-0.6,0.9
				c-0.3,0.2-0.7,0.3-1,0.1c0.1,0,0.2-0.1,0.3-0.2c0-0.1,0-0.2-0.1-0.3c-0.1-0.1-0.3-0.2-0.5,0c-0.3,0.2-0.3,0.6,0,0.9
				c0.1,0,0.2,0.1,0.2,0.1c0.1,0.1,0.2,0.1,0.4,0.2c0.3,0.1,0.8,0.3,1.1,0.3c0.1,0,0.1,0,0.2,0c1-0.1,2-0.2,2.8-0.4c0,0,0,0,0,0
				c-0.3,0-0.4-0.1-0.7-0.2c-0.1,0-0.2,0-0.3-0.1c0,0,0,0-0.1-0.1c-0.1,0-0.2-0.1-0.3-0.1c-0.3-0.2-0.6-0.6-0.7-1
				c0.1-0.3,0.2-0.6,0.6-0.9c0,0,0.1,0,0.1-0.1c0.6-0.2,1.1,0.1,1.2,0.7c0,0.1,0,0.1,0,0.2c-0.1,0.2-0.5,0.4-0.7,0.3
				c0.1,0,0.1,0,0.2-0.1c0-0.2-0.2-0.3-0.4-0.1c0,0.2,0,0.4,0.2,0.6c0.1,0.1,0.2,0.1,0.2,0.2c0.1,0.1,0.2,0.2,0.3,0.2
				c0.1,0,0.2,0.1,0.3,0.1c0,0,0,0,0.1,0c0.1,0,0.1,0,0.2,0.1c0.1,0,0.2,0,0.3,0c0.1,0,0.1,0,0.2,0c0,0,0.1,0,0.1,0
				c0.8-0.3,1.5-0.6,2.1-1.4c1.1-1.4-0.6-2.7-0.9-1.4c0.6,0.4,1.7,1.4-0.6,1.4c-2.5-0.5-0.4-5.2,2.7-3.9c2.6,1.1,1.4,3.7-0.4,4.8
				c-2.6,1.7-5.5,1.9-8.5,1.9c3.3,1.4,7.8,0.6,10.2-1.9c1.3-1.3,2.5-3.2,2.1-5.1c-0.4-1.9-2.4-0.1-0.8-0.1c-0.1,1.7-4.1-0.1-2.2-2.6
				c1.7-2.3,4.8,0.2,5.3,2.2c1.8,6.4-7.4,8.2-11.7,8.4c3.6,1,8.6,0.3,12-1.1c1.4-0.5,2.9-1.5,3.7-2.8c1.2-1.9-1-3.2-1.1-2.6
				c-0.1,0.5,1.7,0.7,0.3,1.6c-1.2,0.8-2.3-1.1-2.6-2c-1.2-4.5,5.4-3.9,6.1,0.3c1.6,9.4-12.6,7.5-17.5,7.2c0.1,0.1,0.1,0.1,0.2,0.1
				c1.6,0.5,3.2,1.1,4.7,2c4.5,0.5,8.4-2.7,13.3-4.3c2.8-0.9,6,0.4,8.5-1c1.3-0.8,2.3-1.6,2.8-3.2c0.5-2.7-2.5-3.1-1.9-1.7
				c0.5,0.1,0.3-0.2,0.7-0.2c1.2,1.1-1.3,2.7-2.5,1.7c-2.1-1.8-0.6-4.3,1.5-5c5.7,0.1,5.8,7,4,10.9c-4.9,10.2-15.3,6.5-23.8,4.4
				c1.2,0.8,2,1.9,2.8,3c1.4,1.9,2.2,4.8-0.5,6c-0.3,1.3-0.7,2.5-2,3c-1.5,0.7-3-0.1-3.4-1.6c0-0.9,0.2-1.4,0.9-1.9
				c0.5-0.3,2.1-0.3,1.3,0.7c-0.6-0.5-0.5,0.3-0.3,0.6c0.9,0,1.1-0.6,1.1-1.6c0,0,0,0,0,0c0-2.2-0.4-4-1.1-5.4v0
				c-0.1,0.1-0.2,0.2-0.3,0.4c0,0,0,0.1,0,0.1c-0.1,0.1-0.4,0.3-0.5,0.5c-0.1,0.1-0.1,0.1-0.2,0.1c0,0,0,0,0,0.1
				c-0.3,0.2-0.8,0.3-1.2,0.4c0,0,0,0-0.1,0c-0.1,0-0.3,0-0.4,0c-0.7-0.1-1.5-0.5-1.8-1c-0.3-0.5-0.5-1.2-0.3-1.8
				c0.2-0.5,0.7-0.9,1.3-1c0.6-0.2,1.2-0.1,1.5,0.3c-0.2,0-0.4,0-0.5,0.2c0,0.1-0.1,0.2,0,0.4c0.1,0.2,0.4,0.4,0.8,0.3
				c0.4-0.1,0.6-0.5,0.6-0.9c-1.6-1.9-4-2.7-6.7-2.9c0,0,0,0,0,0c0.4,0.2,0.6,0.3,0.9,0.5c0.1,0.1,0.2,0.1,0.3,0.2
				c0,0,0,0.1,0.1,0.1c0.1,0.1,0.2,0.2,0.4,0.3c0.3,0.4,0.6,1.1,0.5,1.8c-0.2,0.4-0.5,0.8-1.2,1c-0.1,0-0.1,0-0.2,0
				c-0.9,0-1.5-0.7-1.4-1.5c0.1-0.1,0.1-0.1,0.1-0.2c0.3-0.3,1-0.3,1.2-0.1c-0.1,0-0.2,0-0.3,0.1c-0.1,0.3,0.2,0.5,0.5,0.3
				c0.2-0.3,0.1-0.6,0-0.9c-0.1-0.1-0.2-0.2-0.3-0.3c-0.1-0.2-0.2-0.3-0.4-0.4c-0.1-0.1-0.3-0.2-0.4-0.3c0,0-0.1-0.1-0.1-0.1
				c-0.1-0.1-0.2-0.1-0.3-0.2c-0.1-0.1-0.3-0.1-0.5-0.2c-0.1,0-0.1-0.1-0.2-0.1c0,0-0.1,0-0.2-0.1c-0.4,0-0.9,0-1.3,0
				c-0.5,0-1.2,0-1.8,0c-9.9-1.1-19.9-1.4-29.8-1.5c-18.2,0.3-39.7,0.7-47.6,0.9c-0.9,1.6-2.6,3.9-4.5,3.9c-2.9,0-5.2-5.3-5.2-5.3
				S272.4,35,275.3,35z"/>
		</g>
	</g>
</g>
</svg>
